<svg width="36" height="35" viewBox="0 0 46 45" fill="none" xmlns="http://www.w3.org/2000/svg">
<path fill-rule="evenodd" clip-rule="evenodd" d="M35.0588 14.4816L34.0931 11.3091L27.9858 17.3222L31.0381 20.4919L37.5152 21.8785L40.2541 19.876L35.0588 14.4816Z" fill="black"/>
<path fill-rule="evenodd" clip-rule="evenodd" d="M26.416 19.8984H13.3911C13.3403 19.8984 7.06073 17.2209 6.11768 16.8159V18.0647L10.3586 21.9234C9.80803 22.6012 9.42121 23.3381 9.42121 23.9034V33.5137L13.312 33.8062V30.4115L18.6146 27.7397H25.2273L26.5516 33.5165H29.0363V22.5422L26.416 19.8984Z" fill="black"/>
<path fill-rule="evenodd" clip-rule="evenodd" d="M23.44 44.8819C11.0023 44.8819 0.882812 34.8554 0.882812 22.5282C0.882812 10.201 11.0023 0.177246 23.44 0.177246C35.8776 0.177246 45.9972 10.201 45.9972 22.5282C45.9972 34.8554 35.8776 44.8819 23.44 44.8819ZM23.3525 3.01787C12.335 3.01787 3.37034 11.8351 3.37034 22.6744C3.37034 33.5138 12.335 42.331 23.3525 42.331C34.3699 42.331 43.3346 33.511 43.3346 22.6744C43.3346 11.8351 34.3699 3.01787 23.3525 3.01787Z" fill="black"/>
</svg>
