<svg width="25" height="25" viewBox="0 0 39 39" fill="none" xmlns="http://www.w3.org/2000/svg">
<path d="M32.9558 0.51709C27.2745 0.523471 21.8277 2.78318 17.8104 6.80047C13.7932 10.8178 11.5335 16.2645 11.5271 21.9458V24.6244H2.152C1.88715 24.6245 1.62827 24.703 1.40808 24.8502C1.18788 24.9974 1.01627 25.2065 0.914921 25.4512C0.813576 25.6959 0.787054 25.9652 0.838707 26.2249C0.890361 26.4847 1.01787 26.7233 1.20512 26.9106L11.9195 37.625C12.1068 37.8122 12.3454 37.9397 12.6052 37.9914C12.8649 38.043 13.1342 38.0165 13.3789 37.9151C13.6235 37.8138 13.8327 37.6422 13.9799 37.422C14.127 37.2018 14.2056 36.9429 14.2057 36.6781V27.303H16.8843C22.5656 27.2966 28.0123 25.0369 32.0296 21.0196C36.0469 17.0023 38.3066 11.5556 38.313 5.87427V0.51709H32.9558ZM11.5271 33.445L5.38506 27.303H11.5271V33.445ZM14.2057 24.6244V21.9458C14.206 17.1105 16.0823 12.4639 19.4396 8.98412L29.846 19.3904C26.3662 22.7478 21.7196 24.6241 16.8843 24.6244H14.2057ZM35.6344 5.87427C35.6342 10.0547 34.2285 14.1137 31.6433 17.3989L21.4312 7.18678C24.7164 4.60157 28.7754 3.19591 32.9558 3.19568H35.6344V5.87427Z" fill="black"/>
</svg>
