<svg width="371" height="371" viewBox="0 0 371 371" fill="none" xmlns="http://www.w3.org/2000/svg">
<g opacity="0.39" clip-path="url(#clip0)">
<path d="M344.8 327.658L52.9769 42.8848C49.6832 39.6896 45.1623 38.6288 41.0689 39.6826C40.7916 39.1674 40.5266 38.646 40.1003 38.2109L11.6466 9.59387C9.23068 7.16354 5.314 7.1519 2.88367 9.56784C0.453334 11.9838 0.441698 15.9005 2.85763 18.3308L31.3051 46.9478C31.645 47.2897 32.072 47.4769 32.4679 47.7259C31.067 51.9979 32.0318 56.8533 35.3927 60.3648L318.427 353.875C325.668 361.16 337.437 361.195 344.722 353.953C352.007 346.711 352.035 334.936 344.8 327.658Z" fill="#BFA380"/>
<path d="M266.751 300.381L291.614 275.665L256.157 241.004L232.301 264.718L266.751 300.381Z" fill="#556080"/>
<path d="M328.939 207.296L322.742 207.277C329.563 214.139 332.743 239.093 354.603 217.368C363.945 208.081 366.961 194.462 357.674 185.12L310.554 137.719L279.262 107.005C263.708 91.7384 254.976 70.8398 255.041 49.044C255.087 33.6438 267.612 21.1934 283.012 21.2391C298.412 21.2849 310.862 33.8095 310.817 49.2097L310.798 55.407C310.795 56.5101 310.73 57.5944 310.603 58.66C308.531 76.0684 289.265 85.8959 273.085 79.1485L162.091 45.6692L76.2396 18.5549C67.4847 15.7897 58.3541 14.3681 49.1697 14.3408C26.0229 14.2783 7.19557 32.9879 7.12679 56.1409C7.11167 61.2289 7.71014 66.3001 8.90392 71.2491C11.7262 82.9332 17.8113 93.5735 26.4441 101.941L217.022 286.5" stroke="#C7CAC7" stroke-width="2" stroke-miterlimit="10" stroke-linecap="round"/>
<path d="M358.252 159.614C355.836 157.183 351.919 157.172 349.489 159.588L347.667 161.398L347.715 145.372C347.725 141.951 344.957 139.166 341.536 139.156C338.115 139.146 335.331 141.914 335.321 145.335L335.265 163.927L316.673 163.872C313.253 163.862 310.468 166.63 310.458 170.051C310.448 173.471 313.216 176.256 316.637 176.266L332.663 176.314L330.842 178.124C328.411 180.54 328.4 184.457 330.816 186.887C332.02 188.099 333.605 188.711 335.192 188.716C336.778 188.721 338.366 188.118 339.578 186.913L358.226 168.377C360.656 165.967 360.668 162.044 358.252 159.614Z" fill="#DD352E"/>
<path d="M56.4245 150.704C54.838 150.699 53.2533 150.087 52.0485 148.875C49.6325 146.445 49.6442 142.528 52.0745 140.112L82.5438 109.829C84.9741 107.413 88.8908 107.425 91.3068 109.855C93.7227 112.286 93.7111 116.202 91.2807 118.618L60.8114 148.901C59.5993 150.112 58.011 150.708 56.4245 150.704Z" fill="#556080"/>
<path d="M92.3422 186.836C90.7557 186.831 89.171 186.219 87.9662 185.007C85.5502 182.577 85.5619 178.66 87.9922 176.244L118.107 146.307C120.538 143.891 124.454 143.903 126.87 146.333C129.286 148.764 129.274 152.68 126.844 155.096L96.7291 185.033C95.5109 186.238 93.9225 186.84 92.3422 186.836Z" fill="#556080"/>
<path d="M126.094 223.99C124.508 223.985 122.923 223.373 121.718 222.161C119.302 219.731 119.314 215.814 121.744 213.398L151.859 183.461C154.289 181.046 158.206 181.057 160.622 183.487C163.038 185.918 163.026 189.834 160.596 192.25L130.481 222.187C129.269 223.398 127.681 223.995 126.094 223.99Z" fill="#556080"/>
<path d="M221.997 361.911C245.956 361.982 265.436 342.618 265.507 318.659C265.578 294.701 246.213 275.221 222.255 275.149C198.296 275.078 178.816 294.443 178.745 318.401C178.674 342.36 198.038 361.84 221.997 361.911Z" fill="#6C797A"/>
<path d="M222.046 343.301C215.7 343.282 209.361 340.846 204.542 336.004L213.331 327.267C218.138 332.109 226.009 332.133 230.863 327.319C235.711 322.5 235.735 314.635 230.915 309.787L239.704 301.05C249.343 310.747 249.296 326.469 239.6 336.108C234.752 340.928 228.399 343.32 222.046 343.301Z" fill="#E0E1E2"/>
<path d="M204.681 312.281C203.956 312.279 203.225 312.147 202.507 311.878L159.001 295.413L154.799 307.894C153.711 311.132 150.204 312.894 146.948 311.787C143.704 310.693 141.96 307.18 143.054 303.936L151.358 279.271L206.898 300.283C210.098 301.495 211.711 305.076 210.499 308.276C209.556 310.759 207.19 312.289 204.681 312.281Z" fill="#556080"/>
</g>
<defs>
<clipPath id="clip0">
<rect width="369" height="369" fill="white" transform="translate(1.09625) rotate(0.170223)"/>
</clipPath>
</defs>
</svg>
