<svg id="Capa_1" enable-background="new 0 0 512 512" height="22" viewBox="0 0 512 512" width="22" xmlns="http://www.w3.org/2000/svg"><g><circle cx="406" cy="181" r="10"/><path d="m3.161 428.296c1.424 1.335 35.271 32.704 68.839 32.704 25.031 0 50.218-17.443 62-26.869 11.782 9.426 36.969 26.869 62 26.869 24.747 0 48.536-16.977 60-26.567 11.464 9.59 35.253 26.567 60 26.567 25.031 0 50.218-17.443 62-26.869 11.782 9.426 36.969 26.869 62 26.869 33.568 0 67.415-31.369 68.839-32.705 4.029-3.777 4.233-10.105.456-14.135-3.778-4.03-10.106-4.234-14.135-.456-8.097 7.593-33.794 27.296-55.16 27.296-25.624 0-54.876-27.03-55.161-27.295-3.847-3.606-9.832-3.606-13.679 0-8.097 7.592-33.794 27.295-55.16 27.295-25.426 0-52.666-26.809-52.929-27.071-3.899-3.899-10.226-3.897-14.133-.009-.272.271-27.512 27.08-52.938 27.08-25.624 0-54.876-27.03-55.161-27.295-3.847-3.606-9.832-3.606-13.679 0-8.097 7.592-33.794 27.295-55.16 27.295-25.624 0-54.876-27.03-55.168-27.303-4.029-3.77-10.352-3.563-14.127.463-3.778 4.03-3.574 10.358.456 14.136z"/><path d="m2.705 339.161c-3.777 4.029-3.573 10.357.456 14.135 1.424 1.335 35.271 32.704 68.839 32.704 25.031 0 50.218-17.443 62-26.869 11.782 9.426 36.969 26.869 62 26.869 24.747 0 48.536-16.977 60-26.567 11.464 9.59 35.253 26.567 60 26.567 25.031 0 50.218-17.443 62-26.869 11.782 9.426 36.969 26.869 62 26.869 33.568 0 67.415-31.369 68.839-32.705 4.029-3.777 4.233-10.105.456-14.135-3.778-4.03-10.106-4.234-14.135-.456-8.097 7.593-33.794 27.296-55.16 27.296-25.624 0-54.876-27.03-55.161-27.295-3.847-3.606-9.832-3.606-13.679 0-8.097 7.592-33.794 27.295-55.16 27.295-25.426 0-52.666-26.809-52.929-27.071-3.899-3.899-10.226-3.897-14.133-.009-.272.271-27.512 27.08-52.938 27.08-25.624 0-54.876-27.03-55.161-27.295-3.847-3.606-9.832-3.606-13.679 0-8.097 7.592-33.794 27.295-55.16 27.295-25.624 0-54.876-27.03-55.168-27.303-4.03-3.77-10.352-3.563-14.127.464z"/><path d="m296 181c0-5.523-4.477-10-10-10h-30c-5.523 0-10 4.477-10 10s4.477 10 10 10h30c5.523 0 10-4.477 10-10z"/><circle cx="236" cy="249" r="10"/><path d="m36 256v15c0 5.523 4.477 10 10 10h15c31.222 0 59.815-17.132 74.621-44.71 5.867-10.929 17.74-15.206 27.621-9.942 9.128 4.858 18.256 9.49 27.13 13.766 4.977 2.397 10.953.307 13.35-4.668 2.397-4.976.307-10.952-4.668-13.35-8.634-4.16-17.521-8.669-26.413-13.402-19.583-10.428-43.583-2.46-54.641 18.137-11.316 21.076-33.157 34.169-57 34.169h-5v-5c0-31.527 22.592-58.375 53.72-63.841 4.782-.839 8.271-4.994 8.271-9.849v-2.62c0-4.855-3.488-9.01-8.271-9.849-31.128-5.465-53.72-32.314-53.72-63.841v-5h5c23.843 0 45.684 13.093 57 34.17 11.058 20.598 35.059 28.566 54.639 18.138 44.248-23.549 108.403-52.293 158.305-52.308h.056c12.952 0 25.598 1.994 37.771 5.934-20.778 18.773-32.771 45.36-32.771 74.066s11.993 55.293 32.771 74.066c-12.174 3.94-24.819 5.934-37.771 5.934-14.497 0-31.246-2.477-49.784-7.361-5.34-1.408-10.811 1.781-12.218 7.122-1.407 5.34 1.781 10.811 7.122 12.218 20.2 5.322 38.665 8.021 54.88 8.021 64.911 0 119.843-46.106 143.989-95.618 1.348-2.766 1.348-5.999 0-8.765-26.806-54.966-82.823-95.617-143.989-95.617-.01 0-.02.002-.03.002s-.02-.002-.03-.002c-23.999 0-47.52-6.737-68.018-19.481-11.063-6.882-23.831-10.519-36.922-10.519h-30c-5.523 0-10 4.477-10 10 0 19.726 5.821 38.887 16.582 55.157-12.759 5.835-25.941 12.364-39.343 19.496-9.878 5.261-21.752.985-27.619-9.943-14.805-27.578-43.398-44.71-74.62-44.71h-15c-5.523 0-10 4.477-10 10v15c0 32.188 17.986 60.648 45.225 75-27.239 14.352-45.225 42.813-45.225 75zm418.626-74.988c-6.851 11.969-28.474 45.53-65.051 65.154-21.121-15.03-33.575-39.001-33.575-65.166 0-26.164 12.453-50.135 33.574-65.164 36.443 19.569 58.176 53.216 65.052 65.176zm-228.626-110.012c9.354 0 18.469 2.594 26.36 7.502 6.925 4.305 14.156 7.999 21.607 11.096-16.362 4.431-33.959 10.57-52.708 18.388-7.919-10.905-12.953-23.627-14.633-36.986z"/></g></svg>