<svg width="22" height="12" viewBox="0 0 22 12" fill="none" xmlns="http://www.w3.org/2000/svg">
<path d="M12.4934 0C9.05708 0 6.05615 2.05388 4.38591 3.81113L1.05039 1.33425C0.587095 0.99 -0.104605 1.35675 0.0137978 1.884L0.937337 6L0.0134158 10.1164C-0.104987 10.6436 0.586713 11.01 1.05001 10.6661L4.38552 8.18925C6.05576 9.94613 9.05708 12 12.4934 12C17.7436 12 22 7.2 22 6C22 4.8 17.7436 0 12.4934 0ZM15.8328 6.9C15.3267 6.9 14.9161 6.49688 14.9161 6C14.9161 5.50275 15.3267 5.1 15.8328 5.1C16.3392 5.1 16.7494 5.50275 16.7494 6C16.7494 6.49688 16.3388 6.9 15.8328 6.9Z" fill="black"/>
</svg>
