<svg width="86" height="32" viewBox="0 0 86 32" fill="none" xmlns="http://www.w3.org/2000/svg">
<path d="M48.77 0C35.4932 0 23.8987 5.477 17.4455 10.163L4.55834 3.558C2.76832 2.64 0.0958454 3.618 0.55331 5.024L4.12153 16L0.551834 26.977C0.0943697 28.383 2.76685 29.36 4.55686 28.443L17.4441 21.838C23.8973 26.523 35.4932 32 48.77 32C69.0549 32 85.5 19.2 85.5 16C85.5 12.8 69.0549 0 48.77 0ZM61.672 18.4C59.7167 18.4 58.1304 17.325 58.1304 16C58.1304 14.674 59.7167 13.6 61.672 13.6C63.6288 13.6 65.2137 14.674 65.2137 16C65.2137 17.325 63.6273 18.4 61.672 18.4Z" fill="black"/>
</svg>
