<svg xmlns="http://www.w3.org/2000/svg" xmlns:xlink="http://www.w3.org/1999/xlink" width="220" zoomAndPan="magnify" viewBox="0 0 165 30.000001" height="40" preserveAspectRatio="xMidYMid meet" version="1.0"><defs><g/><clipPath id="id1"><path d="M 112 5.351562 L 161 5.351562 L 161 23.496094 L 112 23.496094 Z M 112 5.351562 " clip-rule="nonzero"/></clipPath></defs><g fill="rgb(100%, 100%, 100%)" fill-opacity="1"><g transform="translate(3.700098, 21.048389)"><g><path d="M 12.21875 -12.796875 L 12.21875 0 L 9.828125 0 L 9.828125 -5.59375 L 3.8125 -5.59375 L 3.8125 0 L 1.421875 0 L 1.421875 -12.796875 L 3.8125 -12.796875 L 3.8125 -7.296875 L 9.828125 -7.296875 L 9.828125 -12.796875 Z M 12.21875 -12.796875 "/></g></g></g><g fill="rgb(100%, 100%, 100%)" fill-opacity="1"><g transform="translate(17.3402, 21.048389)"><g><path d="M 13.625 -6.40625 C 13.625 -5.46875 13.46875 -4.597656 13.15625 -3.796875 C 12.851562 -2.992188 12.414062 -2.300781 11.84375 -1.71875 C 11.28125 -1.132812 10.597656 -0.675781 9.796875 -0.34375 C 9.003906 -0.0195312 8.125 0.140625 7.15625 0.140625 C 6.1875 0.140625 5.300781 -0.0195312 4.5 -0.34375 C 3.707031 -0.675781 3.023438 -1.132812 2.453125 -1.71875 C 1.890625 -2.300781 1.445312 -2.992188 1.125 -3.796875 C 0.8125 -4.597656 0.65625 -5.46875 0.65625 -6.40625 C 0.65625 -7.34375 0.8125 -8.207031 1.125 -9 C 1.445312 -9.800781 1.890625 -10.492188 2.453125 -11.078125 C 3.023438 -11.660156 3.707031 -12.113281 4.5 -12.4375 C 5.300781 -12.769531 6.1875 -12.9375 7.15625 -12.9375 C 7.800781 -12.9375 8.410156 -12.859375 8.984375 -12.703125 C 9.554688 -12.554688 10.082031 -12.347656 10.5625 -12.078125 C 11.039062 -11.804688 11.46875 -11.472656 11.84375 -11.078125 C 12.226562 -10.679688 12.550781 -10.238281 12.8125 -9.75 C 13.082031 -9.269531 13.285156 -8.75 13.421875 -8.1875 C 13.554688 -7.625 13.625 -7.03125 13.625 -6.40625 Z M 11.203125 -6.40625 C 11.203125 -7.101562 11.101562 -7.726562 10.90625 -8.28125 C 10.71875 -8.84375 10.453125 -9.316406 10.109375 -9.703125 C 9.765625 -10.097656 9.34375 -10.394531 8.84375 -10.59375 C 8.34375 -10.800781 7.78125 -10.90625 7.15625 -10.90625 C 6.53125 -10.90625 5.96875 -10.800781 5.46875 -10.59375 C 4.96875 -10.394531 4.539062 -10.097656 4.1875 -9.703125 C 3.84375 -9.316406 3.570312 -8.84375 3.375 -8.28125 C 3.1875 -7.726562 3.09375 -7.101562 3.09375 -6.40625 C 3.09375 -5.695312 3.1875 -5.0625 3.375 -4.5 C 3.570312 -3.945312 3.84375 -3.476562 4.1875 -3.09375 C 4.539062 -2.707031 4.96875 -2.410156 5.46875 -2.203125 C 5.96875 -1.992188 6.53125 -1.890625 7.15625 -1.890625 C 7.78125 -1.890625 8.34375 -1.992188 8.84375 -2.203125 C 9.34375 -2.410156 9.765625 -2.707031 10.109375 -3.09375 C 10.453125 -3.476562 10.71875 -3.945312 10.90625 -4.5 C 11.101562 -5.0625 11.203125 -5.695312 11.203125 -6.40625 Z M 11.203125 -6.40625 "/></g></g></g><g fill="rgb(100%, 100%, 100%)" fill-opacity="1"><g transform="translate(31.644167, 21.048389)"><g><path d="M 13.625 -6.40625 C 13.625 -5.46875 13.46875 -4.597656 13.15625 -3.796875 C 12.851562 -2.992188 12.414062 -2.300781 11.84375 -1.71875 C 11.28125 -1.132812 10.597656 -0.675781 9.796875 -0.34375 C 9.003906 -0.0195312 8.125 0.140625 7.15625 0.140625 C 6.1875 0.140625 5.300781 -0.0195312 4.5 -0.34375 C 3.707031 -0.675781 3.023438 -1.132812 2.453125 -1.71875 C 1.890625 -2.300781 1.445312 -2.992188 1.125 -3.796875 C 0.8125 -4.597656 0.65625 -5.46875 0.65625 -6.40625 C 0.65625 -7.34375 0.8125 -8.207031 1.125 -9 C 1.445312 -9.800781 1.890625 -10.492188 2.453125 -11.078125 C 3.023438 -11.660156 3.707031 -12.113281 4.5 -12.4375 C 5.300781 -12.769531 6.1875 -12.9375 7.15625 -12.9375 C 7.800781 -12.9375 8.410156 -12.859375 8.984375 -12.703125 C 9.554688 -12.554688 10.082031 -12.347656 10.5625 -12.078125 C 11.039062 -11.804688 11.46875 -11.472656 11.84375 -11.078125 C 12.226562 -10.679688 12.550781 -10.238281 12.8125 -9.75 C 13.082031 -9.269531 13.285156 -8.75 13.421875 -8.1875 C 13.554688 -7.625 13.625 -7.03125 13.625 -6.40625 Z M 11.203125 -6.40625 C 11.203125 -7.101562 11.101562 -7.726562 10.90625 -8.28125 C 10.71875 -8.84375 10.453125 -9.316406 10.109375 -9.703125 C 9.765625 -10.097656 9.34375 -10.394531 8.84375 -10.59375 C 8.34375 -10.800781 7.78125 -10.90625 7.15625 -10.90625 C 6.53125 -10.90625 5.96875 -10.800781 5.46875 -10.59375 C 4.96875 -10.394531 4.539062 -10.097656 4.1875 -9.703125 C 3.84375 -9.316406 3.570312 -8.84375 3.375 -8.28125 C 3.1875 -7.726562 3.09375 -7.101562 3.09375 -6.40625 C 3.09375 -5.695312 3.1875 -5.0625 3.375 -4.5 C 3.570312 -3.945312 3.84375 -3.476562 4.1875 -3.09375 C 4.539062 -2.707031 4.96875 -2.410156 5.46875 -2.203125 C 5.96875 -1.992188 6.53125 -1.890625 7.15625 -1.890625 C 7.78125 -1.890625 8.34375 -1.992188 8.84375 -2.203125 C 9.34375 -2.410156 9.765625 -2.707031 10.109375 -3.09375 C 10.453125 -3.476562 10.71875 -3.945312 10.90625 -4.5 C 11.101562 -5.0625 11.203125 -5.695312 11.203125 -6.40625 Z M 11.203125 -6.40625 "/></g></g></g><g fill="rgb(100%, 100%, 100%)" fill-opacity="1"><g transform="translate(45.948133, 21.048389)"><g><path d="M 3.8125 -7.4375 L 4.359375 -7.4375 C 4.585938 -7.4375 4.773438 -7.46875 4.921875 -7.53125 C 5.066406 -7.59375 5.191406 -7.691406 5.296875 -7.828125 L 8.828125 -12.296875 C 8.984375 -12.484375 9.140625 -12.613281 9.296875 -12.6875 C 9.460938 -12.757812 9.664062 -12.796875 9.90625 -12.796875 L 11.96875 -12.796875 L 7.65625 -7.484375 C 7.40625 -7.160156 7.144531 -6.929688 6.875 -6.796875 C 7.0625 -6.722656 7.234375 -6.617188 7.390625 -6.484375 C 7.546875 -6.359375 7.695312 -6.195312 7.84375 -6 L 12.28125 0 L 10.1875 0 C 9.90625 0 9.691406 -0.0351562 9.546875 -0.109375 C 9.410156 -0.191406 9.296875 -0.3125 9.203125 -0.46875 L 5.578125 -5.203125 C 5.472656 -5.359375 5.34375 -5.46875 5.1875 -5.53125 C 5.039062 -5.59375 4.832031 -5.625 4.5625 -5.625 L 3.8125 -5.625 L 3.8125 0 L 1.421875 0 L 1.421875 -12.796875 L 3.8125 -12.796875 Z M 3.8125 -7.4375 "/></g></g></g><g fill="rgb(100%, 100%, 100%)" fill-opacity="1"><g transform="translate(58.083485, 21.048389)"><g><path d="M 4.234375 -5.984375 C 3.753906 -5.671875 3.40625 -5.320312 3.1875 -4.9375 C 2.976562 -4.550781 2.875 -4.140625 2.875 -3.703125 C 2.875 -3.378906 2.929688 -3.085938 3.046875 -2.828125 C 3.160156 -2.566406 3.3125 -2.34375 3.5 -2.15625 C 3.6875 -1.976562 3.910156 -1.84375 4.171875 -1.75 C 4.429688 -1.65625 4.707031 -1.609375 5 -1.609375 C 5.507812 -1.609375 5.976562 -1.6875 6.40625 -1.84375 C 6.84375 -2.007812 7.234375 -2.234375 7.578125 -2.515625 Z M 12.75 0 L 10.609375 0 C 10.390625 0 10.207031 -0.0234375 10.0625 -0.078125 C 9.925781 -0.128906 9.78125 -0.242188 9.625 -0.421875 L 8.75 -1.328125 C 8.1875 -0.867188 7.554688 -0.507812 6.859375 -0.25 C 6.160156 0.0078125 5.410156 0.140625 4.609375 0.140625 C 4.117188 0.140625 3.632812 0.0546875 3.15625 -0.109375 C 2.675781 -0.273438 2.25 -0.515625 1.875 -0.828125 C 1.507812 -1.148438 1.210938 -1.535156 0.984375 -1.984375 C 0.753906 -2.441406 0.640625 -2.953125 0.640625 -3.515625 C 0.640625 -3.921875 0.703125 -4.300781 0.828125 -4.65625 C 0.960938 -5.019531 1.144531 -5.351562 1.375 -5.65625 C 1.601562 -5.957031 1.878906 -6.226562 2.203125 -6.46875 C 2.523438 -6.71875 2.875 -6.929688 3.25 -7.109375 C 2.925781 -7.554688 2.691406 -7.988281 2.546875 -8.40625 C 2.410156 -8.832031 2.34375 -9.253906 2.34375 -9.671875 C 2.34375 -10.117188 2.421875 -10.539062 2.578125 -10.9375 C 2.742188 -11.332031 2.976562 -11.675781 3.28125 -11.96875 C 3.59375 -12.269531 3.972656 -12.503906 4.421875 -12.671875 C 4.867188 -12.847656 5.378906 -12.9375 5.953125 -12.9375 C 6.472656 -12.9375 6.9375 -12.859375 7.34375 -12.703125 C 7.75 -12.546875 8.097656 -12.332031 8.390625 -12.0625 C 8.679688 -11.800781 8.910156 -11.5 9.078125 -11.15625 C 9.253906 -10.8125 9.351562 -10.457031 9.375 -10.09375 L 8 -9.796875 C 7.738281 -9.742188 7.546875 -9.859375 7.421875 -10.140625 C 7.367188 -10.285156 7.300781 -10.425781 7.21875 -10.5625 C 7.132812 -10.707031 7.03125 -10.832031 6.90625 -10.9375 C 6.789062 -11.039062 6.65625 -11.125 6.5 -11.1875 C 6.34375 -11.25 6.160156 -11.28125 5.953125 -11.28125 C 5.703125 -11.28125 5.476562 -11.234375 5.28125 -11.140625 C 5.09375 -11.054688 4.929688 -10.941406 4.796875 -10.796875 C 4.660156 -10.660156 4.554688 -10.492188 4.484375 -10.296875 C 4.410156 -10.109375 4.375 -9.90625 4.375 -9.6875 C 4.375 -9.507812 4.390625 -9.335938 4.421875 -9.171875 C 4.460938 -9.015625 4.523438 -8.851562 4.609375 -8.6875 C 4.691406 -8.519531 4.800781 -8.347656 4.9375 -8.171875 C 5.070312 -7.992188 5.234375 -7.804688 5.421875 -7.609375 L 8.828125 -4.078125 C 9.015625 -4.453125 9.164062 -4.84375 9.28125 -5.25 C 9.40625 -5.664062 9.488281 -6.085938 9.53125 -6.515625 C 9.539062 -6.648438 9.582031 -6.757812 9.65625 -6.84375 C 9.738281 -6.925781 9.847656 -6.96875 9.984375 -6.96875 L 11.34375 -6.96875 C 11.34375 -6.1875 11.234375 -5.441406 11.015625 -4.734375 C 10.796875 -4.023438 10.484375 -3.375 10.078125 -2.78125 Z M 12.75 0 "/></g></g></g><g fill="rgb(100%, 100%, 100%)" fill-opacity="1"><g transform="translate(70.891549, 21.048389)"><g><path d="M 5.296875 -6.703125 C 5.742188 -6.703125 6.132812 -6.757812 6.46875 -6.875 C 6.800781 -6.988281 7.070312 -7.144531 7.28125 -7.34375 C 7.5 -7.539062 7.660156 -7.773438 7.765625 -8.046875 C 7.878906 -8.316406 7.9375 -8.613281 7.9375 -8.9375 C 7.9375 -9.582031 7.71875 -10.078125 7.28125 -10.421875 C 6.851562 -10.773438 6.203125 -10.953125 5.328125 -10.953125 L 3.8125 -10.953125 L 3.8125 -6.703125 Z M 11.421875 0 L 9.265625 0 C 8.859375 0 8.5625 -0.160156 8.375 -0.484375 L 5.6875 -4.578125 C 5.59375 -4.734375 5.484375 -4.84375 5.359375 -4.90625 C 5.234375 -4.96875 5.054688 -5 4.828125 -5 L 3.8125 -5 L 3.8125 0 L 1.421875 0 L 1.421875 -12.796875 L 5.328125 -12.796875 C 6.191406 -12.796875 6.9375 -12.707031 7.5625 -12.53125 C 8.1875 -12.351562 8.695312 -12.097656 9.09375 -11.765625 C 9.488281 -11.441406 9.78125 -11.054688 9.96875 -10.609375 C 10.164062 -10.160156 10.265625 -9.660156 10.265625 -9.109375 C 10.265625 -8.679688 10.195312 -8.273438 10.0625 -7.890625 C 9.9375 -7.503906 9.753906 -7.15625 9.515625 -6.84375 C 9.273438 -6.53125 8.976562 -6.253906 8.625 -6.015625 C 8.28125 -5.785156 7.882812 -5.601562 7.4375 -5.46875 C 7.59375 -5.382812 7.734375 -5.28125 7.859375 -5.15625 C 7.992188 -5.03125 8.113281 -4.890625 8.21875 -4.734375 Z M 11.421875 0 "/></g></g></g><g fill="rgb(100%, 100%, 100%)" fill-opacity="1"><g transform="translate(82.274526, 21.048389)"><g><path d="M 13.625 -6.40625 C 13.625 -5.46875 13.46875 -4.597656 13.15625 -3.796875 C 12.851562 -2.992188 12.414062 -2.300781 11.84375 -1.71875 C 11.28125 -1.132812 10.597656 -0.675781 9.796875 -0.34375 C 9.003906 -0.0195312 8.125 0.140625 7.15625 0.140625 C 6.1875 0.140625 5.300781 -0.0195312 4.5 -0.34375 C 3.707031 -0.675781 3.023438 -1.132812 2.453125 -1.71875 C 1.890625 -2.300781 1.445312 -2.992188 1.125 -3.796875 C 0.8125 -4.597656 0.65625 -5.46875 0.65625 -6.40625 C 0.65625 -7.34375 0.8125 -8.207031 1.125 -9 C 1.445312 -9.800781 1.890625 -10.492188 2.453125 -11.078125 C 3.023438 -11.660156 3.707031 -12.113281 4.5 -12.4375 C 5.300781 -12.769531 6.1875 -12.9375 7.15625 -12.9375 C 7.800781 -12.9375 8.410156 -12.859375 8.984375 -12.703125 C 9.554688 -12.554688 10.082031 -12.347656 10.5625 -12.078125 C 11.039062 -11.804688 11.46875 -11.472656 11.84375 -11.078125 C 12.226562 -10.679688 12.550781 -10.238281 12.8125 -9.75 C 13.082031 -9.269531 13.285156 -8.75 13.421875 -8.1875 C 13.554688 -7.625 13.625 -7.03125 13.625 -6.40625 Z M 11.203125 -6.40625 C 11.203125 -7.101562 11.101562 -7.726562 10.90625 -8.28125 C 10.71875 -8.84375 10.453125 -9.316406 10.109375 -9.703125 C 9.765625 -10.097656 9.34375 -10.394531 8.84375 -10.59375 C 8.34375 -10.800781 7.78125 -10.90625 7.15625 -10.90625 C 6.53125 -10.90625 5.96875 -10.800781 5.46875 -10.59375 C 4.96875 -10.394531 4.539062 -10.097656 4.1875 -9.703125 C 3.84375 -9.316406 3.570312 -8.84375 3.375 -8.28125 C 3.1875 -7.726562 3.09375 -7.101562 3.09375 -6.40625 C 3.09375 -5.695312 3.1875 -5.0625 3.375 -4.5 C 3.570312 -3.945312 3.84375 -3.476562 4.1875 -3.09375 C 4.539062 -2.707031 4.96875 -2.410156 5.46875 -2.203125 C 5.96875 -1.992188 6.53125 -1.890625 7.15625 -1.890625 C 7.78125 -1.890625 8.34375 -1.992188 8.84375 -2.203125 C 9.34375 -2.410156 9.765625 -2.707031 10.109375 -3.09375 C 10.453125 -3.476562 10.71875 -3.945312 10.90625 -4.5 C 11.101562 -5.0625 11.203125 -5.695312 11.203125 -6.40625 Z M 11.203125 -6.40625 "/></g></g></g><g fill="rgb(100%, 100%, 100%)" fill-opacity="1"><g transform="translate(96.578492, 21.048389)"><g><path d="M 12.796875 -6.40625 C 12.796875 -5.46875 12.640625 -4.601562 12.328125 -3.8125 C 12.015625 -3.03125 11.570312 -2.351562 11 -1.78125 C 10.4375 -1.21875 9.753906 -0.78125 8.953125 -0.46875 C 8.160156 -0.15625 7.273438 0 6.296875 0 L 1.421875 0 L 1.421875 -12.796875 L 6.296875 -12.796875 C 7.273438 -12.796875 8.160156 -12.640625 8.953125 -12.328125 C 9.753906 -12.015625 10.4375 -11.570312 11 -11 C 11.570312 -10.4375 12.015625 -9.765625 12.328125 -8.984375 C 12.640625 -8.203125 12.796875 -7.34375 12.796875 -6.40625 Z M 10.34375 -6.40625 C 10.34375 -7.101562 10.25 -7.726562 10.0625 -8.28125 C 9.882812 -8.84375 9.617188 -9.316406 9.265625 -9.703125 C 8.910156 -10.085938 8.484375 -10.382812 7.984375 -10.59375 C 7.484375 -10.800781 6.921875 -10.90625 6.296875 -10.90625 L 3.8125 -10.90625 L 3.8125 -1.890625 L 6.296875 -1.890625 C 6.921875 -1.890625 7.484375 -1.992188 7.984375 -2.203125 C 8.484375 -2.410156 8.910156 -2.707031 9.265625 -3.09375 C 9.617188 -3.476562 9.882812 -3.945312 10.0625 -4.5 C 10.25 -5.0625 10.34375 -5.695312 10.34375 -6.40625 Z M 10.34375 -6.40625 "/></g></g></g><g clip-path="url(#id1)"><path fill="rgb(100%, 100%, 100%)" d="M 139.851562 5.371094 C 132.230469 5.371094 125.578125 8.46875 121.875 11.121094 L 114.476562 7.382812 C 113.449219 6.863281 111.917969 7.417969 112.179688 8.210938 L 114.226562 14.425781 L 112.179688 20.636719 C 111.914062 21.433594 113.449219 21.988281 114.476562 21.46875 L 121.871094 17.730469 C 125.578125 20.382812 132.230469 23.480469 139.851562 23.480469 C 151.492188 23.480469 160.929688 16.234375 160.929688 14.425781 C 160.929688 12.613281 151.492188 5.371094 139.851562 5.371094 Z M 147.253906 15.785156 C 146.132812 15.785156 145.222656 15.175781 145.222656 14.425781 C 145.222656 13.675781 146.132812 13.066406 147.253906 13.066406 C 148.378906 13.066406 149.289062 13.675781 149.289062 14.425781 C 149.289062 15.175781 148.378906 15.785156 147.253906 15.785156 Z M 147.253906 15.785156 " fill-opacity="1" fill-rule="nonzero"/></g></svg>