<?xml version="1.0" encoding="UTF-8"?>
<svg id="Warstwa_2" data-name="Warstwa 2" xmlns="http://www.w3.org/2000/svg" viewBox="0 0 200.6 63.06">
  <defs>
    <style>
      .cls-1 {
        fill: #c9d8dd;
      }

      .cls-2 {
        fill: #fff;
      }

      .cls-3 {
        fill: #59b1c6;
      }

      .cls-4 {
        fill: #69c7e3;
      }

      .cls-5 {
        fill: #88c16d;
      }

      .cls-6 {
        fill: #64b55a;
      }

      .cls-7 {
        fill: white;
      }
    </style>
  </defs>
  <g id="Warstwa_1-2" data-name="Warstwa 1">
    <g>
      <g>
        <path class="cls-7" d="M48.15,21.9c0-8.24,6.99-13.77,13.88-13.77,5.69,0,9.23,3.44,9.23,7.15,0,3.34-2.56,5.48-5.16,5.48-1.57,0-2.66-.78-2.77-2.35.26.1.47.26,1.04.26,2.09,0,3.5-1.77,3.5-3.97,0-2.5-2.24-4.49-5.58-4.49-4.7,0-9.55,4.54-9.55,11.32,0,7.25,6.62,12.83,14.66,12.83.52,0,.99-.05,1.51-.16.47-1.25.83-2.5,1.2-3.76,3.18-11.27,8.5-18.21,14.71-19.41,2.66-.52,5.53,1.04,5.53,4.07,0,5.74-6.89,16.07-16.85,19.82-1.77,3.44-3.7,6.1-5.79,8.14,8.71,5.11,16.54,16.17,23.63,16.17,3.6,0,5.84-2.4,5.84-4.8,0-1.83-1.15-3.44-3.13-3.44-.37,0-.78.1-1.04.26.26-1.56,1.46-2.35,3.03-2.35,2.45,0,4.59,1.93,4.59,4.8,0,4.02-5.74,9.34-12.68,9.34-11.95,0-16.12-12.89-22.33-18.21-2.66,1.83-5.58,2.77-8.76,2.77s-5.11-.94-5.11-2.71c0-1.98,2.29-3.39,4.07-3.86,3.18-.83,6.16-.63,9.13.63,1.3-1.51,2.35-3.39,3.18-5.43-.68.05-1.41.1-2.14.1-10.07,0-17.84-6.1-17.84-14.45ZM58.17,44.75c1.98,0,3.65-.57,5.01-1.51-.94-.47-1.93-.73-3.03-.73-.57,0-1.1.05-1.67.21-2.35.52-1.67,2.03-.31,2.03ZM85.5,13.5c-4.07,1.1-8.5,13.67-10.17,17.58l-.37.89c6.83-4.07,12.26-12.31,12.26-17.06,0-1.1-.83-1.62-1.72-1.41Z"/>
        <path class="cls-7" d="M98.34,27.69c0,3.5-4.75,8.35-11.48,8.61-.1.47-.1.89-.1,1.25,0,1.93,1.15,3.08,3.39,3.08,3.23,0,6.62-2.3,8.87-6.36h1.72c-2.03,4.9-7.2,10.96-13.36,10.96-3.44,0-6-1.93-6-5.63,0-6.36,6.73-15.13,12.52-15.13,1.46,0,4.43.47,4.43,3.23ZM87.28,34.68c4.9-.89,8.29-5.95,8.29-7.25,0-.73-.42-1.04-1.09-1.04-.21,0-.37,0-.57.05-2.87.68-5.53,4.7-6.63,8.24Z"/>
        <path class="cls-7" d="M101.42,24.87h1.98c1.04-1.98,2.14-3.86,3.08-5.53h4.7c-.89,1.56-1.93,3.5-3.03,5.53h3.18l-1.04,2.09h-3.18c-2.45,4.8-4.59,9.76-4.59,11.58,0,.78.36,1.51,1.46,1.51,1.83,0,3.7-2.5,5.32-5.79h1.72c-2.09,5.27-6.36,11.06-9.96,11.06s-4.02-2.82-4.02-4.07c0-3.13,2.5-8.87,5.27-14.29h-1.88l.99-2.09Z"/>
        <path class="cls-7" d="M117.59,25.76c0,3.44,2.24,6.52,2.24,10.23,0,5.22-3.76,9.44-8.92,9.44-2.24,0-3.96-.89-3.96-3.13,0-1.72,1.2-3.18,3.03-3.44-.26.21-.26.57-.26.78,0,.68.63,1.2,1.46,1.2,3.29,0,4.38-4.7,4.38-8.24,0-1.25-.37-3.18-.37-5.06,0-.26,0-.57.05-.83-2.14,2.82-3.65,6.36-4.23,7.56h-1.72c.73-1.51,3.08-7.62,6.63-10.85.37-.31.94-.63,1.56-.63s1.25.31,1.46.83c-1.04.26-1.36,1.36-1.36,2.14Z"/>
        <path class="cls-7" d="M140.13,29.31h1.67c.78-2.87,1.88-5.84,3.91-8.87,2.56-3.86,5.69-6.21,9.29-6.05-5.27-3.23-10.75-6.73-17.32-6.73-7.09,0-13.36,4.28-13.36,11.53,0,5.9,4.33,8.66,7.46,8.66,2.71,0,4.64-2.03,4.64-4.17,0-1.57-.99-2.87-2.56-2.87-.42,0-.68.1-.89.26.21-1.46,1.3-2.24,2.76-2.24,2.19,0,4.07,1.77,4.07,4.23,0,3.18-3.55,6.99-8.82,6.99-5.53,0-11.32-3.5-11.32-10.75,0-8.19,8.35-13.51,17.37-13.51,13.04,0,27.34,10.75,34.69,10.75,3.39,0,4.59-2.19,4.59-3.91,0-1.46-.94-2.87-2.56-2.87-.42,0-.68.1-.89.26.21-1.46,1.3-2.24,2.77-2.24,2.29,0,4.07,1.93,4.07,4.02,0,3.44-4.64,8.09-11.01,8.09-4.33,0-8.35-2.19-12.52-4.75-2.29.83-3.81,3.5-5.79,7.88l-2.56,6.31h4.23l-1.15,2.61h-4.12l-.1.26c-2.66,6.63-8.76,15.7-17.22,15.7-4.33,0-7.41-3.18-7.41-5.74,0-3.03,2.24-4.75,4.38-4.75,1.56,0,2.71,1.1,2.71,1.56-1.25-.05-2.19.94-2.19,2.45,0,1.83,1.93,3.65,4.96,3.65,2.35,0,4.59-1.77,5.95-3.97,1.72-2.76,2.45-5.9,3.23-9.18h-2.09l1.1-2.61Z"/>
        <path class="cls-7" d="M163.87,34.26c-2.09,5.27-6.36,11.06-9.96,11.06-3.13,0-3.5-2.56-3.5-3.81,0-4.85,3.91-12.26,6.21-16.64h5.22s-5.95,10.75-5.95,13.93c0,.78.26,1.25.94,1.25,1.83,0,3.7-2.5,5.32-5.79h1.72ZM163.46,13.97c1.98,0,3.08,1.56,2.45,3.55-.57,1.98-2.61,3.5-4.59,3.5s-3.03-1.51-2.45-3.5c.63-1.98,2.61-3.55,4.59-3.55Z"/>
        <path class="cls-7" d="M170.45,25.76c0,3.44,2.24,6.52,2.24,10.23,0,5.22-3.76,9.44-8.92,9.44-2.24,0-3.96-.89-3.96-3.13,0-1.72,1.2-3.18,3.03-3.44-.26.21-.26.57-.26.78,0,.68.63,1.2,1.46,1.2,3.29,0,4.38-4.7,4.38-8.24,0-1.25-.37-3.18-.37-5.06,0-.26,0-.57.05-.83-2.14,2.82-3.65,6.36-4.23,7.56h-1.72c.73-1.51,3.08-7.62,6.63-10.85.37-.31.94-.63,1.57-.63s1.25.31,1.46.83c-1.04.26-1.36,1.36-1.36,2.14Z"/>
        <path class="cls-7" d="M196.22,34.26c-2.09,5.27-6.37,11.06-9.96,11.06h-.26c-2.92-.16-3.6-2.71-3.6-3.96,0-4.64,6.36-11.53,6.36-13.62,0-.63-.37-.89-.83-.89-2.3,0-8.14,8.76-10.23,12.62-.94,1.77-1.72,3.5-2.87,5.48h-4.64c1.98-3.23,3.5-6.99,4.8-10.69,1.51-4.23,2.87-8.4,4.8-11.84,2.87-5.11,7.46-10.28,14.14-10.28,4.12,0,6.78,2.24,6.68,4.8-.1,1.83-1.51,3.76-3.81,3.76-1.36,0-2.45-1.04-2.45-1.51,1.15.1,2.24-.99,2.29-2.3.1-1.77-.89-3.08-3.03-3.08-5.58,0-9.34,8.14-13.15,18.52,2.45-3.96,5.11-7.93,9.08-7.93,2.14,0,3.65,1.15,3.65,3.29,0,3.29-4.9,7.72-4.9,11.11,0,.78.31,1.25.94,1.25,1.83,0,3.65-2.5,5.27-5.79h1.72Z"/>
      </g>
      <g>
        <path class="cls-4" d="M24.34,60.46c-.05,0-.13-.01-.21-.08-2.25-2-8.05-7.36-13.22-14.09-2.42-3.14-4.38-6.15-5.88-9.02-1-1.91-1.8-3.75-2.39-5.52,0,0,0,0,0-.01-.28-.85-.52-1.68-.71-2.5-.38-1.64-.57-3.22-.57-4.73C1.36,11.74,11.67,1.36,24.34,1.36s22.98,10.39,22.98,23.15c0,3.04-.77,6.34-2.3,9.89h0c-1.41,3.27-3.46,6.75-6.16,10.42-.35.48-.72.97-1.1,1.46-5.17,6.72-10.97,12.09-13.22,14.09-.03.02-.05.04-.08.05-.05.02-.09.03-.13.03Z"/>
        <path class="cls-3" d="M47.63,23.79s-7.95,8.04-13.39,8.04S11.71,22.56,1.37,27.29l.34,4.32s17.45,8.12,17.86,8.26,9.08,3.31,9.08,3.31l11.3-2.49,4.9-4.45,2.79-7.46v-4.99Z"/>
        <path class="cls-2" d="M1.71,27.98c.07.42.16.84.26,1.26.19.82.42,1.65.71,2.5,0,0,0,0,0,.01.59,1.77,1.39,3.62,2.39,5.52,1.5,2.86,3.46,5.87,5.88,9.02,5.17,6.72,10.97,12.09,13.22,14.09.07.07.15.08.21.08.03,0,.08,0,.13-.03.03-.01.05-.03.08-.05,2.25-2,8.05-7.36,13.22-14.09.38-.49.74-.98,1.1-1.46,2.69-3.67,4.75-7.15,6.16-10.42h0c1.07-2.5,1.77-4.87,2.09-7.12-.07.12-.15.23-.21.35-8.74,17.56-22.95,6.25-22.95,6.25,0,0-3.93-3.52-10.71-5.73-3.58-1.17-8.27-.88-11.58-.19Z"/>
        <path class="cls-5" d="M10.95,46.29c5.17,6.72,10.97,12.09,13.22,14.09.07.07.15.08.21.08.03,0,.08,0,.13-.03.03-.01.05-.03.08-.05,2.25-2,8.05-7.36,13.22-14.09.38-.49.74-.98,1.1-1.46,2.69-3.67,4.75-7.15,6.16-10.42h0c.29-.68.56-1.35.79-2.01-9.64,12.69-21.69,3.51-21.69,3.51,0,0-3.92-3.19-10.47-5.75-3.64-1.42-8.2-.92-11.55-.19.15.58.33,1.18.53,1.77,0,0,0,0,0,.01.59,1.77,1.39,3.62,2.39,5.52,1.5,2.86,3.46,5.87,5.88,9.02Z"/>
        <path class="cls-2" d="M32.6,24.52c-9.18,3.01-18.1-.26-25.7-5.34,0,0,0,0,0,0,0,0-.17.2-.47.52-.37.4-.95,1-1.66,1.62-.85.75-1.88,1.54-2.95,2.08-.15.08-.3.15-.45.21.14-3.68,1.13-7.14,2.79-10.19.99.58,1.84,2.39,2.83,2.84,6.76-5.28,16.04-9.15,24.68-6.31-4.51,3.65-4.85,11.78.94,14.57Z"/>
        <path class="cls-2" d="M41.12,16.21c-2.05-2.4-4.73-4.31-7.69-5.4-1.19.9-2.22,1.6-2.9,2.98-1.84,3.72-.35,8.91,4.07,9.7,2.29-.88,4.46-2.05,6.27-3.71-.59-.58-3.47-.14-2.73-1.88.34-.65,2.56-1.03,2.98-1.69ZM35.1,17.09c-.63,0-1.14-.51-1.14-1.14s.51-1.14,1.14-1.14,1.14.51,1.14,1.14-.51,1.14-1.14,1.14Z"/>
        <path class="cls-6" d="M10.98,46.29c5.17,6.72,10.97,12.09,13.22,14.09.07.07.15.08.21.08.03,0,.08,0,.13-.03.03-.01.05-.03.08-.05,2.25-2,8.05-7.36,13.22-14.09.38-.49.74-.98,1.1-1.46.51-.69.99-1.38,1.45-2.06-7.62,5.7-15.57-.36-15.57-.36,0,0-3.42-2.79-9.15-5.02-3.35-1.31-7.59-.75-10.54-.06,1.5,2.85,3.45,5.84,5.85,8.97Z"/>
        <g>
          <path class="cls-7" d="M13.65,18.49c.73-.59.64-1.68-.43-1.66-2.2.04-.82,2.68.43,1.66Z"/>
          <path class="cls-7" d="M36.13,17.96c2.48-1.32.67-5.57-2.12-3.91-2.46,1.45-.41,5.24,2.12,3.91ZM34.29,16.25c-.3-.88.82-1.49,1.44-.88.92.9-.96,2.27-1.44.88Z"/>
          <path class="cls-7" d="M5.55,11.08s0,0,0,0c0,0,0,0,0,0Z"/>
          <path class="cls-7" d="M24.71,16.62c-.88.17-3.33-.2-2.13,1.36.97.17,2.53,0,3.44-.28.76-1.34-.44-.87-1.31-1.08Z"/>
          <path class="cls-7" d="M1.36,25.94s0,.02,0,.02h0s0-.01,0-.02Z"/>
          <path class="cls-7" d="M5.77,10.78s-.07.1-.11.15c.04-.05.07-.1.11-.15Z"/>
          <path class="cls-7" d="M16.05,14.24c-1.41.31-.6,2.92.66,2.03.89-.63.5-2.28-.66-2.03Z"/>
          <path class="cls-7" d="M16.3,17.66c-1.17.07-1.06,2.2-.01,2.19,1.12,0,1.28-2.27.01-2.19Z"/>
          <path class="cls-7" d="M26.21,13.92c-9.34-3.44-8.95,8.82-.23,6.08.69-.1.78-1.4.03-1.42-7.12,1.49-6.76-5.8.36-3.08.05-.57.46-1.26-.16-1.57Z"/>
        </g>
        <path class="cls-1" d="M.66,21.82s4.07-1.22,6.25-3.1c0,0,11.98,7.67,24.94,4.78l2.1,1.63-7.06,1.13v1.44l-3.4,1.55h-2.56l-.15-1.55.08-1.14-1.53-.89-7.66-2.59-4.45-2.54-.75-.14-.8,1.44-3.12,2.09-1.51.36-.38-2.48Z"/>
        <path class="cls-1" d="M29.38,17.77s1.91,3.26,5.17,4.04,6.56-2.36,6.56-2.36c0,0,.67,1.28.52,1.31s-6.73,3.11-7.03,3.22-2-.9-2-.9c0,0-2.73-2.42-2.85-2.54s-.37-2.5-.37-2.5v-.27Z"/>
        <path class="cls-2" d="M11.55,12.27c0-.26.51-2.83.69-2.94s3.61-2.03,3.61-2.03c0,0,5.12-1.13,5.31-1.32s2.37-.45,2.52-.45,2.26.75,2.26.75l1.85,1.28-.89.64-9.17,1.39-6.18,2.67Z"/>
        <path class="cls-7" d="M24.34,0C10.9,0,0,10.97,0,24.51c0,4.29,1.45,8.74,3.64,13.01,5.63,10.99,16.17,20.84,19.6,23.87.63.56,1.58.56,2.21,0,2.77-2.46,10.22-9.39,15.94-17.78,4.08-5.99,7.29-12.72,7.29-19.1C48.68,10.97,37.78,0,24.34,0ZM6.99,16.27c6.76-5.29,16.04-9.15,24.68-6.31-4.51,3.65-4.85,11.78.94,14.57-9.18,3.01-18.1-.26-25.7-5.34,0,0,0,0,0,0,0,0-.17.2-.47.52-.37.4-.95,1-1.66,1.62-.85.75-1.88,1.54-2.95,2.08-.15.08-.3.15-.45.21.14-3.68,1.13-7.14,2.79-10.19.99.58,1.84,2.39,2.83,2.84ZM12.24,11.07c.93-3.01,8.44-5.04,11.1-5.09,1.09.29,2.66.86,3.56,1.6-.52-.02-1.16-.17-1.66-.17-4.31-.08-9.29,1.7-13,3.67ZM40.87,19.8c-1.81,1.66-3.98,2.83-6.27,3.71-4.43-.8-5.91-5.98-4.07-9.7.68-1.38,1.71-2.08,2.9-2.98,2.96,1.09,5.64,3,7.69,5.4-.42.66-2.64,1.04-2.98,1.69-.74,1.73,2.14,1.3,2.73,1.88ZM26.47,27.01c-.94,1.24-3.41,1.45-4.9,1.36-.08-.06-.1-.07-.09-.18,0-.08.27-1.09.3-1.14,1.53-.04,3.15.35,4.7-.05ZM45.02,34.41c-1.41,3.27-3.46,6.75-6.16,10.42-.35.48-.72.97-1.1,1.46-5.17,6.72-10.97,12.09-13.22,14.09-.03.02-.05.04-.08.05-.05.02-.09.03-.13.03-.05,0-.13-.01-.21-.08-2.25-2-8.05-7.36-13.22-14.09-2.42-3.14-4.38-6.15-5.88-9.02-1-1.91-1.8-3.75-2.39-5.52,0,0,0,0,0-.01-.28-.85-.52-1.68-.71-2.5-.33-1.43-.52-2.81-.56-4.15.6-.23,1.61-.72,3-1.73,0,0,0,0,0,0,1.03-.69,1.99-1.49,2.89-2.32l3.31,2.29c-1.71,2.91,1.19,1.72,3.53,2.73l-2.05-1.23c-.17-.27-.07-.63.05-.9,2.52,1.35,5.28,2.21,8.06,2.85.25.76-.58,1.86-.56,2.69,3.33,1.22,6.98-.16,9.36-2.49,2.3.42,19.86-7.57,11.73-8.76,4.15-1.72.95-3.82-1.15-5.71-2.74-2.31-6.49-3.89-9.92-4.65-1.49-1.48-3.93-3.26-6.11-3.52-4.02.26-13.62,2.78-13.2,7.83-1.1.64-2.19,1.3-3.15,2.13-.55-.62-1.67-1.57-2.16-2.32C9.11,5.6,16.24,1.36,24.34,1.36c12.67,0,22.98,10.39,22.98,23.15,0,3.04-.77,6.34-2.3,9.89h0Z"/>
        <circle class="cls-2" cx="12.46" cy="36.6" r="1.66"/>
        <circle class="cls-2" cx="27.56" cy="43.88" r="1.82"/>
        <circle class="cls-2" cx="32.61" cy="28.26" r="1.14"/>
        <circle class="cls-2" cx="42.38" cy="28.26" r="2.06"/>
      </g>
    </g>
  </g>
</svg>