<svg width="118" height="52" viewBox="0 0 118 52" fill="none" xmlns="http://www.w3.org/2000/svg">
<path d="M33.709 34.6152C33.6725 34.7064 33.6361 34.793 33.5996 34.875C33.5632 34.957 33.5358 35.0482 33.5176 35.1484C33.4538 35.194 33.3809 35.2305 33.2988 35.2578C33.2259 35.276 33.1484 35.2988 33.0664 35.3262C32.9844 35.3444 32.9069 35.3717 32.834 35.4082C32.7702 35.4355 32.7201 35.4811 32.6836 35.5449C32.6562 35.6816 32.6426 35.8092 32.6426 35.9277C32.6426 36.0827 32.6699 36.2148 32.7246 36.3242C32.6973 36.4062 32.679 36.4928 32.6699 36.584C32.6608 36.6751 32.6562 36.7617 32.6562 36.8438C32.6562 37.1445 32.6927 37.4453 32.7656 37.7461C32.8385 38.0378 32.8796 38.334 32.8887 38.6348C32.8887 38.6803 32.8841 38.7305 32.875 38.7852C32.8659 38.8398 32.8613 38.89 32.8613 38.9355C32.8613 39.127 32.9342 39.2546 33.0801 39.3184C33.0527 39.3639 33.0391 39.4049 33.0391 39.4414C33.0391 39.5143 33.0482 39.5781 33.0664 39.6328C33.0846 39.6875 33.0892 39.7467 33.0801 39.8105C33.1257 39.9017 33.1712 39.9837 33.2168 40.0566C33.2624 40.1204 33.2943 40.2025 33.3125 40.3027C33.2487 40.4303 33.1712 40.5488 33.0801 40.6582C32.9889 40.7585 32.9251 40.8861 32.8887 41.041C32.8522 41.0319 32.8112 41.0273 32.7656 41.0273C32.7018 41.0273 32.6517 41.041 32.6152 41.0684C32.5788 41.0957 32.5469 41.1276 32.5195 41.1641C32.5013 41.2096 32.4785 41.2507 32.4512 41.2871C32.4238 41.3327 32.3874 41.3646 32.3418 41.3828H32.3008C32.2552 41.3919 32.2142 41.3874 32.1777 41.3691C32.1504 41.36 32.123 41.3555 32.0957 41.3555C32.0775 41.3555 32.041 41.3646 31.9863 41.3828C31.9134 41.2917 31.8633 41.1823 31.8359 41.0547C31.8086 40.9362 31.7949 40.8177 31.7949 40.6992C31.7949 40.5716 31.8132 40.4577 31.8496 40.3574C31.7493 40.2754 31.6855 40.1523 31.6582 39.9883C31.64 39.8242 31.6172 39.6875 31.5898 39.5781C31.5169 39.2409 31.4303 38.9128 31.3301 38.5938C31.2389 38.2747 31.1842 37.9466 31.166 37.6094C31.1569 37.4818 31.1523 37.3587 31.1523 37.2402V36.5293C31.1523 36.4108 31.1569 36.2969 31.166 36.1875C31.166 36.1055 31.1706 36.028 31.1797 35.9551C31.1979 35.873 31.207 35.791 31.207 35.709C31.207 35.5996 31.1706 35.4948 31.0977 35.3945C30.4505 35.4219 29.8353 35.5404 29.252 35.75C28.6777 35.9505 28.1035 36.1921 27.5293 36.4746C27.4928 36.6842 27.4701 36.8893 27.4609 37.0898C27.4518 37.2904 27.4473 37.4954 27.4473 37.7051V38.3066C27.4473 38.5345 27.4564 38.7259 27.4746 38.8809C27.5202 39.1452 27.6523 39.3503 27.8711 39.4961C28.099 39.6328 28.3268 39.7376 28.5547 39.8105C28.5456 39.9473 28.5182 40.0658 28.4727 40.166C28.4271 40.2572 28.3678 40.3438 28.2949 40.4258C28.2311 40.4987 28.1582 40.5716 28.0762 40.6445C27.9941 40.7174 27.9121 40.7995 27.8301 40.8906C27.7572 40.8451 27.6842 40.8132 27.6113 40.7949C27.5384 40.7767 27.4609 40.7676 27.3789 40.7676C27.2969 40.7585 27.2148 40.7493 27.1328 40.7402C27.0508 40.7311 26.9688 40.7129 26.8867 40.6855L26.5859 40.2754C26.4857 40.1387 26.3763 40.002 26.2578 39.8652V39.7422C26.2578 39.4961 26.2122 39.2591 26.1211 39.0312C26.0299 38.8034 25.9616 38.571 25.916 38.334C25.9434 38.252 25.9616 38.1699 25.9707 38.0879C25.9798 38.0059 25.9844 37.9193 25.9844 37.8281C25.9844 37.6458 25.9753 37.4681 25.957 37.2949C25.9479 37.1217 25.9525 36.9486 25.9707 36.7754H25.9023C25.8203 36.7754 25.7337 36.7982 25.6426 36.8438C25.5514 36.8802 25.4603 36.9258 25.3691 36.9805C25.2871 37.026 25.2051 37.0716 25.123 37.1172C25.0501 37.1536 24.9863 37.1719 24.9316 37.1719C24.9043 37.1719 24.877 37.1673 24.8496 37.1582C24.8223 37.1491 24.7904 37.1445 24.7539 37.1445C24.7083 37.1445 24.6536 37.1628 24.5898 37.1992C24.526 37.2357 24.4577 37.2767 24.3848 37.3223C24.3027 37.3587 24.2207 37.3952 24.1387 37.4316C24.0566 37.4681 23.9746 37.4863 23.8926 37.4863C23.765 37.4863 23.6374 37.4316 23.5098 37.3223C23.4915 37.2493 23.487 37.181 23.4961 37.1172C23.4961 37.0534 23.4961 36.985 23.4961 36.9121C23.4961 36.8392 23.4824 36.7617 23.4551 36.6797C23.5189 36.5612 23.6055 36.4701 23.7148 36.4062C23.8151 36.3333 23.9245 36.2695 24.043 36.2148C24.1523 36.151 24.2663 36.0918 24.3848 36.0371C24.5033 35.9733 24.6035 35.8913 24.6855 35.791H24.7676C24.8952 35.791 25.0091 35.7637 25.1094 35.709C25.2188 35.6543 25.3418 35.6315 25.4785 35.6406C25.5241 35.6224 25.556 35.554 25.5742 35.4355L25.6289 35.4492C25.8294 35.4492 26.0072 35.3809 26.1621 35.2441C26.2624 34.679 26.3444 34.1094 26.4082 33.5352C26.472 32.9609 26.5039 32.3867 26.5039 31.8125C26.5039 31.7578 26.4857 31.7031 26.4492 31.6484C26.431 31.5755 26.4219 31.5072 26.4219 31.4434V31.2383C26.4219 31.138 26.4264 31.0332 26.4355 30.9238C26.4447 30.8145 26.4674 30.7051 26.5039 30.5957C26.5951 30.541 26.6908 30.5137 26.791 30.5137C26.9095 30.5137 27.0234 30.5319 27.1328 30.5684C27.2513 30.5957 27.3652 30.6185 27.4746 30.6367C27.5566 30.7188 27.6159 30.8099 27.6523 30.9102C27.6979 31.0104 27.7253 31.1152 27.7344 31.2246C27.7435 31.3249 27.7435 31.4297 27.7344 31.5391C27.7344 31.6393 27.7344 31.7396 27.7344 31.8398C27.7344 32.0404 27.7572 32.2363 27.8027 32.4277C27.8483 32.6191 27.8711 32.806 27.8711 32.9883C27.8711 33.0339 27.8529 33.0703 27.8164 33.0977C27.7891 33.1159 27.7754 33.1751 27.7754 33.2754C27.7754 33.3757 27.7845 33.4805 27.8027 33.5898C27.821 33.6992 27.8301 33.8086 27.8301 33.918C27.8301 34.0456 27.8118 34.1777 27.7754 34.3145C27.7389 34.4512 27.707 34.5833 27.6797 34.7109C28.2266 34.6654 28.7871 34.597 29.3613 34.5059C29.9355 34.4147 30.4824 34.2689 31.002 34.0684C31.0111 34.0501 31.0156 34.0228 31.0156 33.9863C31.0156 33.9316 31.0111 33.877 31.002 33.8223C30.9928 33.7676 30.9883 33.7083 30.9883 33.6445C30.9883 33.5352 31.0247 33.4486 31.0977 33.3848C31.0521 33.1296 31.0202 32.8743 31.002 32.6191C30.9837 32.3639 30.9746 32.1087 30.9746 31.8535V31.0742C30.9746 30.819 30.9701 30.5638 30.9609 30.3086C31.0339 30.263 31.1113 30.2402 31.1934 30.2402C31.2936 30.2402 31.3848 30.2676 31.4668 30.3223C31.5579 30.3678 31.6628 30.3906 31.7812 30.3906C31.8633 30.3906 31.9316 30.377 31.9863 30.3496C32.0866 30.4408 32.1549 30.5592 32.1914 30.7051C32.2279 30.8509 32.2598 31.0013 32.2871 31.1562C32.3145 31.3112 32.3418 31.4661 32.3691 31.6211C32.4056 31.7669 32.474 31.8854 32.5742 31.9766L32.5879 32.0176C32.5879 32.054 32.5697 32.0814 32.5332 32.0996C32.4967 32.1178 32.4785 32.1543 32.4785 32.209V32.2637C32.515 32.4095 32.5423 32.5599 32.5605 32.7148C32.5788 32.8698 32.5924 33.0293 32.6016 33.1934C32.6198 33.3483 32.6426 33.5033 32.6699 33.6582C32.6973 33.804 32.7474 33.9408 32.8203 34.0684C32.8659 34.0592 32.9251 34.0547 32.998 34.0547C33.1803 34.0547 33.3216 34.1185 33.4219 34.2461C33.5312 34.3646 33.627 34.4876 33.709 34.6152ZM43.2383 33.084C43.1836 33.166 43.1517 33.2572 43.1426 33.3574C43.1335 33.4577 43.1289 33.5488 43.1289 33.6309C43.1289 33.7402 43.1289 33.8496 43.1289 33.959C43.138 34.0592 43.1426 34.1595 43.1426 34.2598V34.4648C43.1243 34.5286 43.097 34.5924 43.0605 34.6562C43.0241 34.7201 42.9967 34.7839 42.9785 34.8477C42.8509 35.1849 42.7871 35.5221 42.7871 35.8594V35.8867C42.7415 35.9961 42.696 36.0964 42.6504 36.1875C42.6139 36.2786 42.5775 36.3698 42.541 36.4609C42.5046 36.543 42.4772 36.6341 42.459 36.7344C42.4408 36.8255 42.4362 36.9349 42.4453 37.0625C42.3177 37.3815 42.1491 37.6732 41.9395 37.9375C41.7298 38.1927 41.5247 38.457 41.3242 38.7305C41.1328 38.8034 40.9551 38.8991 40.791 39.0176C40.6361 39.1361 40.4857 39.2682 40.3398 39.4141C40.0573 39.5052 39.7793 39.61 39.5059 39.7285C39.2324 39.847 38.9863 40.0065 38.7676 40.207C38.5944 40.2253 38.4212 40.2526 38.248 40.2891C38.0749 40.3255 37.9062 40.3802 37.7422 40.4531H37.5781C37.4961 40.4531 37.4368 40.4349 37.4004 40.3984C37.2819 40.4622 37.1589 40.5078 37.0312 40.5352C36.9036 40.5534 36.776 40.5625 36.6484 40.5625C36.4844 40.5625 36.3203 40.5534 36.1562 40.5352C36.0013 40.5078 35.8418 40.4805 35.6777 40.4531C35.5866 40.3255 35.459 40.2298 35.2949 40.166C35.1309 40.0931 34.985 40.0247 34.8574 39.9609C34.5931 39.5964 34.4017 39.2454 34.2832 38.9082C34.1647 38.5618 34.0417 38.1745 33.9141 37.7461C33.9323 37.6185 33.9642 37.4954 34.0098 37.377C34.0553 37.2493 34.0736 37.1126 34.0645 36.9668C34.2285 36.4928 34.4427 36.0645 34.707 35.6816C34.9805 35.2897 35.2904 34.916 35.6367 34.5605C35.6367 34.5059 35.6458 34.4603 35.6641 34.4238C35.6914 34.3874 35.696 34.3327 35.6777 34.2598C35.6868 34.2689 35.7051 34.2734 35.7324 34.2734C35.8053 34.2734 35.8509 34.2552 35.8691 34.2188C35.8874 34.1732 35.8919 34.123 35.8828 34.0684C36.2109 33.8587 36.5072 33.6172 36.7715 33.3438C37.0449 33.0703 37.3548 32.8424 37.7012 32.6602C37.7285 32.5781 37.7741 32.5098 37.8379 32.4551C37.9017 32.4004 37.9518 32.3366 37.9883 32.2637C38.2799 32.1816 38.5443 32.0586 38.7812 31.8945C39.0182 31.7305 39.2689 31.5846 39.5332 31.457C39.679 31.375 39.8158 31.3203 39.9434 31.293C40.0801 31.2565 40.2259 31.2201 40.3809 31.1836C40.4355 31.1654 40.4857 31.1517 40.5312 31.1426C40.5768 31.1335 40.627 31.1289 40.6816 31.1289C40.8457 31.1289 41.0052 31.1608 41.1602 31.2246C41.3151 31.2793 41.4746 31.3066 41.6387 31.3066C41.6842 31.3066 41.7207 31.3066 41.748 31.3066C41.7845 31.2975 41.821 31.2884 41.8574 31.2793C42.0124 31.4707 42.2083 31.6165 42.4453 31.7168C42.5 31.8535 42.5638 31.972 42.6367 32.0723C42.7188 32.1725 42.8008 32.2728 42.8828 32.373C42.9648 32.4642 43.0378 32.569 43.1016 32.6875C43.1745 32.7969 43.2201 32.929 43.2383 33.084ZM41.8711 33.7949C41.8711 33.7493 41.8665 33.7083 41.8574 33.6719C41.7663 33.6445 41.6797 33.6081 41.5977 33.5625C41.5156 33.5169 41.4245 33.4941 41.3242 33.4941C41.2604 33.4941 41.1966 33.5078 41.1328 33.5352C41.1237 33.4714 41.0964 33.4258 41.0508 33.3984C41.0143 33.3711 40.9688 33.3483 40.9141 33.3301C40.8685 33.3027 40.8184 33.2845 40.7637 33.2754C40.7181 33.2572 40.6771 33.2298 40.6406 33.1934C40.6133 33.1204 40.5814 33.0475 40.5449 32.9746C40.5176 32.8926 40.4629 32.8333 40.3809 32.7969C40.2988 32.8789 40.2031 32.9473 40.0938 33.002C39.9844 33.0475 39.8704 33.0931 39.752 33.1387C39.6426 33.1842 39.5332 33.2389 39.4238 33.3027C39.3236 33.3665 39.237 33.444 39.1641 33.5352H38.918C38.8633 33.6354 38.7858 33.7129 38.6855 33.7676C38.5853 33.8132 38.4987 33.8815 38.4258 33.9727C38.2799 34.0456 38.1432 34.1367 38.0156 34.2461C37.8971 34.3464 37.7786 34.4557 37.6602 34.5742C37.5417 34.6836 37.4232 34.7975 37.3047 34.916C37.1953 35.0345 37.0768 35.1439 36.9492 35.2441C36.8307 35.4993 36.6986 35.7227 36.5527 35.9141C36.416 36.0964 36.2839 36.2832 36.1562 36.4746C36.0378 36.666 35.9329 36.8757 35.8418 37.1035C35.7598 37.3223 35.7188 37.5957 35.7188 37.9238V38.0605C35.7188 38.1061 35.7233 38.1517 35.7324 38.1973C35.8509 38.3249 35.9466 38.4616 36.0195 38.6074C36.1016 38.7533 36.2337 38.8581 36.416 38.9219C36.5983 38.9948 36.7897 39.0267 36.9902 39.0176C37.1999 39.0085 37.4004 39.0312 37.5918 39.0859C38.0293 39.0039 38.4486 38.8717 38.8496 38.6895C39.2598 38.498 39.6471 38.2702 40.0117 38.0059C40.0664 37.9603 40.1302 37.9147 40.2031 37.8691C40.276 37.8145 40.3353 37.7598 40.3809 37.7051C40.4264 37.6595 40.4629 37.6094 40.4902 37.5547C40.5267 37.5 40.5632 37.4499 40.5996 37.4043C40.6725 37.2858 40.7546 37.1673 40.8457 37.0488C40.9368 36.9303 41.0326 36.821 41.1328 36.7207C41.1784 36.5202 41.2376 36.3288 41.3105 36.1465C41.3835 35.9551 41.4564 35.7682 41.5293 35.5859C41.6022 35.4036 41.6615 35.2168 41.707 35.0254C41.7617 34.834 41.7891 34.6335 41.7891 34.4238C41.7891 34.3783 41.7845 34.3281 41.7754 34.2734C41.7754 34.2188 41.7708 34.1686 41.7617 34.123C41.8346 34.0228 41.8711 33.9134 41.8711 33.7949ZM52.8359 33.084C52.7812 33.166 52.7493 33.2572 52.7402 33.3574C52.7311 33.4577 52.7266 33.5488 52.7266 33.6309C52.7266 33.7402 52.7266 33.8496 52.7266 33.959C52.7357 34.0592 52.7402 34.1595 52.7402 34.2598V34.4648C52.722 34.5286 52.6947 34.5924 52.6582 34.6562C52.6217 34.7201 52.5944 34.7839 52.5762 34.8477C52.4486 35.1849 52.3848 35.5221 52.3848 35.8594V35.8867C52.3392 35.9961 52.2936 36.0964 52.248 36.1875C52.2116 36.2786 52.1751 36.3698 52.1387 36.4609C52.1022 36.543 52.0749 36.6341 52.0566 36.7344C52.0384 36.8255 52.0339 36.9349 52.043 37.0625C51.9154 37.3815 51.7467 37.6732 51.5371 37.9375C51.3275 38.1927 51.1224 38.457 50.9219 38.7305C50.7305 38.8034 50.5527 38.8991 50.3887 39.0176C50.2337 39.1361 50.0833 39.2682 49.9375 39.4141C49.6549 39.5052 49.377 39.61 49.1035 39.7285C48.8301 39.847 48.584 40.0065 48.3652 40.207C48.1921 40.2253 48.0189 40.2526 47.8457 40.2891C47.6725 40.3255 47.5039 40.3802 47.3398 40.4531H47.1758C47.0938 40.4531 47.0345 40.4349 46.998 40.3984C46.8796 40.4622 46.7565 40.5078 46.6289 40.5352C46.5013 40.5534 46.3737 40.5625 46.2461 40.5625C46.082 40.5625 45.918 40.5534 45.7539 40.5352C45.599 40.5078 45.4395 40.4805 45.2754 40.4531C45.1842 40.3255 45.0566 40.2298 44.8926 40.166C44.7285 40.0931 44.5827 40.0247 44.4551 39.9609C44.1908 39.5964 43.9993 39.2454 43.8809 38.9082C43.7624 38.5618 43.6393 38.1745 43.5117 37.7461C43.5299 37.6185 43.5618 37.4954 43.6074 37.377C43.653 37.2493 43.6712 37.1126 43.6621 36.9668C43.8262 36.4928 44.0404 36.0645 44.3047 35.6816C44.5781 35.2897 44.888 34.916 45.2344 34.5605C45.2344 34.5059 45.2435 34.4603 45.2617 34.4238C45.2891 34.3874 45.2936 34.3327 45.2754 34.2598C45.2845 34.2689 45.3027 34.2734 45.3301 34.2734C45.403 34.2734 45.4486 34.2552 45.4668 34.2188C45.485 34.1732 45.4896 34.123 45.4805 34.0684C45.8086 33.8587 46.1048 33.6172 46.3691 33.3438C46.6426 33.0703 46.9525 32.8424 47.2988 32.6602C47.3262 32.5781 47.3717 32.5098 47.4355 32.4551C47.4993 32.4004 47.5495 32.3366 47.5859 32.2637C47.8776 32.1816 48.1419 32.0586 48.3789 31.8945C48.6159 31.7305 48.8665 31.5846 49.1309 31.457C49.2767 31.375 49.4134 31.3203 49.541 31.293C49.6777 31.2565 49.8236 31.2201 49.9785 31.1836C50.0332 31.1654 50.0833 31.1517 50.1289 31.1426C50.1745 31.1335 50.2246 31.1289 50.2793 31.1289C50.4434 31.1289 50.6029 31.1608 50.7578 31.2246C50.9128 31.2793 51.0723 31.3066 51.2363 31.3066C51.2819 31.3066 51.3184 31.3066 51.3457 31.3066C51.3822 31.2975 51.4186 31.2884 51.4551 31.2793C51.61 31.4707 51.806 31.6165 52.043 31.7168C52.0977 31.8535 52.1615 31.972 52.2344 32.0723C52.3164 32.1725 52.3984 32.2728 52.4805 32.373C52.5625 32.4642 52.6354 32.569 52.6992 32.6875C52.7721 32.7969 52.8177 32.929 52.8359 33.084ZM51.4688 33.7949C51.4688 33.7493 51.4642 33.7083 51.4551 33.6719C51.3639 33.6445 51.2773 33.6081 51.1953 33.5625C51.1133 33.5169 51.0221 33.4941 50.9219 33.4941C50.8581 33.4941 50.7943 33.5078 50.7305 33.5352C50.7214 33.4714 50.694 33.4258 50.6484 33.3984C50.612 33.3711 50.5664 33.3483 50.5117 33.3301C50.4661 33.3027 50.416 33.2845 50.3613 33.2754C50.3158 33.2572 50.2747 33.2298 50.2383 33.1934C50.2109 33.1204 50.179 33.0475 50.1426 32.9746C50.1152 32.8926 50.0605 32.8333 49.9785 32.7969C49.8965 32.8789 49.8008 32.9473 49.6914 33.002C49.582 33.0475 49.4681 33.0931 49.3496 33.1387C49.2402 33.1842 49.1309 33.2389 49.0215 33.3027C48.9212 33.3665 48.8346 33.444 48.7617 33.5352H48.5156C48.4609 33.6354 48.3835 33.7129 48.2832 33.7676C48.1829 33.8132 48.0964 33.8815 48.0234 33.9727C47.8776 34.0456 47.7409 34.1367 47.6133 34.2461C47.4948 34.3464 47.3763 34.4557 47.2578 34.5742C47.1393 34.6836 47.0208 34.7975 46.9023 34.916C46.793 35.0345 46.6745 35.1439 46.5469 35.2441C46.4284 35.4993 46.2962 35.7227 46.1504 35.9141C46.0137 36.0964 45.8815 36.2832 45.7539 36.4746C45.6354 36.666 45.5306 36.8757 45.4395 37.1035C45.3574 37.3223 45.3164 37.5957 45.3164 37.9238V38.0605C45.3164 38.1061 45.321 38.1517 45.3301 38.1973C45.4486 38.3249 45.5443 38.4616 45.6172 38.6074C45.6992 38.7533 45.8314 38.8581 46.0137 38.9219C46.196 38.9948 46.3874 39.0267 46.5879 39.0176C46.7975 39.0085 46.998 39.0312 47.1895 39.0859C47.627 39.0039 48.0462 38.8717 48.4473 38.6895C48.8574 38.498 49.2448 38.2702 49.6094 38.0059C49.6641 37.9603 49.7279 37.9147 49.8008 37.8691C49.8737 37.8145 49.9329 37.7598 49.9785 37.7051C50.0241 37.6595 50.0605 37.6094 50.0879 37.5547C50.1243 37.5 50.1608 37.4499 50.1973 37.4043C50.2702 37.2858 50.3522 37.1673 50.4434 37.0488C50.5345 36.9303 50.6302 36.821 50.7305 36.7207C50.776 36.5202 50.8353 36.3288 50.9082 36.1465C50.9811 35.9551 51.054 35.7682 51.127 35.5859C51.1999 35.4036 51.2591 35.2168 51.3047 35.0254C51.3594 34.834 51.3867 34.6335 51.3867 34.4238C51.3867 34.3783 51.3822 34.3281 51.373 34.2734C51.373 34.2188 51.3685 34.1686 51.3594 34.123C51.4323 34.0228 51.4688 33.9134 51.4688 33.7949ZM64.5938 40.3027C64.5938 40.3757 64.5618 40.4349 64.498 40.4805C64.4342 40.526 64.3613 40.5716 64.2793 40.6172L64.0332 40.7402C63.9512 40.7767 63.8965 40.8268 63.8691 40.8906C63.7689 40.8633 63.6686 40.8451 63.5684 40.8359C63.4772 40.8268 63.3861 40.8223 63.2949 40.8223C63.1764 40.8223 63.0534 40.8359 62.9258 40.8633C62.7982 40.8815 62.6979 40.9408 62.625 41.041C62.5794 41.0228 62.5384 41.0137 62.502 41.0137H62.3926C62.2559 41.0137 62.1146 41.0228 61.9688 41.041C61.832 41.0684 61.6953 41.082 61.5586 41.082C61.4857 41.082 61.4128 41.0775 61.3398 41.0684C61.276 41.0592 61.2168 41.0319 61.1621 40.9863C61.0801 41.0137 60.9935 41.0273 60.9023 41.0273C60.7839 41.0273 60.6699 41.0091 60.5605 40.9727C60.4512 40.9362 60.3418 40.8952 60.2324 40.8496C60.1322 40.7949 60.0273 40.7448 59.918 40.6992C59.8086 40.6536 59.6992 40.6172 59.5898 40.5898L59.4941 40.3984C59.3483 40.3711 59.2116 40.3301 59.084 40.2754C58.9655 40.2116 58.847 40.1432 58.7285 40.0703C58.61 39.9974 58.4915 39.929 58.373 39.8652C58.2637 39.7923 58.1497 39.7422 58.0312 39.7148C57.9857 39.6784 57.9447 39.6465 57.9082 39.6191C57.8717 39.5827 57.8444 39.5326 57.8262 39.4688C57.7077 39.4414 57.5983 39.4049 57.498 39.3594L57.2109 39.209C57.1198 39.1543 57.015 39.1087 56.8965 39.0723C56.7871 39.0267 56.6549 38.9993 56.5 38.9902C56.4453 38.9082 56.3678 38.8307 56.2676 38.7578C56.1673 38.6849 56.0671 38.6484 55.9668 38.6484C55.903 38.6484 55.8529 38.6621 55.8164 38.6895V38.7578C55.8164 38.8672 55.8483 38.9766 55.9121 39.0859C55.9759 39.1953 56.0579 39.2728 56.1582 39.3184C56.1491 39.3366 56.1445 39.3639 56.1445 39.4004C56.1445 39.4551 56.1536 39.5098 56.1719 39.5645C56.1992 39.6191 56.2448 39.6556 56.3086 39.6738C56.2721 39.7741 56.2266 39.8789 56.1719 39.9883C56.1172 40.0885 56.0488 40.1842 55.9668 40.2754C55.8848 40.3665 55.7936 40.444 55.6934 40.5078C55.6022 40.5625 55.4974 40.5898 55.3789 40.5898C55.3424 40.6081 55.3151 40.6354 55.2969 40.6719C55.2878 40.7083 55.2786 40.7493 55.2695 40.7949C55.2695 40.8314 55.2604 40.8678 55.2422 40.9043C55.2331 40.9408 55.2148 40.9681 55.1875 40.9863C55.151 40.9954 55.1009 41 55.0371 41C54.946 41 54.8685 40.9863 54.8047 40.959C54.7409 40.9316 54.6725 40.8952 54.5996 40.8496V40.7949C54.5996 40.6855 54.5768 40.599 54.5312 40.5352C54.4948 40.4714 54.4492 40.4121 54.3945 40.3574C54.349 40.2936 54.3034 40.2298 54.2578 40.166C54.2214 40.1022 54.2031 40.0156 54.2031 39.9062C54.1758 39.9245 54.1439 39.9382 54.1074 39.9473C54.0801 39.9564 54.0618 39.9746 54.0527 40.002C54.0345 39.9108 54.0254 39.8333 54.0254 39.7695C54.0254 39.5872 54.0527 39.4141 54.1074 39.25C54.1712 39.0859 54.2031 38.9128 54.2031 38.7305V38.5254C54.2031 38.3158 54.1986 38.1107 54.1895 37.9102C54.1803 37.7096 54.1758 37.5091 54.1758 37.3086C54.1758 37.1354 54.1803 36.9668 54.1895 36.8027C54.1986 36.6296 54.2168 36.4564 54.2441 36.2832C54.3444 35.6816 54.4264 35.0846 54.4902 34.4922C54.5632 33.8906 54.6771 33.2936 54.832 32.7012C54.8229 32.6556 54.8092 32.61 54.791 32.5645C54.7819 32.5189 54.7773 32.4733 54.7773 32.4277C54.7773 32.3913 54.7819 32.3685 54.791 32.3594C54.8275 32.1771 54.9095 32.0267 55.0371 31.9082C55.1647 31.7806 55.3288 31.7168 55.5293 31.7168H55.5703C55.6797 31.7624 55.7617 31.8307 55.8164 31.9219C55.8802 32.0039 55.9759 32.0358 56.1035 32.0176C56.1035 32.0358 56.099 32.054 56.0898 32.0723C56.0898 32.0905 56.0898 32.1087 56.0898 32.127C56.0898 32.2272 56.1172 32.3001 56.1719 32.3457C56.2266 32.3913 56.2904 32.4414 56.3633 32.4961C56.3177 32.5872 56.2858 32.6921 56.2676 32.8105C56.2585 32.929 56.2493 33.0475 56.2402 33.166C56.2311 33.2845 56.2129 33.3984 56.1855 33.5078C56.1673 33.6172 56.1263 33.7083 56.0625 33.7812C56.099 33.8724 56.1217 33.9635 56.1309 34.0547C56.14 34.1458 56.1445 34.2415 56.1445 34.3418C56.1445 34.4421 56.14 34.5469 56.1309 34.6562C56.1217 34.7565 56.1172 34.8613 56.1172 34.9707C56.1172 35.071 56.1309 35.1621 56.1582 35.2441C56.3587 35.2441 56.4727 35.1484 56.5 34.957C56.737 34.8932 56.9466 34.8066 57.1289 34.6973C57.3203 34.5788 57.5026 34.4557 57.6758 34.3281C57.849 34.2005 58.0176 34.0684 58.1816 33.9316C58.3548 33.7949 58.5462 33.6764 58.7559 33.5762V33.5488C58.7559 33.5033 58.7695 33.4759 58.7969 33.4668C58.8242 33.4486 58.8288 33.4076 58.8105 33.3438C58.9473 33.2982 59.0612 33.2389 59.1523 33.166C59.2526 33.084 59.3438 32.9974 59.4258 32.9062L59.6855 32.6191C59.7767 32.5189 59.877 32.4323 59.9863 32.3594C60.0592 32.2044 60.123 32.0404 60.1777 31.8672C60.2415 31.694 60.3236 31.5345 60.4238 31.3887C60.597 31.3887 60.7839 31.4023 60.9844 31.4297C61.194 31.457 61.3717 31.5208 61.5176 31.6211C61.4993 31.694 61.5312 31.7441 61.6133 31.7715C61.513 32.1543 61.3626 32.5007 61.1621 32.8105C60.9616 33.1113 60.7018 33.3665 60.3828 33.5762C60.3372 33.6764 60.278 33.763 60.2051 33.8359C60.1322 33.9089 60.0592 33.9818 59.9863 34.0547C59.9134 34.1185 59.8405 34.1868 59.7676 34.2598C59.6947 34.3327 59.6354 34.4193 59.5898 34.5195C59.4805 34.5378 59.3848 34.5697 59.3027 34.6152C59.2298 34.6608 59.1569 34.7155 59.084 34.7793C59.0202 34.834 58.9473 34.8887 58.8652 34.9434C58.7923 34.9889 58.7103 35.0254 58.6191 35.0527C58.5462 35.1439 58.4596 35.2214 58.3594 35.2852C58.2682 35.349 58.1725 35.4128 58.0723 35.4766C57.9811 35.5312 57.8945 35.5951 57.8125 35.668C57.7305 35.7318 57.6712 35.8184 57.6348 35.9277H57.2793C57.179 36.1009 57.0469 36.2467 56.8828 36.3652C56.7279 36.4746 56.5684 36.5794 56.4043 36.6797C56.4316 36.7891 56.4818 36.8802 56.5547 36.9531C56.6276 37.0169 56.7051 37.0762 56.7871 37.1309C56.8783 37.1855 56.9648 37.2448 57.0469 37.3086C57.138 37.3633 57.2155 37.4316 57.2793 37.5137C57.6621 37.6595 58.0312 37.8281 58.3867 38.0195C58.7422 38.2018 59.0794 38.4251 59.3984 38.6895C59.4167 38.6803 59.4395 38.6758 59.4668 38.6758C59.5397 38.6758 59.599 38.6986 59.6445 38.7441C59.6901 38.7806 59.7539 38.7943 59.8359 38.7852C59.8724 38.8763 59.9225 38.9401 59.9863 38.9766C60.0501 39.0039 60.1139 39.0267 60.1777 39.0449C60.2507 39.0632 60.319 39.0905 60.3828 39.127C60.4466 39.1634 60.4922 39.2272 60.5195 39.3184C60.6562 39.3275 60.7793 39.3548 60.8887 39.4004C61.0072 39.446 61.112 39.5189 61.2031 39.6191H61.3672C61.6589 39.6191 61.9414 39.6465 62.2148 39.7012C62.4883 39.7559 62.7663 39.7832 63.0488 39.7832C63.1947 39.7832 63.3359 39.7741 63.4727 39.7559C63.6094 39.7285 63.7415 39.6829 63.8691 39.6191C63.9147 39.6465 63.9648 39.6738 64.0195 39.7012C64.0742 39.7285 64.1335 39.7422 64.1973 39.7422C64.2428 39.7422 64.3112 39.7331 64.4023 39.7148C64.4115 39.8151 64.4434 39.9108 64.498 40.002C64.5618 40.0931 64.5938 40.1934 64.5938 40.3027ZM80.0156 38.6211C79.9974 38.7578 79.9473 38.8626 79.8652 38.9355C79.7923 39.0085 79.7057 39.0768 79.6055 39.1406C79.5599 39.1315 79.5143 39.127 79.4688 39.127C79.4323 39.1178 79.3913 39.1133 79.3457 39.1133C79.0632 39.1042 78.7943 39.1406 78.5391 39.2227C78.293 39.3047 78.0378 39.3639 77.7734 39.4004C77.6823 39.4186 77.5957 39.4277 77.5137 39.4277C77.4408 39.4186 77.3633 39.4232 77.2812 39.4414C76.9896 39.487 76.6797 39.5234 76.3516 39.5508C76.0234 39.5781 75.6953 39.6146 75.3672 39.6602C75.0391 39.6966 74.7155 39.7467 74.3965 39.8105C74.0866 39.8652 73.7949 39.9473 73.5215 40.0566C73.4941 40.0384 73.4668 40.0202 73.4395 40.002C73.4121 39.9746 73.3802 39.9609 73.3438 39.9609C73.2526 39.9609 73.166 39.9746 73.084 40.002C73.002 40.0293 72.9199 40.0384 72.8379 40.0293C72.7467 40.084 72.6465 40.125 72.5371 40.1523C72.4368 40.1706 72.332 40.1888 72.2227 40.207C72.1224 40.2161 72.0221 40.2344 71.9219 40.2617C71.8216 40.2891 71.7259 40.3392 71.6348 40.4121C71.5618 40.3757 71.4707 40.3574 71.3613 40.3574C71.2611 40.3483 71.1927 40.3118 71.1562 40.248C70.9466 40.3483 70.7233 40.4121 70.4863 40.4395C70.2585 40.4668 70.026 40.4759 69.7891 40.4668C69.6341 40.4577 69.4564 40.4349 69.2559 40.3984C69.0553 40.362 68.8548 40.3118 68.6543 40.248C68.4538 40.1751 68.2669 40.0931 68.0938 40.002C67.9206 39.9017 67.7884 39.7832 67.6973 39.6465C67.6335 39.5553 67.5879 39.4551 67.5605 39.3457C67.5332 39.2363 67.4694 39.1543 67.3691 39.0996C67.3965 38.89 67.4284 38.6849 67.4648 38.4844C67.5013 38.2839 67.5378 38.0788 67.5742 37.8691C67.7565 37.7142 67.9297 37.5501 68.0938 37.377C68.2578 37.2038 68.4128 37.0215 68.5586 36.8301C68.7318 36.748 68.8913 36.6478 69.0371 36.5293C69.1921 36.4108 69.3424 36.2923 69.4883 36.1738C69.6432 36.0462 69.7936 35.9232 69.9395 35.8047C70.0944 35.6862 70.2585 35.5814 70.4316 35.4902C70.459 35.4264 70.4954 35.3763 70.541 35.3398C70.5957 35.2943 70.6504 35.2533 70.7051 35.2168C70.7598 35.1712 70.8099 35.1257 70.8555 35.0801C70.901 35.0254 70.9329 34.9616 70.9512 34.8887C71.2702 34.6973 71.5482 34.4557 71.7852 34.1641C72.0221 33.8724 72.1771 33.5443 72.25 33.1797C72.0951 33.0521 71.9173 32.9701 71.7168 32.9336C71.5254 32.888 71.3249 32.8561 71.1152 32.8379C70.9329 32.8288 70.7415 32.8288 70.541 32.8379C70.3496 32.847 70.1536 32.8424 69.9531 32.8242C69.7526 32.888 69.543 32.929 69.3242 32.9473C69.1146 32.9655 68.9049 32.9837 68.6953 33.002C68.4857 33.0111 68.276 33.0384 68.0664 33.084C67.8659 33.1204 67.6699 33.1934 67.4785 33.3027C67.4421 33.3027 67.4056 33.2982 67.3691 33.2891C67.3418 33.2799 67.3099 33.2754 67.2734 33.2754C66.9818 33.2663 66.7083 33.3255 66.4531 33.4531C66.1979 33.5716 65.9473 33.6901 65.7012 33.8086C65.6829 33.8451 65.6738 33.8724 65.6738 33.8906C65.6738 33.9453 65.6829 34 65.7012 34.0547C65.7285 34.1003 65.7422 34.1504 65.7422 34.2051C65.7331 34.2142 65.7285 34.2233 65.7285 34.2324C65.7285 34.2415 65.724 34.2507 65.7148 34.2598C65.7057 34.3053 65.6921 34.3464 65.6738 34.3828C65.6647 34.4193 65.651 34.4603 65.6328 34.5059C65.5326 34.7975 65.4779 35.0846 65.4688 35.3672C65.4596 35.6042 65.4596 35.8366 65.4688 36.0645C65.4779 36.2923 65.4779 36.5247 65.4688 36.7617C65.4505 37.0534 65.4049 37.3268 65.332 37.582C65.3776 37.8008 65.4186 38.0332 65.4551 38.2793C65.4915 38.5163 65.5371 38.7533 65.5918 38.9902C65.6465 39.2272 65.7103 39.4596 65.7832 39.6875C65.8652 39.9062 65.9701 40.1159 66.0977 40.3164C66.0885 40.3346 66.0931 40.3483 66.1113 40.3574C66.1296 40.3665 66.1478 40.3711 66.166 40.3711H66.2754C66.321 40.3711 66.3392 40.3893 66.3301 40.4258C66.3483 40.4531 66.362 40.4805 66.3711 40.5078C66.3802 40.526 66.3984 40.5443 66.4258 40.5625C66.444 40.5898 66.444 40.6263 66.4258 40.6719C66.4167 40.8542 66.3711 41.0228 66.2891 41.1777C66.207 41.3327 66.1569 41.5013 66.1387 41.6836C66.0293 41.7109 65.929 41.7246 65.8379 41.7246C65.6829 41.7155 65.5462 41.6699 65.4277 41.5879C65.3092 41.515 65.1999 41.4238 65.0996 41.3145C64.9993 41.2051 64.9036 41.0957 64.8125 40.9863C64.7214 40.8678 64.6211 40.7676 64.5117 40.6855C64.4479 40.4303 64.3841 40.1478 64.3203 39.8379C64.2656 39.528 64.1699 39.2637 64.0332 39.0449C64.0697 38.9629 64.0879 38.8626 64.0879 38.7441C64.097 38.5618 64.0788 38.3841 64.0332 38.2109C63.9967 38.0286 63.9876 37.8464 64.0059 37.6641C64.0059 37.5638 64.015 37.4635 64.0332 37.3633C64.0605 37.263 64.0788 37.1628 64.0879 37.0625C64.097 36.9076 64.0788 36.7572 64.0332 36.6113C63.9967 36.4655 63.9831 36.3151 63.9922 36.1602C64.0013 36.0872 64.015 36.0189 64.0332 35.9551C64.0605 35.8822 64.097 35.8184 64.1426 35.7637C64.097 35.6543 64.0833 35.5495 64.1016 35.4492C64.1107 35.2943 64.1289 35.1484 64.1562 35.0117C64.1836 34.875 64.2018 34.7383 64.2109 34.6016C64.2109 34.5286 64.2064 34.4603 64.1973 34.3965C64.1882 34.3236 64.1745 34.2552 64.1562 34.1914L64.0332 34.1504C63.9785 34.1504 63.9238 34.1641 63.8691 34.1914C63.8236 34.2188 63.7826 34.2507 63.7461 34.2871C63.7096 34.3236 63.6777 34.3555 63.6504 34.3828C63.623 34.401 63.5957 34.4102 63.5684 34.4102C63.5501 34.4102 63.5273 34.4102 63.5 34.4102C63.4818 34.401 63.4635 34.3965 63.4453 34.3965C63.4271 34.3965 63.3906 34.4147 63.3359 34.4512C63.2904 34.4876 63.2311 34.5286 63.1582 34.5742C63.0944 34.6107 63.0306 34.6517 62.9668 34.6973C62.903 34.7337 62.8529 34.7565 62.8164 34.7656C62.7161 34.7474 62.6341 34.7155 62.5703 34.6699C62.5156 34.6152 62.4609 34.5651 62.4062 34.5195C62.3607 34.4648 62.3105 34.4193 62.2559 34.3828C62.2012 34.3372 62.1328 34.319 62.0508 34.3281C62.0234 34.2734 62.0098 34.2142 62.0098 34.1504C62.0007 34.0866 62.0007 34.0228 62.0098 33.959V33.7402C62.0736 33.6217 62.1602 33.526 62.2695 33.4531C62.3698 33.3711 62.4792 33.3027 62.5977 33.248L62.9531 33.084C63.0716 33.0293 63.181 32.9609 63.2812 32.8789H63.4043C63.5684 32.888 63.7096 32.8561 63.8281 32.7832C63.9557 32.7103 64.0742 32.6283 64.1836 32.5371C64.293 32.4368 64.4023 32.3366 64.5117 32.2363C64.6302 32.1361 64.7578 32.0586 64.8945 32.0039C64.9948 32.0495 65.0996 32.0905 65.209 32.127C65.3184 32.1543 65.4323 32.1725 65.5508 32.1816C65.6693 32.1816 65.7923 32.1634 65.9199 32.127C66.0475 32.0905 66.1478 32.0221 66.2207 31.9219C66.2663 31.9401 66.3027 31.9538 66.3301 31.9629C66.3665 31.9629 66.4076 31.9629 66.4531 31.9629C66.5898 31.972 66.7266 31.9538 66.8633 31.9082C67 31.8535 67.1322 31.7897 67.2598 31.7168C67.4421 31.7259 67.6198 31.7168 67.793 31.6895C67.9753 31.653 68.153 31.6165 68.3262 31.5801C68.5085 31.5436 68.6862 31.5117 68.8594 31.4844C69.0417 31.4479 69.224 31.4342 69.4062 31.4434C69.707 31.4525 70.0033 31.4251 70.2949 31.3613C70.5866 31.2975 70.8828 31.2747 71.1836 31.293C71.3932 31.3021 71.5983 31.3203 71.7988 31.3477C72.0085 31.3659 72.2181 31.3704 72.4277 31.3613C72.5462 31.416 72.651 31.4661 72.7422 31.5117C72.8424 31.5482 72.9655 31.5573 73.1113 31.5391C73.403 31.7852 73.6673 32.0723 73.9043 32.4004V32.6328C73.8952 32.8424 73.8587 33.0475 73.7949 33.248C73.7311 33.4486 73.6536 33.6491 73.5625 33.8496C73.4805 34.041 73.3893 34.2324 73.2891 34.4238C73.1888 34.6061 73.0931 34.7884 73.002 34.9707C72.4095 35.5085 71.8171 36.0417 71.2246 36.5703C70.6322 37.099 70.0215 37.6094 69.3926 38.1016C69.3743 38.1927 69.347 38.2747 69.3105 38.3477C69.2832 38.4206 69.265 38.498 69.2559 38.5801C69.2559 38.6257 69.2604 38.6621 69.2695 38.6895C69.3333 38.7077 69.388 38.7441 69.4336 38.7988C69.4883 38.8444 69.5065 38.9082 69.4883 38.9902H69.6113C69.6569 38.9902 69.6797 39.0085 69.6797 39.0449L69.8984 39.0586C70.2448 39.0768 70.5911 39.0677 70.9375 39.0312C71.2839 38.9948 71.6302 38.9538 71.9766 38.9082C72.332 38.8626 72.6829 38.8216 73.0293 38.7852C73.3757 38.7396 73.722 38.7122 74.0684 38.7031C74.1504 38.6758 74.237 38.653 74.3281 38.6348C74.4193 38.6165 74.5013 38.5801 74.5742 38.5254H74.6152C74.679 38.5254 74.7246 38.5436 74.752 38.5801C74.7884 38.6165 74.8385 38.6393 74.9023 38.6484C74.9479 38.6484 74.9935 38.6393 75.0391 38.6211C75.0938 38.6029 75.1484 38.5892 75.2031 38.5801C75.3307 38.5436 75.4629 38.5208 75.5996 38.5117C75.7454 38.5026 75.8867 38.4889 76.0234 38.4707C76.5521 38.4251 77.0762 38.3978 77.5957 38.3887C78.1152 38.3704 78.6348 38.3021 79.1543 38.1836C79.1999 38.2474 79.2637 38.293 79.3457 38.3203C79.4277 38.3385 79.5143 38.3613 79.6055 38.3887C79.6966 38.4069 79.7786 38.4297 79.8516 38.457C79.9336 38.4844 79.9883 38.5391 80.0156 38.6211ZM84.7871 33.084C84.7324 33.166 84.7005 33.2572 84.6914 33.3574C84.6823 33.4577 84.6777 33.5488 84.6777 33.6309C84.6777 33.7402 84.6777 33.8496 84.6777 33.959C84.6868 34.0592 84.6914 34.1595 84.6914 34.2598V34.4648C84.6732 34.5286 84.6458 34.5924 84.6094 34.6562C84.5729 34.7201 84.5456 34.7839 84.5273 34.8477C84.3997 35.1849 84.3359 35.5221 84.3359 35.8594V35.8867C84.2904 35.9961 84.2448 36.0964 84.1992 36.1875C84.1628 36.2786 84.1263 36.3698 84.0898 36.4609C84.0534 36.543 84.026 36.6341 84.0078 36.7344C83.9896 36.8255 83.985 36.9349 83.9941 37.0625C83.8665 37.3815 83.6979 37.6732 83.4883 37.9375C83.2786 38.1927 83.0736 38.457 82.873 38.7305C82.6816 38.8034 82.5039 38.8991 82.3398 39.0176C82.1849 39.1361 82.0345 39.2682 81.8887 39.4141C81.6061 39.5052 81.3281 39.61 81.0547 39.7285C80.7812 39.847 80.5352 40.0065 80.3164 40.207C80.1432 40.2253 79.9701 40.2526 79.7969 40.2891C79.6237 40.3255 79.4551 40.3802 79.291 40.4531H79.127C79.0449 40.4531 78.9857 40.4349 78.9492 40.3984C78.8307 40.4622 78.7077 40.5078 78.5801 40.5352C78.4525 40.5534 78.3249 40.5625 78.1973 40.5625C78.0332 40.5625 77.8691 40.5534 77.7051 40.5352C77.5501 40.5078 77.3906 40.4805 77.2266 40.4531C77.1354 40.3255 77.0078 40.2298 76.8438 40.166C76.6797 40.0931 76.5339 40.0247 76.4062 39.9609C76.1419 39.5964 75.9505 39.2454 75.832 38.9082C75.7135 38.5618 75.5905 38.1745 75.4629 37.7461C75.4811 37.6185 75.513 37.4954 75.5586 37.377C75.6042 37.2493 75.6224 37.1126 75.6133 36.9668C75.7773 36.4928 75.9915 36.0645 76.2559 35.6816C76.5293 35.2897 76.8392 34.916 77.1855 34.5605C77.1855 34.5059 77.1947 34.4603 77.2129 34.4238C77.2402 34.3874 77.2448 34.3327 77.2266 34.2598C77.2357 34.2689 77.2539 34.2734 77.2812 34.2734C77.3542 34.2734 77.3997 34.2552 77.418 34.2188C77.4362 34.1732 77.4408 34.123 77.4316 34.0684C77.7598 33.8587 78.056 33.6172 78.3203 33.3438C78.5938 33.0703 78.9036 32.8424 79.25 32.6602C79.2773 32.5781 79.3229 32.5098 79.3867 32.4551C79.4505 32.4004 79.5007 32.3366 79.5371 32.2637C79.8288 32.1816 80.0931 32.0586 80.3301 31.8945C80.5671 31.7305 80.8177 31.5846 81.082 31.457C81.2279 31.375 81.3646 31.3203 81.4922 31.293C81.6289 31.2565 81.7747 31.2201 81.9297 31.1836C81.9844 31.1654 82.0345 31.1517 82.0801 31.1426C82.1257 31.1335 82.1758 31.1289 82.2305 31.1289C82.3945 31.1289 82.554 31.1608 82.709 31.2246C82.8639 31.2793 83.0234 31.3066 83.1875 31.3066C83.2331 31.3066 83.2695 31.3066 83.2969 31.3066C83.3333 31.2975 83.3698 31.2884 83.4062 31.2793C83.5612 31.4707 83.7572 31.6165 83.9941 31.7168C84.0488 31.8535 84.1126 31.972 84.1855 32.0723C84.2676 32.1725 84.3496 32.2728 84.4316 32.373C84.5137 32.4642 84.5866 32.569 84.6504 32.6875C84.7233 32.7969 84.7689 32.929 84.7871 33.084ZM83.4199 33.7949C83.4199 33.7493 83.4154 33.7083 83.4062 33.6719C83.3151 33.6445 83.2285 33.6081 83.1465 33.5625C83.0645 33.5169 82.9733 33.4941 82.873 33.4941C82.8092 33.4941 82.7454 33.5078 82.6816 33.5352C82.6725 33.4714 82.6452 33.4258 82.5996 33.3984C82.5632 33.3711 82.5176 33.3483 82.4629 33.3301C82.4173 33.3027 82.3672 33.2845 82.3125 33.2754C82.2669 33.2572 82.2259 33.2298 82.1895 33.1934C82.1621 33.1204 82.1302 33.0475 82.0938 32.9746C82.0664 32.8926 82.0117 32.8333 81.9297 32.7969C81.8477 32.8789 81.752 32.9473 81.6426 33.002C81.5332 33.0475 81.4193 33.0931 81.3008 33.1387C81.1914 33.1842 81.082 33.2389 80.9727 33.3027C80.8724 33.3665 80.7858 33.444 80.7129 33.5352H80.4668C80.4121 33.6354 80.3346 33.7129 80.2344 33.7676C80.1341 33.8132 80.0475 33.8815 79.9746 33.9727C79.8288 34.0456 79.6921 34.1367 79.5645 34.2461C79.446 34.3464 79.3275 34.4557 79.209 34.5742C79.0905 34.6836 78.972 34.7975 78.8535 34.916C78.7441 35.0345 78.6257 35.1439 78.498 35.2441C78.3796 35.4993 78.2474 35.7227 78.1016 35.9141C77.9648 36.0964 77.8327 36.2832 77.7051 36.4746C77.5866 36.666 77.4818 36.8757 77.3906 37.1035C77.3086 37.3223 77.2676 37.5957 77.2676 37.9238V38.0605C77.2676 38.1061 77.2721 38.1517 77.2812 38.1973C77.3997 38.3249 77.4954 38.4616 77.5684 38.6074C77.6504 38.7533 77.7826 38.8581 77.9648 38.9219C78.1471 38.9948 78.3385 39.0267 78.5391 39.0176C78.7487 39.0085 78.9492 39.0312 79.1406 39.0859C79.5781 39.0039 79.9974 38.8717 80.3984 38.6895C80.8086 38.498 81.196 38.2702 81.5605 38.0059C81.6152 37.9603 81.679 37.9147 81.752 37.8691C81.8249 37.8145 81.8841 37.7598 81.9297 37.7051C81.9753 37.6595 82.0117 37.6094 82.0391 37.5547C82.0755 37.5 82.112 37.4499 82.1484 37.4043C82.2214 37.2858 82.3034 37.1673 82.3945 37.0488C82.4857 36.9303 82.5814 36.821 82.6816 36.7207C82.7272 36.5202 82.7865 36.3288 82.8594 36.1465C82.9323 35.9551 83.0052 35.7682 83.0781 35.5859C83.151 35.4036 83.2103 35.2168 83.2559 35.0254C83.3105 34.834 83.3379 34.6335 83.3379 34.4238C83.3379 34.3783 83.3333 34.3281 83.3242 34.2734C83.3242 34.2188 83.3197 34.1686 83.3105 34.123C83.3835 34.0228 83.4199 33.9134 83.4199 33.7949ZM94.918 34.2598C94.918 34.3509 94.8861 34.4102 94.8223 34.4375C94.7585 34.4648 94.7266 34.5195 94.7266 34.6016C94.7266 34.6289 94.7357 34.6517 94.7539 34.6699C94.7721 34.6882 94.7812 34.7155 94.7812 34.752V34.8066C94.6719 35.3353 94.5124 35.7956 94.3027 36.1875C94.1022 36.5794 93.8652 36.9395 93.5918 37.2676C93.3184 37.5957 93.0085 37.9056 92.6621 38.1973C92.3249 38.4889 91.9603 38.7943 91.5684 39.1133C91.459 39.2044 91.3451 39.2956 91.2266 39.3867C91.1172 39.4779 91.0124 39.5736 90.9121 39.6738L90.6113 39.9609C90.6022 39.9701 90.5521 39.9928 90.4609 40.0293C90.3698 40.0566 90.3151 40.0749 90.2969 40.084C90.1693 40.1387 90.0326 40.2025 89.8867 40.2754C89.75 40.3483 89.6315 40.4395 89.5312 40.5488C89.349 40.5488 89.194 40.5762 89.0664 40.6309C88.9388 40.6855 88.7975 40.7585 88.6426 40.8496C88.597 40.8496 88.556 40.8405 88.5195 40.8223C88.4922 40.804 88.4603 40.7858 88.4238 40.7676C88.3874 40.7493 88.3464 40.7402 88.3008 40.7402C88.2643 40.7311 88.2142 40.7357 88.1504 40.7539C88.041 40.5716 87.9225 40.4167 87.7949 40.2891C87.6673 40.1615 87.4941 40.084 87.2754 40.0566C87.248 39.9017 87.1842 39.7832 87.084 39.7012C86.9837 39.61 86.8835 39.5143 86.7832 39.4141C86.765 39.3594 86.7513 39.2956 86.7422 39.2227C86.7331 39.1497 86.7148 39.0814 86.6875 39.0176C86.6602 38.9538 86.6237 38.8991 86.5781 38.8535C86.5326 38.8079 86.4688 38.7852 86.3867 38.7852C86.3776 38.7305 86.4004 38.7031 86.4551 38.7031C86.5098 38.7031 86.5371 38.6803 86.5371 38.6348C86.5371 38.5801 86.528 38.5254 86.5098 38.4707C86.4915 38.416 86.4824 38.3568 86.4824 38.293C86.4824 38.2474 86.487 38.2064 86.4961 38.1699C86.5052 38.1335 86.5189 38.0924 86.5371 38.0469C86.5098 37.8008 86.4961 37.5501 86.4961 37.2949C86.4961 36.8027 86.528 36.3197 86.5918 35.8457C86.6647 35.3626 86.7012 34.875 86.7012 34.3828C86.7012 34.1641 86.6875 33.9453 86.6602 33.7266C86.6419 33.5078 86.6009 33.2936 86.5371 33.084C86.3275 33.1296 86.1178 33.1842 85.9082 33.248C85.6986 33.3027 85.5026 33.3802 85.3203 33.4805C85.2201 33.4167 85.1152 33.3802 85.0059 33.3711C84.8874 33.3529 84.7734 33.3255 84.6641 33.2891C84.6003 33.1615 84.5684 33.0293 84.5684 32.8926C84.5684 32.765 84.5911 32.6419 84.6367 32.5234L84.7734 32.168C84.9922 32.1224 85.2109 32.054 85.4297 31.9629C85.6393 31.8717 85.8535 31.7897 86.0723 31.7168C86.1452 31.6986 86.2363 31.6758 86.3457 31.6484C86.4642 31.6211 86.5462 31.5983 86.5918 31.5801C86.6556 31.5527 86.6966 31.5026 86.7148 31.4297C86.7422 31.3477 86.7786 31.2793 86.8242 31.2246H87.0566C87.1113 31.2246 87.1706 31.2292 87.2344 31.2383C87.2982 31.2383 87.3574 31.252 87.4121 31.2793C87.7402 31.1973 88.0684 31.1471 88.3965 31.1289C88.7246 31.1016 89.0618 31.0651 89.4082 31.0195C89.4447 31.0195 89.4993 31.015 89.5723 31.0059L89.8047 30.9648C89.8867 30.9466 89.9596 30.9329 90.0234 30.9238C90.0964 30.9056 90.1465 30.8965 90.1738 30.8965C90.2012 30.8965 90.2148 30.9102 90.2148 30.9375H90.4473C90.8392 30.9375 91.222 30.9876 91.5957 31.0879L92.7168 31.3887C92.8717 31.5163 93.0267 31.6393 93.1816 31.7578C93.3366 31.8763 93.5098 31.9811 93.7012 32.0723C93.7467 32.2181 93.8151 32.3366 93.9062 32.4277C94.0065 32.5098 94.1159 32.6009 94.2344 32.7012C94.2799 32.8197 94.3392 32.9473 94.4121 33.084C94.4941 33.2116 94.5716 33.3438 94.6445 33.4805C94.7174 33.6172 94.7812 33.7539 94.8359 33.8906C94.8906 34.0182 94.918 34.1413 94.918 34.2598ZM93.6465 34.4648C93.5462 34.2552 93.4505 34.0365 93.3594 33.8086C93.2682 33.5807 93.1543 33.3757 93.0176 33.1934C92.8535 33.1478 92.6849 33.0931 92.5117 33.0293C92.3477 32.9564 92.2337 32.8333 92.1699 32.6602C92.1517 32.6693 92.1198 32.6738 92.0742 32.6738C91.9922 32.6738 91.9193 32.6419 91.8555 32.5781C91.7917 32.5143 91.7188 32.4733 91.6367 32.4551C91.5638 32.446 91.4635 32.4323 91.3359 32.4141C91.2174 32.3958 91.0898 32.3822 90.9531 32.373C90.8164 32.3639 90.6797 32.3548 90.543 32.3457C90.4154 32.3366 90.3151 32.332 90.2422 32.332C90.1693 32.332 90.0918 32.3366 90.0098 32.3457C89.9368 32.3457 89.8594 32.3503 89.7773 32.3594C89.7044 32.3594 89.6589 32.373 89.6406 32.4004C89.6224 32.4186 89.5859 32.4368 89.5312 32.4551C89.4857 32.4368 89.4355 32.4277 89.3809 32.4277H89.2168C89.0254 32.4277 88.834 32.4596 88.6426 32.5234C88.4603 32.5781 88.278 32.6556 88.0957 32.7559V32.8105C88.0957 32.8835 88.1276 32.9245 88.1914 32.9336C88.2552 32.9427 88.2917 32.9792 88.3008 33.043C88.2552 33.043 88.2188 33.0475 88.1914 33.0566C88.1641 33.0566 88.1504 33.0885 88.1504 33.1523C88.1504 33.2435 88.1595 33.3438 88.1777 33.4531C88.2051 33.5625 88.2188 33.6719 88.2188 33.7812C88.2188 33.8633 88.2096 33.959 88.1914 34.0684C88.1732 34.1777 88.1276 34.2643 88.0547 34.3281C88.1458 34.4102 88.1914 34.5195 88.1914 34.6562C88.1914 34.7474 88.1732 34.8431 88.1367 34.9434C88.1003 35.0436 88.0547 35.1302 88 35.2031C87.9818 35.5859 87.9453 35.9733 87.8906 36.3652C87.8359 36.7572 87.8086 37.1445 87.8086 37.5273C87.8086 37.7188 87.8177 37.9056 87.8359 38.0879C87.8633 38.2702 87.9043 38.4525 87.959 38.6348C88.0592 38.735 88.1641 38.8125 88.2734 38.8672C88.3919 38.9219 88.515 38.9766 88.6426 39.0312V39.0723C88.6426 39.0996 88.6243 39.127 88.5879 39.1543C88.5514 39.1816 88.5332 39.2181 88.5332 39.2637C88.5332 39.3001 88.5514 39.3184 88.5879 39.3184C88.9707 39.209 89.3307 39.0768 89.668 38.9219C90.0052 38.7669 90.3197 38.5573 90.6113 38.293C90.6387 38.2656 90.666 38.252 90.6934 38.252C90.7116 38.252 90.7344 38.2565 90.7617 38.2656C90.7982 38.2747 90.8301 38.2839 90.8574 38.293L90.8438 38.2383C90.8438 38.1836 90.8574 38.1335 90.8848 38.0879C90.9212 38.0423 90.9622 38.0013 91.0078 37.9648L91.1445 37.8418C91.1901 37.7962 91.2266 37.7507 91.2539 37.7051C91.3268 37.6868 91.377 37.6504 91.4043 37.5957C91.4408 37.541 91.5 37.5137 91.582 37.5137C91.6003 37.4134 91.6504 37.3405 91.7324 37.2949C91.8145 37.2402 91.8646 37.1628 91.8828 37.0625C92.0651 36.9622 92.2246 36.8392 92.3613 36.6934C92.5072 36.5475 92.6393 36.3926 92.7578 36.2285C92.8854 36.0645 93.0039 35.8958 93.1133 35.7227C93.2227 35.5404 93.3366 35.3672 93.4551 35.2031V35.1484C93.4551 35.0026 93.4779 34.8841 93.5234 34.793C93.5781 34.7018 93.6191 34.5924 93.6465 34.4648ZM97.3379 39.2227C97.3379 39.3594 97.3105 39.4915 97.2559 39.6191C97.2103 39.7376 97.1556 39.8561 97.0918 39.9746L96.9004 40.3301C96.8366 40.4486 96.7865 40.5716 96.75 40.6992L96.6953 40.6855C96.5677 40.6855 96.4447 40.7038 96.3262 40.7402C96.2077 40.7676 96.0892 40.7995 95.9707 40.8359C95.8522 40.8724 95.7292 40.9089 95.6016 40.9453C95.4831 40.9818 95.36 41 95.2324 41C95.2142 40.8724 95.1777 40.7585 95.123 40.6582C95.0592 40.5579 94.9499 40.5078 94.7949 40.5078C94.7676 40.4349 94.7539 40.3574 94.7539 40.2754C94.7448 40.1934 94.7402 40.1159 94.7402 40.043C94.7402 39.9609 94.7357 39.8835 94.7266 39.8105C94.7083 39.7285 94.681 39.651 94.6445 39.5781C94.8086 39.4505 94.9453 39.3001 95.0547 39.127C95.1641 38.9447 95.2871 38.7806 95.4238 38.6348C95.5332 38.6621 95.6471 38.6758 95.7656 38.6758C95.9023 38.6758 96.0391 38.6621 96.1758 38.6348C96.3125 38.5983 96.4492 38.5801 96.5859 38.5801C96.7318 38.5801 96.8685 38.6165 96.9961 38.6895C97.0234 38.735 97.0417 38.7852 97.0508 38.8398C97.0599 38.8945 97.0736 38.9492 97.0918 39.0039C97.1191 39.0495 97.1465 39.0905 97.1738 39.127C97.2103 39.1634 97.265 39.1816 97.3379 39.1816V39.2227ZM109.602 33.3984C109.602 33.526 109.597 33.6536 109.588 33.7812C109.579 33.9089 109.565 34.0365 109.547 34.1641C109.483 34.2552 109.419 34.3372 109.355 34.4102C109.301 34.474 109.264 34.556 109.246 34.6562C109.146 34.7292 109.032 34.8294 108.904 34.957C108.786 35.0846 108.736 35.2122 108.754 35.3398H108.562C108.453 35.5039 108.326 35.6452 108.18 35.7637C108.034 35.8822 107.879 35.9961 107.715 36.1055L107.236 36.4199C107.081 36.5202 106.936 36.6387 106.799 36.7754C106.726 36.7845 106.667 36.7982 106.621 36.8164C106.576 36.8346 106.516 36.8392 106.443 36.8301C106.161 37.0124 105.865 37.1719 105.555 37.3086C105.254 37.4453 104.949 37.582 104.639 37.7188C104.338 37.8464 104.037 37.9831 103.736 38.1289C103.436 38.2747 103.148 38.4434 102.875 38.6348C102.848 38.6257 102.811 38.6211 102.766 38.6211C102.684 38.6211 102.602 38.6348 102.52 38.6621C102.438 38.6803 102.355 38.6895 102.273 38.6895C102.237 38.6895 102.187 38.6849 102.123 38.6758C102.068 38.6667 102.027 38.653 102 38.6348C101.954 38.6074 101.913 38.5664 101.877 38.5117C101.84 38.457 101.813 38.3978 101.795 38.334C101.777 38.2611 101.763 38.1927 101.754 38.1289C101.745 38.0651 101.74 38.0104 101.74 37.9648C101.74 37.9102 101.745 37.8509 101.754 37.7871C101.763 37.7233 101.777 37.6641 101.795 37.6094C102.059 37.5911 102.324 37.5228 102.588 37.4043C102.861 37.2858 103.121 37.1719 103.367 37.0625C103.431 37.0352 103.481 37.0033 103.518 36.9668C103.563 36.9212 103.609 36.8848 103.654 36.8574C103.7 36.821 103.75 36.7891 103.805 36.7617C103.859 36.7344 103.928 36.7207 104.01 36.7207H104.051C104.625 36.4564 105.186 36.1693 105.732 35.8594C106.288 35.5495 106.84 35.235 107.387 34.916C107.414 34.834 107.455 34.752 107.51 34.6699C107.574 34.5879 107.633 34.5104 107.688 34.4375C107.742 34.3555 107.792 34.2734 107.838 34.1914C107.883 34.1094 107.906 34.0273 107.906 33.9453C107.906 33.7812 107.829 33.6445 107.674 33.5352H107.619C107.51 33.5352 107.414 33.5215 107.332 33.4941C107.25 33.4577 107.173 33.4258 107.1 33.3984C107.027 33.362 106.945 33.3346 106.854 33.3164C106.762 33.2891 106.658 33.2799 106.539 33.2891C106.493 33.2526 106.421 33.2207 106.32 33.1934C106.22 33.166 106.138 33.1523 106.074 33.1523C105.746 33.1523 105.423 33.1751 105.104 33.2207C104.785 33.2572 104.465 33.2799 104.146 33.2891C104.064 33.3346 103.987 33.3757 103.914 33.4121C103.841 33.4486 103.755 33.4668 103.654 33.4668C103.609 33.4668 103.568 33.4668 103.531 33.4668C103.495 33.4577 103.454 33.4486 103.408 33.4395C103.235 33.5124 103.039 33.5762 102.82 33.6309C102.602 33.6764 102.383 33.7357 102.164 33.8086C101.954 33.8724 101.758 33.9544 101.576 34.0547C101.394 34.1549 101.253 34.2917 101.152 34.4648C101.152 34.5104 101.161 34.5514 101.18 34.5879C101.198 34.6152 101.207 34.6517 101.207 34.6973V34.752C101.152 34.8066 101.116 34.8704 101.098 34.9434C101.079 35.0072 101.066 35.0755 101.057 35.1484C101.048 35.2122 101.034 35.2806 101.016 35.3535C101.007 35.4173 100.975 35.4811 100.92 35.5449C100.956 35.6816 100.975 35.832 100.975 35.9961C100.975 36.1784 100.961 36.3607 100.934 36.543C100.915 36.7253 100.906 36.9076 100.906 37.0898C100.906 37.263 100.924 37.418 100.961 37.5547C100.906 37.6094 100.883 37.6914 100.893 37.8008C100.902 37.9102 100.879 37.9922 100.824 38.0469C100.824 38.1198 100.842 38.1699 100.879 38.1973C100.924 38.2246 100.952 38.2702 100.961 38.334C100.924 38.4889 100.906 38.6576 100.906 38.8398C100.906 39.1042 100.934 39.373 100.988 39.6465C101.052 39.9199 101.125 40.1888 101.207 40.4531C101.353 40.4076 101.508 40.3711 101.672 40.3438C101.845 40.3073 102.009 40.2891 102.164 40.2891C102.191 40.2891 102.219 40.2936 102.246 40.3027C102.273 40.3027 102.301 40.3027 102.328 40.3027C102.346 40.403 102.383 40.4941 102.438 40.5762C102.492 40.6582 102.542 40.7493 102.588 40.8496C102.542 40.9134 102.501 40.9635 102.465 41C102.438 41.0456 102.424 41.1048 102.424 41.1777C102.296 41.1868 102.191 41.2188 102.109 41.2734C102.027 41.3372 101.936 41.4056 101.836 41.4785H101.781C101.626 41.4785 101.499 41.5059 101.398 41.5605C101.298 41.6243 101.184 41.6927 101.057 41.7656C100.947 41.7201 100.838 41.6973 100.729 41.6973C100.61 41.6973 100.492 41.7201 100.373 41.7656C100.227 41.7018 100.109 41.6016 100.018 41.4648C99.9264 41.3372 99.849 41.1914 99.7852 41.0273C99.7214 40.8724 99.6621 40.7129 99.6074 40.5488C99.5618 40.3848 99.5072 40.2344 99.4434 40.0977V39.8789C99.4434 39.6693 99.4251 39.4688 99.3887 39.2773C99.3613 39.0768 99.3477 38.8717 99.3477 38.6621C99.3477 38.5801 99.3522 38.4935 99.3613 38.4023C99.3796 38.3112 99.4069 38.2246 99.4434 38.1426C99.4251 38.0605 99.416 37.9831 99.416 37.9102V37.6504C99.416 37.377 99.4251 37.1035 99.4434 36.8301C99.4707 36.5566 99.4844 36.2832 99.4844 36.0098C99.4844 35.8092 99.4707 35.6042 99.4434 35.3945C99.3978 35.4128 99.3568 35.431 99.3203 35.4492C99.2839 35.4674 99.2428 35.4766 99.1973 35.4766C99.1517 35.4766 99.1061 35.472 99.0605 35.4629C99.0241 35.4538 98.9876 35.4447 98.9512 35.4355C98.86 35.3535 98.7962 35.2533 98.7598 35.1348C98.7233 35.0163 98.6732 34.9069 98.6094 34.8066C98.6094 34.6335 98.6367 34.4922 98.6914 34.3828C98.737 34.2643 98.7962 34.1595 98.8691 34.0684C98.9421 33.9681 99.015 33.8724 99.0879 33.7812C99.1699 33.6901 99.2383 33.5762 99.293 33.4395H99.3477C99.4935 33.4395 99.6393 33.3939 99.7852 33.3027C99.931 33.2025 100.095 33.1523 100.277 33.1523C100.341 33.0703 100.428 33.002 100.537 32.9473C100.646 32.8835 100.76 32.8333 100.879 32.7969C101.007 32.7604 101.13 32.7376 101.248 32.7285C101.376 32.7103 101.494 32.7012 101.604 32.7012C101.64 32.6374 101.695 32.5964 101.768 32.5781C101.84 32.5508 101.913 32.528 101.986 32.5098C102.068 32.4824 102.141 32.4596 102.205 32.4414C102.278 32.4141 102.337 32.3685 102.383 32.3047C102.456 32.3229 102.524 32.332 102.588 32.332C102.706 32.332 102.82 32.3184 102.93 32.291C103.039 32.2546 103.148 32.2181 103.258 32.1816C103.367 32.1361 103.477 32.0951 103.586 32.0586C103.704 32.0221 103.827 32.0039 103.955 32.0039C104.001 32.0039 104.046 32.0085 104.092 32.0176C104.137 32.0176 104.183 32.0176 104.229 32.0176C104.301 32.0176 104.342 31.9902 104.352 31.9355C104.37 31.8809 104.402 31.8398 104.447 31.8125C104.475 31.8216 104.525 31.8262 104.598 31.8262C104.78 31.8262 104.958 31.8125 105.131 31.7852C105.304 31.7487 105.482 31.7305 105.664 31.7305C105.746 31.7305 105.828 31.735 105.91 31.7441C105.992 31.7533 106.074 31.776 106.156 31.8125C106.174 31.7852 106.193 31.7624 106.211 31.7441C106.229 31.7259 106.243 31.7031 106.252 31.6758C106.699 31.7031 107.118 31.7943 107.51 31.9492C107.911 32.1042 108.326 32.2409 108.754 32.3594C108.809 32.4414 108.872 32.5143 108.945 32.5781L109.178 32.7695C109.26 32.8333 109.337 32.8971 109.41 32.9609C109.483 33.0247 109.547 33.1022 109.602 33.1934V33.3984ZM117.504 37.4863C117.504 37.5866 117.467 37.6641 117.395 37.7188C117.322 37.7643 117.285 37.8281 117.285 37.9102C117.285 37.9466 117.303 37.9922 117.34 38.0469C117.212 38.0469 117.126 38.0879 117.08 38.1699C117.035 38.252 116.989 38.3431 116.943 38.4434H116.766C116.72 38.4434 116.684 38.4525 116.656 38.4707C116.629 38.4889 116.602 38.5163 116.574 38.5527C116.556 38.5801 116.529 38.6257 116.492 38.6895C116.319 38.7259 116.15 38.7852 115.986 38.8672C115.831 38.9401 115.676 39.0221 115.521 39.1133C115.376 39.1953 115.225 39.2819 115.07 39.373C114.915 39.4551 114.756 39.5234 114.592 39.5781C114.51 39.7148 114.391 39.8242 114.236 39.9062H114.195C114.15 39.9154 114.109 39.9108 114.072 39.8926C114.045 39.8652 114.008 39.8516 113.963 39.8516C113.936 39.8516 113.917 39.8561 113.908 39.8652C113.635 40.0475 113.329 40.1387 112.992 40.1387C112.901 40.1387 112.814 40.1341 112.732 40.125C112.65 40.1068 112.564 40.0977 112.473 40.0977C112.445 40.0977 112.427 40.1068 112.418 40.125L112.391 40.1797C112.382 40.1979 112.368 40.2161 112.35 40.2344C112.34 40.2526 112.309 40.2617 112.254 40.2617C112.154 40.2617 112.053 40.248 111.953 40.2207C111.853 40.1934 111.748 40.1888 111.639 40.207C111.429 40.0885 111.265 39.9746 111.146 39.8652C111.028 39.7559 110.919 39.5918 110.818 39.373C110.773 39.2728 110.709 39.1771 110.627 39.0859C110.554 38.9948 110.499 38.8945 110.463 38.7852C110.454 38.7487 110.44 38.6849 110.422 38.5938C110.404 38.4935 110.385 38.3887 110.367 38.2793C110.349 38.1699 110.331 38.0651 110.312 37.9648C110.303 37.8646 110.299 37.7962 110.299 37.7598C110.299 37.6504 110.303 37.5456 110.312 37.4453C110.331 37.3359 110.349 37.2266 110.367 37.1172C110.422 36.7708 110.458 36.4245 110.477 36.0781C110.504 35.7227 110.581 35.3809 110.709 35.0527C110.691 34.9525 110.682 34.8568 110.682 34.7656V34.4648C110.682 34.2917 110.659 34.1458 110.613 34.0273C110.686 33.9089 110.723 33.7767 110.723 33.6309C110.723 33.4668 110.654 33.3711 110.518 33.3438V33.3027C110.518 33.1113 110.454 32.9609 110.326 32.8516C110.326 32.5326 110.404 32.2956 110.559 32.1406C110.723 31.9766 110.937 31.8353 111.201 31.7168C111.238 31.6621 111.251 31.6165 111.242 31.5801C111.306 31.5983 111.365 31.6165 111.42 31.6348C111.475 31.653 111.529 31.6621 111.584 31.6621C111.675 31.6621 111.757 31.6484 111.83 31.6211C111.857 31.7305 111.926 31.7988 112.035 31.8262C112.154 31.8444 112.249 31.8717 112.322 31.9082V32.0859C112.322 32.3685 112.391 32.6374 112.527 32.8926C112.491 32.9655 112.468 33.043 112.459 33.125C112.45 33.207 112.445 33.2845 112.445 33.3574C112.445 33.4668 112.45 33.5762 112.459 33.6855C112.468 33.7949 112.473 33.8997 112.473 34C112.473 34.1094 112.459 34.2188 112.432 34.3281C112.413 34.4375 112.363 34.5332 112.281 34.6152C112.272 34.7337 112.263 34.8704 112.254 35.0254C112.254 35.1712 112.245 35.3216 112.227 35.4766C112.217 35.6315 112.195 35.7819 112.158 35.9277C112.122 36.0736 112.067 36.1921 111.994 36.2832C111.985 36.4199 111.976 36.5612 111.967 36.707C111.967 36.8438 111.967 36.9759 111.967 37.1035C111.967 37.304 111.976 37.541 111.994 37.8145C112.021 38.0879 112.085 38.3158 112.186 38.498C112.231 38.571 112.318 38.6257 112.445 38.6621C112.582 38.6986 112.691 38.7168 112.773 38.7168C112.874 38.7168 112.974 38.7031 113.074 38.6758C113.184 38.6393 113.261 38.5801 113.307 38.498C113.361 38.5072 113.398 38.5345 113.416 38.5801C113.434 38.6257 113.466 38.6621 113.512 38.6895C114.031 38.4707 114.551 38.2611 115.07 38.0605C115.59 37.86 116.1 37.6276 116.602 37.3633C116.674 37.3997 116.752 37.418 116.834 37.418C116.925 37.418 117.016 37.4089 117.107 37.3906C117.199 37.3724 117.29 37.3633 117.381 37.3633H117.477C117.495 37.418 117.504 37.459 117.504 37.4863Z" fill="white"/>
<g clip-path="url(#clip0)">
<path d="M27.3347 5.71947C29.1915 5.98272 31.7843 5.24606 33.5606 6.10857C32.7264 4.83243 31.7871 2.82551 30.3503 1.82843C30.3249 1.67705 30.1369 1.76095 30.0586 1.82843C30.9169 3.07802 32.3458 4.27492 32.7822 5.62219C30.6299 4.96092 28.5644 5.21221 26.654 5.33036C26.7636 5.67265 27.0875 5.6842 27.3347 5.71947Z" fill="white"/>
<path d="M23.3466 1.92554C24.4235 2.632 25.5357 3.30321 26.5567 4.06561C26.0249 2.87844 24.5615 2.10529 23.3466 1.92554Z" fill="white"/>
<path d="M33.2687 2.31461C33.5569 3.13598 34.2395 4.38658 34.9224 5.13561C34.5963 3.96992 34.0609 3.01398 33.2687 2.31461Z" fill="white"/>
<path d="M21.4983 2.9955C22.7025 3.12075 23.1401 4.01285 24.1248 4.35737C23.7896 3.55099 22.6034 2.77076 21.4011 2.50912C21.3206 2.78413 21.5381 2.76123 21.4983 2.9955Z" fill="white"/>
<path d="M19.261 3.77396C20.3004 3.96669 20.9331 4.56595 21.8874 4.84399C21.4398 4.16468 19.9253 3.00467 19.261 3.77396Z" fill="white"/>
<path d="M10.9926 5.42744C11.7834 5.36502 12.6905 5.6074 12.8408 4.94106C11.2329 4.77813 9.60924 5.31091 8.46341 5.62199C6.82735 6.06622 4.8869 6.58827 4.086 7.76206C5.47907 7.32898 6.93193 6.65393 7.97703 6.20565C8.89366 5.81249 9.95396 5.50952 10.9926 5.42744Z" fill="white"/>
<path d="M25.0003 5.7195C23.5185 4.92082 20.7228 5.82265 19.6501 6.69226C20.0863 6.73927 20.0846 6.34835 20.4284 6.30315C21.6812 6.61282 23.5146 5.50124 25.0003 5.7195Z" fill="white"/>
<path d="M27.5293 6.20587C26.7612 6.46831 26.8469 8.01804 27.8211 7.66501C27.386 7.22544 27.5621 6.68475 27.5293 6.20587Z" fill="white"/>
<path d="M28.6966 6.20587C28.1498 6.27498 27.9453 6.68678 28.0158 7.37318C28.5464 7.6182 28.7345 7.98805 29.475 7.76229C29.4971 7.16829 29.6693 6.72468 29.8641 6.30315C29.3147 6.40225 29.2346 6.9705 28.6966 7.08135C28.6129 6.69347 28.8421 6.36253 28.6966 6.20587Z" fill="white"/>
<path d="M26.1676 6.49768C25.9319 6.77127 25.9362 7.78172 26.654 7.66499C26.4744 7.29311 26.5109 6.7054 26.1676 6.49768Z" fill="white"/>
<path d="M30.1557 8.05388C30.4601 8.03402 30.8699 8.11954 31.0312 7.9566C30.8488 7.33688 30.6844 7.14496 30.9341 6.49747C30.2378 6.56556 29.6614 7.39382 30.1557 8.05388Z" fill="white"/>
<path d="M25.5839 7.27568C25.0886 7.31702 25.3639 6.58785 24.903 6.59474C24.5982 6.614 24.8217 7.16198 24.6112 7.27568C24.2683 7.19725 24.3619 6.68189 23.9303 6.69202C23.8733 6.89448 23.7258 7.00634 23.6384 7.1784C23.7237 7.8188 25.4573 8.12116 25.5839 7.27568Z" fill="white"/>
<path d="M22.9575 6.69202C22.7798 6.96074 22.5895 7.65484 23.0548 7.76205C23.282 7.58736 23.329 6.86691 23.2494 6.69202C23.1521 6.69202 23.0548 6.69202 22.9575 6.69202Z" fill="white"/>
<path d="M21.3038 6.88656C21.3472 7.43232 20.9727 8.05327 21.5956 8.15115C21.6619 7.76346 21.8076 7.45522 21.7902 6.98384C21.6771 6.90237 21.5294 6.85555 21.3038 6.88656Z" fill="white"/>
<path d="M5.05853 9.41572C6.51261 9.04952 7.97438 8.52747 9.2414 8.15114C10.2105 7.86336 11.406 7.86438 11.9651 6.98383C11.803 6.98383 11.6409 6.98383 11.4787 6.98383C8.14502 8.35177 3.98607 8.89449 0.972947 10.583C0.815887 11.0115 0.070511 11.3641 0.486568 12.0422C1.4956 10.7727 3.06255 9.91852 5.05853 9.41572Z" fill="white"/>
<path d="M20.3311 7.27567C20.2338 7.27567 20.1365 7.27567 20.0392 7.27567C19.6743 7.48967 20.206 8.13514 19.7474 8.3457C19.3887 8.1856 19.1336 7.92194 19.0665 7.47022C17.8195 8.32402 19.6272 9.19686 20.7202 8.54025C20.8864 8.17121 20.1629 7.95964 20.3311 7.27567Z" fill="white"/>
<path d="M32.1014 8.44319C32.4899 8.08976 32.0469 7.0031 31.5178 7.56771C31.399 8.17264 31.7103 8.34774 32.1014 8.44319Z" fill="white"/>
<path d="M18.2882 9.12393C18.1271 8.70139 18.1245 8.12037 17.8019 7.85934C17.4087 8.27256 17.5121 9.12434 18.2882 9.12393Z" fill="white"/>
<path d="M16.7318 8.44321C16.2191 8.81468 16.5164 9.93518 17.2182 9.61052C17.188 9.08928 17.1023 8.62378 16.7318 8.44321Z" fill="white"/>
<path d="M15.4673 9.1239C15.4253 9.9167 15.7508 10.152 16.44 9.99939C16.2325 9.59083 15.993 9.21429 15.4673 9.1239Z" fill="white"/>
<path d="M31.1284 9.31848C31.26 9.34908 31.3143 9.4569 31.5178 9.41576C31.5178 9.31848 31.5178 9.22121 31.5178 9.12393C31.2958 9.09677 31.152 9.14744 31.1284 9.31848Z" fill="white"/>
<path d="M34.6304 11.1669C33.9973 11.2472 33.9632 11.9265 33.2685 11.9451C33.0602 11.7234 33.6228 11.1862 33.1713 10.9724C32.6674 11.1493 32.9037 12.0665 32.296 12.1397C32.0951 12.732 32.7803 13.6063 32.0041 13.5988C31.6213 12.3296 32.8069 11.4766 32.4905 10.2914C31.6329 10.3417 31.6203 11.2372 30.8368 11.3615C30.7343 10.8698 31.0585 10.805 31.0314 10.3887C30.2779 10.3164 30.6097 11.329 29.9614 11.3615C29.9563 10.8052 30.3383 10.636 30.2532 9.9996C29.9938 9.9996 29.7342 9.9996 29.475 9.9996C29.2204 10.2316 29.2097 10.7073 28.794 10.7778C28.5103 10.5287 28.9207 10.0916 28.6968 9.90233C28.0112 9.89767 27.9785 10.546 27.6269 10.8751C27.267 10.8135 27.33 10.3287 27.3351 9.90233C26.4696 9.82552 26.9541 10.7573 26.5569 10.9724C26.3074 10.8329 26.0405 10.7105 25.9732 10.3887C26.1175 10.306 26.1824 10.1439 26.1678 9.90233C25.6926 9.74729 25.2984 10.439 25.3896 11.1669C25.1908 10.9592 25.0047 11.1943 24.8059 11.2642C24.9527 11.7011 25.0218 12.2155 25.5841 12.2369C25.9643 12.1308 25.8496 11.5297 26.3624 11.556C26.3034 11.77 26.1179 12.2809 26.4596 12.3342C26.7292 11.9165 27.4567 11.0504 27.9188 11.4587C27.7116 11.8027 27.1809 11.8233 27.0435 12.2369C27.0182 12.5541 27.1588 12.7051 27.4326 12.7233C27.7273 12.4323 28.2084 11.8158 28.7945 12.1397C28.5898 12.5186 27.908 12.4206 28.0162 13.1124C28.5851 13.1957 28.9698 12.275 29.3781 12.8206C29.3734 13.2697 28.79 13.1402 28.8919 13.6961C29.2316 13.7699 29.6264 13.4016 29.8647 13.6961C29.937 13.9956 29.5978 13.8829 29.6701 14.1825C29.9141 14.2951 29.9958 14.5702 30.3509 14.5716C30.7852 14.2601 31.1204 13.8495 31.7129 13.6961C31.8076 14.0945 31.4722 14.3193 31.7129 14.5716C32.3566 14.662 32.54 13.7804 32.9773 13.9879C32.9129 14.2491 32.5503 14.5049 32.7828 14.7661C33.333 14.9872 33.3413 14.1638 33.5612 14.377C33.38 15.2337 32.6966 15.5881 32.3937 16.3225C32.7923 16.6956 32.8275 16.5215 33.1719 16.2253C33.8173 15.67 33.4465 15.6371 33.8528 14.7661C34.0986 14.239 34.4219 14.2463 34.4364 13.8906C34.4525 13.5036 34.145 13.2095 34.1448 12.9179C34.143 12.2902 34.6888 11.6203 34.6304 11.1669ZM30.1557 12.9177C30.1397 12.5126 30.1221 12.1058 30.3503 11.9449C30.6326 12.1034 30.6852 13.0164 30.1557 12.9177ZM31.3232 12.8206C30.8814 12.7768 31.3023 12.15 31.3232 11.9451C31.4529 11.9451 31.5824 11.9451 31.7123 11.9451C31.6252 12.2797 31.4756 12.5515 31.3232 12.8206ZM33.366 13.2097C32.8306 13.0447 33.2681 12.4112 33.4631 12.1397C33.6201 12.1123 33.6305 12.2317 33.7549 12.2369C33.7646 12.7004 33.4307 12.8204 33.366 13.2097Z" fill="white"/>
<path d="M14.7861 9.90213C14.8787 10.2637 15.0119 10.5843 15.4671 10.5831C15.4332 10.1632 15.2062 9.93618 14.7861 9.90213Z" fill="white"/>
<path d="M37.5489 10.0967C37.2944 10.0693 37.1306 10.1321 37.1598 10.3885C37.4141 10.4161 37.5781 10.353 37.5489 10.0967Z" fill="white"/>
<path d="M14.0081 10.5832C14.0478 10.8175 13.8304 10.7946 13.9108 11.0696C14.0961 11.1114 14.1552 11.2792 14.3972 11.2642C14.6206 10.992 14.4507 10.4902 14.0081 10.5832Z" fill="white"/>
<path d="M41.537 11.0696C41.6695 10.5802 41.1452 10.748 40.9533 10.5833C41.0139 10.8791 41.1695 11.0804 41.537 11.0696Z" fill="white"/>
<path d="M13.0351 11.1669C12.6892 11.5439 13.2418 12.0965 13.6188 11.7506C13.6141 11.3661 13.4196 11.1716 13.0351 11.1669Z" fill="white"/>
<path d="M42.3152 11.7504C42.3956 11.4756 42.1782 11.4982 42.2181 11.264C42.0882 11.264 41.9587 11.264 41.829 11.264C41.8067 11.6105 41.9689 11.7726 42.3152 11.7504Z" fill="white"/>
<path d="M12.4515 11.6531C12.3236 11.968 12.3171 12.5883 12.8406 12.5286C13.067 12.2071 12.8422 11.6644 12.4515 11.6531Z" fill="white"/>
<path d="M34.6304 13.1124C35.0033 12.7718 35.4116 12.467 35.9925 12.3342C35.8153 11.2198 34.1774 12.4027 34.6304 13.1124Z" fill="white"/>
<path d="M30.3503 11.9449C30.1221 12.1058 30.1397 12.5125 30.1557 12.9176C30.6853 13.0163 30.6326 12.1034 30.3503 11.9449Z" fill="white"/>
<path d="M31.3232 12.8206C31.4756 12.5515 31.6252 12.2797 31.7123 11.9451C31.5824 11.9451 31.4529 11.9451 31.3232 11.9451C31.3023 12.15 30.8814 12.7766 31.3232 12.8206Z" fill="white"/>
<path d="M46.7899 17.3924C46.9974 17.5091 47.3196 17.5111 47.3735 17.7815C47.3743 18.3643 47.6783 18.644 47.9574 18.9488C48.4515 17.9697 47.5997 17.1054 47.0819 16.3223C45.9535 14.616 44.3886 13.1558 43.0936 12.0422C42.924 12.0349 42.791 12.0639 42.7043 12.1395C42.7043 12.2367 42.7043 12.334 42.7043 12.4313C44.3803 13.7711 45.8244 15.3427 46.7899 17.3924Z" fill="white"/>
<path d="M33.4633 12.1395C33.2681 12.411 32.8308 13.0446 33.3662 13.2095C33.4309 12.8204 33.7649 12.7002 33.7553 12.2368C33.6307 12.2315 33.6204 12.1121 33.4633 12.1395Z" fill="white"/>
<path d="M20.1363 12.2367C19.7812 12.5492 19.7701 13.4561 20.3308 13.5986C19.9916 13.0512 20.7007 12.4203 20.1363 12.2367Z" fill="white"/>
<path d="M21.5956 13.2097C21.1439 13.2075 21.4398 12.4576 21.2065 12.2369C20.785 12.4765 21.1109 13.6134 21.5956 13.2097Z" fill="white"/>
<path d="M11.7707 12.4313C11.624 12.6267 11.747 13.1753 12.0626 13.2095C12.4381 13.0952 12.2399 12.3004 11.7707 12.4313Z" fill="white"/>
<path d="M36.187 17.1978C36.4314 15.659 38.0235 14.9011 39.2996 14.1822C38.761 13.8359 37.9343 14.4797 37.646 14.3768C37.7507 14.1247 37.9978 14.0151 38.0351 13.6959C37.6443 13.7297 36.934 13.9522 36.7707 13.8904C37.2331 13.4973 36.4347 13.5682 36.6734 13.2095C36.8645 13.1803 36.8663 13.3408 36.9652 13.404C36.9148 12.6078 37.8227 12.7701 38.5216 12.7231C37.4871 11.8567 36.1248 13.0735 35.3115 13.5986C34.7352 14.6076 34.7186 15.9521 34.7279 17.1978C35.4173 18.1943 35.5061 19.7918 36.9652 20.0188C36.8078 18.9036 36.031 18.1789 36.187 17.1978Z" fill="white"/>
<path d="M19.5526 14.2795C19.4274 13.6294 18.6934 13.4563 19.1635 12.7231C19.0338 12.7231 18.9041 12.7231 18.7744 12.7231C18.8447 13.0204 18.6749 13.0778 18.6771 13.3068C18.9676 13.6328 19.1025 14.1138 19.5526 14.2795Z" fill="white"/>
<path d="M24.7083 13.0152C24.5575 13.6426 24.1694 14.0327 23.8328 14.4743C24.0798 15.5227 25.1703 15.8023 25.1947 16.8089C25.5807 17.0341 25.8424 17.4704 26.4592 17.198C26.3018 16.7394 25.7587 16.6663 25.7783 16.0307C27.279 16.3132 28.5904 16.7854 29.9612 17.198C28.7967 16.3199 27.1051 15.9685 25.2919 15.7389C25.1292 15.5772 24.8982 15.4842 24.9028 15.1552C26.3358 15.2138 27.3222 15.7192 28.502 16.0307C27.6671 14.985 25.5284 15.243 24.611 14.2798C25.7621 14.1417 26.9537 14.7848 27.9184 15.1552C27.5749 14.0264 25.2713 14.3837 25.0974 13.4043C25.877 13.4353 26.3727 13.7502 26.9456 13.9879C26.4941 13.3694 25.712 13.0816 24.7083 13.0152Z" fill="white"/>
<path d="M10.6033 13.5015C10.4529 13.8071 10.5411 14.0442 10.7006 14.2797C10.8846 14.3014 10.9152 14.1701 11.0897 14.1825C11.1282 13.7548 10.9703 13.5236 10.6033 13.5015Z" fill="white"/>
<path d="M23.2493 13.5988C23.1249 13.5935 23.1145 13.4742 22.9575 13.5015C22.6892 13.9235 22.2986 14.8893 22.9575 15.1552C22.9739 15.0419 23.1113 15.0496 23.2493 15.058C23.2341 14.7365 22.6934 14.0688 23.2493 13.5988Z" fill="white"/>
<path d="M17.6071 13.6961C17.3737 14.118 17.7705 15.1743 18.1908 15.5443C17.9673 15.0063 18.2562 14.7187 18.3853 14.2797C18.0254 14.1859 17.8382 13.9188 17.6071 13.6961Z" fill="white"/>
<path d="M22.3736 15.3496C22.3967 15.0128 22.2389 14.2493 21.9845 13.8904C21.6925 14.1172 21.763 14.7063 21.6927 15.155C21.9448 15.2979 22.0544 15.5137 22.3736 15.3496Z" fill="white"/>
<path d="M9.53345 13.9877C9.55817 14.3199 9.77947 14.455 9.728 14.8632C9.89073 15.035 10.0539 14.7769 10.4089 14.8632C10.1076 14.5809 10.0119 14.0929 9.53345 13.9877Z" fill="white"/>
<path d="M21.5957 15.8362C21.3433 15.3076 21.2104 14.7829 21.4984 14.1825C20.888 13.8625 20.8829 14.9064 20.8174 15.4471C21.1612 15.4922 21.1593 15.8832 21.5957 15.8362Z" fill="white"/>
<path d="M30.8368 14.3768C30.6151 14.6471 30.8156 15.1185 31.1285 15.155C31.5111 15.0616 31.202 14.5886 31.1285 14.3768C31.0314 14.3768 30.9341 14.3768 30.8368 14.3768Z" fill="white"/>
<path d="M43.0936 14.4741C42.0756 15.4458 43.812 17.1899 45.0391 16.5169C45.0342 15.1921 44.4171 14.48 43.0936 14.4741ZM44.358 16.128C43.6016 16.1063 43.721 15.2085 43.2881 14.8634C43.8771 14.6648 44.6834 15.4213 44.358 16.128Z" fill="white"/>
<path d="M18.8719 16.128C19.0975 16.097 19.2454 16.1436 19.3583 16.2253C18.9007 15.7709 19.2134 15.0042 18.8719 14.5716C18.3756 14.9572 18.7203 15.6057 18.8719 16.128Z" fill="white"/>
<path d="M20.2336 14.5714C19.9397 14.9057 19.6945 16.0321 20.5254 15.9332C20.1861 15.5084 20.6433 14.8249 20.2336 14.5714Z" fill="white"/>
<path d="M17.3153 16.128C17.4543 15.8145 16.9282 15.4452 17.1207 14.7661C16.2469 14.8143 16.7616 16.0909 17.3153 16.128Z" fill="white"/>
<path d="M42.0236 19.8243C43.4669 19.683 45.9369 19.1981 46.0119 18.0733C45.0831 17.4145 43.447 17.2775 42.3154 17.6842C41.2125 17.2286 39.997 17.3676 38.9107 17.2951C39.2449 16.0731 41.84 17.1115 41.9263 15.6414C40.7945 14.1644 37.9341 14.8464 37.2571 16.2251C37.3622 16.849 36.9681 16.9737 36.868 17.3924C37.1117 18.3169 37.1026 20.4789 38.23 20.5052C38.5624 20.5129 38.7448 20.0669 39.1053 19.9215C39.7889 19.6461 40.8506 19.9392 42.0236 19.8243Z" fill="white"/>
<path d="M43.2882 14.8632C43.7213 15.2085 43.6017 16.1061 44.358 16.1278C44.6835 15.4213 43.8771 14.6648 43.2882 14.8632Z" fill="white"/>
<path d="M32.393 15.2525C32.026 14.9805 31.5696 15.2918 31.7123 15.8362C31.7877 15.8578 31.904 15.8388 31.9069 15.9334C32.3389 15.9762 32.4362 15.6846 32.393 15.2525Z" fill="white"/>
<path d="M16.6346 16.7114C16.5045 16.3227 16.1715 16.1369 16.0509 15.7387C15.5806 16.0818 16.2204 16.9725 16.6346 16.7114Z" fill="white"/>
<path d="M4.57238 15.9335C3.5449 17.1433 2.1267 17.9625 1.55682 19.6299C2.94017 18.614 3.91151 17.1857 5.15603 16.0307C5.04092 15.9187 4.81212 15.9205 4.57238 15.9335Z" fill="white"/>
<path d="M14.6888 16.4196C14.7527 16.7773 15.0475 16.9042 15.2725 17.1005C14.9703 16.7076 15.1961 16.4293 15.2725 15.9332C14.9784 15.9958 14.7111 16.0854 14.6888 16.4196Z" fill="white"/>
<path d="M45.7201 17.1006C45.7326 16.8608 45.7346 16.632 45.6228 16.5169C45.2854 16.4389 45.2489 16.6618 44.9418 16.6142C44.8847 17.0929 45.2614 17.1374 45.7201 17.1006Z" fill="white"/>
<path d="M14.1054 17.1005C14.0258 17.472 14.3123 17.4771 14.4945 17.5869C14.5196 17.2697 14.379 17.1188 14.1054 17.1005Z" fill="white"/>
<path d="M11.5762 17.3924C11.3389 17.9201 12.1246 18.1833 12.6462 18.2678C12.4045 17.8611 11.9138 17.7032 11.5762 17.3924Z" fill="white"/>
<path d="M18.191 19.3379C18.0366 18.753 18.1186 18.2749 18.2883 17.7815C17.5354 17.7014 17.4622 19.3302 18.191 19.3379Z" fill="white"/>
<path d="M19.261 17.7817C19.0488 18.0883 18.8356 18.3939 18.8719 18.949C19.0559 18.9273 19.0865 19.0586 19.261 19.0463C18.9477 18.6156 19.7592 18.0273 19.261 17.7817Z" fill="white"/>
<path d="M20.331 18.8515C20.5132 18.4827 20.7949 18.2129 20.9147 17.7815C20.5833 17.8986 19.8013 18.5122 20.331 18.8515Z" fill="white"/>
<path d="M12.0624 19.0461C11.8541 18.6707 11.4498 18.4914 11.0896 18.2679C11.0295 18.8738 11.6826 19.1944 12.0624 19.0461Z" fill="white"/>
<path d="M17.0235 19.5324C16.8741 19.163 17.1224 18.3959 16.6344 18.3651C16.2489 18.6963 16.5592 19.4653 17.0235 19.5324Z" fill="white"/>
<path d="M21.401 18.8515C21.6574 18.8809 21.7202 18.7167 21.6929 18.4624C21.4365 18.4332 21.3735 18.5972 21.401 18.8515Z" fill="white"/>
<path d="M11.2844 19.727C11.1462 19.2167 10.5779 19.1364 10.2144 18.8515C10.1965 19.5178 10.5968 19.7661 11.2844 19.727Z" fill="white"/>
<path d="M9.14435 20.3109C9.14435 20.473 9.14435 20.6351 9.14435 20.7972C9.44185 20.9861 9.71807 21.1963 10.1171 21.2836C10.0891 20.6627 9.43861 20.6649 9.14435 20.3109Z" fill="white"/>
<path d="M23.0548 24.2989C24.8382 25.6596 25.6099 23.1772 26.8485 22.1589C27.5212 21.6058 28.3713 21.4506 28.3075 20.6997C25.5461 20.889 24.1755 22.4691 23.0548 24.2989Z" fill="white"/>
<path d="M9.24162 22.0616C9.06045 21.6593 8.462 21.6739 8.17159 21.3807C8.09884 22.0369 8.60447 22.1151 9.24162 22.0616Z" fill="white"/>
<path d="M41.0508 23.3264C40.7788 23.6936 41.0899 24.1498 41.6345 24.0073C41.692 23.5283 41.5404 23.2583 41.0508 23.3264Z" fill="white"/>
<path d="M41.4399 26.2447C41.1641 26.0633 40.9734 25.2881 40.6617 25.4663C40.8354 25.7496 41.0873 26.4636 41.4399 26.2447Z" fill="white"/>
<path d="M16.0509 25.6608C15.129 26.7308 14.5138 30.1164 15.5645 31.1084C15.5299 29.1352 15.6533 27.2383 16.3427 25.6608C16.2455 25.6608 16.1482 25.6608 16.0509 25.6608Z" fill="white"/>
<path d="M17.6071 33.2485C18.3861 33.0108 18.7819 31.3227 18.2881 30.7196C17.9273 31.4285 17.7046 32.2758 17.6071 33.2485Z" fill="white"/>
<path d="M1.26495 34.8048C2.38849 34.9794 2.62823 33.4506 3.21047 32.762C2.39335 32.8939 1.85428 34.1234 1.26495 34.8048Z" fill="white"/>
<path d="M17.6071 33.4429C17.5601 33.5578 17.5033 33.6634 17.4126 33.7347C17.5352 34.4029 17.1925 35.034 17.4126 35.4857C17.1582 35.9362 16.9132 37.4582 17.6071 37.723C17.46 36.8028 17.9095 34.6157 17.8989 33.5402C17.7747 33.5351 17.7644 33.4157 17.6071 33.4429Z" fill="white"/>
<path d="M3.59957 34.9993C3.00355 35.4543 1.14255 38.4933 1.93413 39.082C1.91406 37.9729 3.87661 35.7244 3.59957 34.9993Z" fill="white"/>
<path d="M3.89145 38.5012C4.50672 37.8519 4.4287 36.5093 4.86421 35.6802C3.87281 35.8896 3.73236 37.4663 3.89145 38.5012Z" fill="white"/>
<path d="M3.69689 35.9723C3.32704 36.5425 3.00603 37.1619 2.82141 37.9178C2.27626 42.7295 3.13573 38.1222 3.30779 38.2096C3.31286 37.3068 3.68007 36.7659 3.89144 36.0693C3.86996 35.9935 3.80977 35.9564 3.69689 35.9723Z" fill="white"/>
<path d="M5.54491 36.945C5.43284 37.37 5.18802 38.0534 5.64218 38.3069C5.83978 38.2151 5.8645 37.1096 5.54491 36.945Z" fill="white"/>
<path d="M50.0002 19.8239C49.5698 19.6176 49.3232 18.7786 48.8329 18.9484C49.3836 19.6046 49.9561 20.1743 49.3193 21.0885C47.3148 21.4654 45.0819 22.1553 43.1909 22.9367C42.9378 23.2898 42.3195 23.7204 41.7318 23.4229C41.8836 23.0885 41.9602 22.6785 41.9263 22.1585C42.5744 21.8331 43.3056 21.0745 44.1637 21.283C44.233 21.8712 43.6526 21.8093 43.483 22.1585C45.0862 21.3301 47.4776 21.2893 48.9304 20.3103C48.5385 19.5459 47.7134 19.9881 46.4985 19.8239C44.3522 20.4339 42.4273 21.2652 40.662 22.2558C40.117 21.9861 38.8808 22.5916 38.5217 21.9642C38.6017 19.7274 40.4269 20.1074 42.7046 19.9212C44.7794 19.7518 46.2942 18.8522 48.5413 19.143C48.4371 18.7796 48.7827 18.8657 48.7359 18.5593C46.0411 12.9208 41.122 9.50678 36.1873 6.108C36.1585 5.43883 35.6113 4.93644 35.7982 4.35704C34.4687 3.25437 34.2162 1.07499 32.2962 0.563278C32.2517 0.996561 32.5267 1.61061 32.0044 1.82786C31.0126 2.24027 29.9955 0.529839 29.1834 0.466002C28.6016 0.420201 28.0449 0.995345 27.4324 0.952381C26.1539 0.862807 25.0441 -0.589846 24.1251 0.27145C26.5114 0.900906 28.5302 2.41598 29.4752 4.16249C28.0412 2.93762 26.6518 1.66797 24.9031 0.75783C24.1105 1.39114 23.1083 1.35425 22.2766 1.24421C21.8786 2.04876 20.8217 2.11098 19.942 1.73059C19.6125 1.93811 20.153 2.26034 19.942 2.31424C19.6232 2.30877 19.5703 2.03762 19.1638 2.11969C18.8379 2.35092 19.502 2.67903 19.1638 2.8979C18.739 2.96599 18.6158 2.73253 18.191 2.80062C17.8777 3.42238 17.332 3.53465 17.121 4.06521C16.7653 4.12276 16.3529 3.73711 16.3428 4.25976C17.148 4.84889 18.6665 4.72466 19.2611 5.52435C18.0469 5.27954 16.9834 4.88375 15.8564 4.55159C15.7176 5.07951 16.3073 4.87888 16.1482 5.42707C15.9213 5.42707 15.6943 5.42707 15.4673 5.42707C15.0831 6.2752 13.739 6.16333 13.5218 7.17804C13.7757 7.21593 14.0554 7.22809 14.2027 7.37259C14.2783 8.48295 13.0928 8.89313 12.4518 9.22083C9.00839 10.9811 4.13143 12.768 1.94596 15.5438C1.48674 16.1268 1.12378 17.0124 1.07048 17.8784C2.20658 17.1012 3.13496 15.5983 4.37786 15.2519C3.66369 16.3694 1.96359 17.4133 1.16776 18.6566C0.42623 19.815 1.09156 21.052 0.973204 22.5476C1.98386 20.6074 3.63431 18.7885 5.25334 17.7811C4.27106 19.8176 1.17181 20.7636 1.65413 23.6175C2.30406 22.3867 3.14083 20.8244 4.18331 20.3103C3.44502 21.8744 2.1243 22.8557 1.65413 24.6877C2.31946 24.5089 2.54178 23.372 3.016 23.3258C2.84333 24.2629 2.22158 24.7189 2.33507 25.5632C2.46983 26.5643 2.93291 27.0057 3.11327 27.8978C3.81305 31.3588 1.63205 31.8484 0.296934 35.1866C0.0967078 35.3104 -0.00644515 35.9324 0.00064788 36.2635C0.00064788 36.2635 0.317605 39.8737 1.1483 41.4617C1.97879 43.0495 2.55414 43.6378 3.12908 42.4616C3.62721 41.4426 3.88601 39.808 4.44474 39.3504C6.14463 39.1824 8.19209 39.0377 8.75548 40.7382C9.14093 40.6744 9.30812 41.1196 9.59671 41.1537C10.2545 41.743 12.3547 45.6859 13.6596 45.4577C14.8103 45.2565 14.8956 42.0595 14.897 41.1753C14.9268 41.1897 14.9552 41.2059 14.9809 41.2246C14.6018 39.4072 14.0118 38.0615 12.9381 36.6524C10.855 33.919 7.56182 32.2229 8.94983 27.8003C9.65325 27.8552 9.52011 27.0736 10.0199 26.9248C10.3326 27.3849 9.69723 27.6037 9.72803 28.0921C10.046 28.1128 10.1212 27.3903 10.409 27.703C10.3508 28.3451 10.5443 28.735 10.7981 29.0651C12.8319 27.8563 12.5513 24.333 13.7163 22.2556C15.276 20.8483 18.1712 20.8864 20.3311 20.3101C20.3544 20.4489 20.4912 20.4742 20.5257 20.6019C19.5387 22.1847 20.0139 24.3414 22.1793 24.2984C23.9822 26.7313 25.4365 24.346 26.6542 23.0338C27.2541 22.3873 28.2123 21.6399 28.8916 21.2828C30.3779 20.5016 32.5889 21.6022 33.9499 21.9638C35.3203 24.1383 38.3521 25.4673 40.4672 27.1192C41.09 27.6056 41.321 28.5295 42.4129 28.2865C43.0754 26.8024 42.038 25.6254 41.6347 24.5902C43.5515 22.8751 46.3376 22.0296 49.3195 21.3801C49.5629 20.8779 49.8527 20.4219 50.0002 19.8239ZM1.55706 19.6293C2.12694 17.9619 3.54514 17.1427 4.57261 15.9329C4.81236 15.9201 5.04116 15.9181 5.15627 16.0301C3.91154 17.1851 2.94041 18.6134 1.55706 19.6293ZM42.7046 12.1391C42.7913 12.0635 42.9242 12.0345 43.0939 12.0418C44.3888 13.1556 45.9536 14.6156 47.0822 16.322C47.6002 17.105 48.4517 17.9694 47.9576 18.9484C47.6786 18.6436 47.3746 18.3642 47.3738 17.7811C47.3199 17.5108 46.9979 17.5087 46.7901 17.392C45.8245 15.3421 44.3803 13.7707 42.7046 12.4309C42.7046 12.3337 42.7046 12.2364 42.7046 12.1391ZM44.9419 16.6138C45.2491 16.6614 45.2854 16.4385 45.6228 16.5165C45.7349 16.6314 45.7329 16.8604 45.7201 17.1002C45.2617 17.1371 44.8849 17.0925 44.9419 16.6138ZM43.0939 14.4737C44.4174 14.4796 45.0345 15.1917 45.0394 16.5165C43.8123 17.1895 42.0759 15.4455 43.0939 14.4737ZM42.2184 11.2638C42.1787 11.4981 42.3961 11.4752 42.3154 11.7502C41.9691 11.7725 41.8068 11.6104 41.8293 11.2638C41.959 11.2638 42.0885 11.2638 42.2184 11.2638ZM41.5372 11.0693C41.1698 11.0802 41.0142 10.879 40.9536 10.5829C41.1457 10.7475 41.67 10.5799 41.5372 11.0693ZM41.9263 15.6412C41.84 17.1111 39.2452 16.0727 38.9108 17.2949C39.9968 17.3675 41.2124 17.2287 42.3154 17.684C43.4471 17.2773 45.0831 17.4141 46.0119 18.0731C45.9369 19.1977 43.4669 19.6826 42.0236 19.8241C40.8506 19.939 39.7891 19.646 39.1053 19.9214C38.7448 20.0667 38.5622 20.5127 38.2301 20.505C37.1029 20.4787 37.1118 18.3167 36.868 17.3922C36.9681 16.9735 37.3621 16.8489 37.2571 16.2249C37.9342 14.8462 40.7945 14.1643 41.9263 15.6412ZM37.5491 10.0963C37.5785 10.3527 37.4144 10.4157 37.16 10.3881C37.1306 10.132 37.2946 10.069 37.5491 10.0963ZM38.5219 12.7228C37.8231 12.7698 36.915 12.6074 36.9655 13.4037C36.8666 13.3405 36.8648 13.18 36.6737 13.2091C36.4349 13.5678 37.2336 13.4969 36.7709 13.8901C36.9345 13.9519 37.6448 13.7296 38.0353 13.6955C37.998 14.0147 37.751 14.1243 37.6462 14.3765C37.9346 14.4794 38.7612 13.8356 39.2999 14.1819C38.0238 14.9007 36.4317 15.6587 36.1873 17.1975C36.0312 18.1783 36.808 18.9032 36.9655 20.0184C35.5063 19.7915 35.4176 18.1941 34.7281 17.1975C34.7188 15.9519 34.7354 14.6073 35.3118 13.5982C36.1249 13.0734 37.4871 11.8564 38.5219 12.7228ZM35.9927 12.3337C35.4121 12.4666 35.0035 12.7714 34.6307 13.1119C34.1777 12.4024 35.8156 11.2194 35.9927 12.3337ZM34.4361 13.8903C34.4215 14.2459 34.0983 14.2386 33.8524 14.7658C33.4461 15.6368 33.8168 15.6696 33.1715 16.2249C32.8272 16.5212 32.7919 16.6953 32.3933 16.3222C32.6963 15.5875 33.3796 15.2331 33.5608 14.3767C33.3409 14.1635 33.3326 14.9869 32.7824 14.7658C32.55 14.5045 32.9125 14.2488 32.977 13.9876C32.5396 13.78 32.3562 14.6616 31.7126 14.5712C31.4718 14.3189 31.8072 14.0941 31.7126 13.6957C31.12 13.8489 30.7848 14.2597 30.3505 14.5712C29.9955 14.5698 29.9138 14.2948 29.6698 14.1821C29.5974 13.8826 29.9367 13.9953 29.8643 13.6957C29.626 13.4013 29.2312 13.7695 28.8916 13.6957C28.7896 13.1398 29.3731 13.2693 29.3778 12.8202C28.9694 12.2747 28.5848 13.1954 28.0159 13.1121C27.9077 12.4202 28.5894 12.5183 28.7941 12.1393C28.208 11.8155 27.7269 12.4319 27.4322 12.723C27.1584 12.7047 27.0178 12.5537 27.0431 12.2366C27.1807 11.823 27.7113 11.8023 27.9184 11.4584C27.4566 11.0498 26.7288 11.9162 26.4593 12.3339C26.1176 12.2806 26.303 11.7697 26.362 11.5557C25.8493 11.5293 25.964 12.1304 25.5838 12.2366C25.0214 12.2153 24.9521 11.7008 24.8056 11.2638C25.0044 11.1939 25.1904 10.9588 25.3892 11.1666C25.298 10.4386 25.6922 9.74693 26.1674 9.90196C26.182 10.1435 26.1172 10.3057 25.9729 10.3883C26.0402 10.7104 26.3069 10.8326 26.5566 10.972C26.9538 10.7568 26.4692 9.82495 27.3348 9.90196C27.3299 10.3284 27.2667 10.8131 27.6266 10.8747C27.9782 10.5454 28.0108 9.8971 28.6964 9.90196C28.9204 10.0914 28.51 10.5284 28.7937 10.7774C29.2096 10.7067 29.2201 10.2313 29.4746 9.99924C29.7338 9.99924 29.9934 9.99924 30.2528 9.99924C30.338 10.6356 29.9557 10.8048 29.961 11.3611C30.6093 11.3285 30.2776 10.3158 31.031 10.3883C31.0582 10.8046 30.7339 10.8695 30.8365 11.3611C31.62 11.2367 31.6325 10.3413 32.4902 10.2911C32.8065 11.4764 31.621 12.3292 32.0038 13.5984C32.78 13.6059 32.0948 12.7317 32.2956 12.1393C32.9034 12.0661 32.6671 11.1489 33.1709 10.972C33.6226 11.1858 33.0599 11.723 33.2682 11.9448C33.9629 11.9261 33.9969 11.2468 34.63 11.1666C34.6884 11.6199 34.1427 12.2899 34.1439 12.9175C34.1449 13.2089 34.4521 13.503 34.4361 13.8903ZM31.9071 15.9331C31.9043 15.8384 31.788 15.8575 31.7126 15.8358C31.5699 15.2915 32.0265 14.9802 32.3933 15.2521C32.4365 15.6842 32.3392 15.9758 31.9071 15.9331ZM31.1287 15.1547C30.8156 15.1182 30.6154 14.6468 30.8371 14.3765C30.9344 14.3765 31.0317 14.3765 31.1287 14.3765C31.2023 14.5882 31.5113 15.0612 31.1287 15.1547ZM20.4286 6.30276C20.0847 6.34795 20.0865 6.73888 19.6504 6.69186C20.723 5.82225 23.5189 4.92043 25.0005 5.7191C23.5149 5.50084 21.6814 6.61242 20.4286 6.30276ZM23.055 7.76169C22.5897 7.65449 22.78 6.96038 22.9578 6.69166C23.055 6.69166 23.1523 6.69166 23.2496 6.69166C23.329 6.86655 23.282 7.587 23.055 7.76169ZM21.3041 6.88621C21.5296 6.8552 21.6776 6.90181 21.7904 6.98349C21.8079 7.45487 21.6622 7.76311 21.5959 8.1508C20.9727 8.05311 21.3472 7.43197 21.3041 6.88621ZM23.9305 6.69166C24.3622 6.68152 24.2683 7.19688 24.6114 7.27531C24.822 7.16162 24.5985 6.61363 24.9033 6.59438C25.3641 6.58749 25.0889 7.31666 25.5842 7.27531C25.4575 8.1208 23.724 7.81823 23.6387 7.17804C23.726 7.00618 23.8734 6.89411 23.9305 6.69166ZM27.8215 7.66442C26.8472 8.01745 26.7616 6.46772 27.5297 6.20528C27.5623 6.68436 27.3862 7.22505 27.8215 7.66442ZM28.6968 7.08076C29.2347 6.96991 29.3149 6.40165 29.8643 6.30255C29.6696 6.72408 29.4973 7.1677 29.4752 7.76169C28.7347 7.98745 28.5467 7.61781 28.0161 7.37259C27.9456 6.68619 28.1501 6.27459 28.6968 6.20528C28.8423 6.36214 28.6131 6.69308 28.6968 7.08076ZM31.0316 7.95624C30.8703 8.11918 30.4606 8.03366 30.1562 8.05352C29.6619 7.39346 30.238 6.5652 30.9346 6.49711C30.6849 7.1446 30.8491 7.33652 31.0316 7.95624ZM31.518 9.12355C31.518 9.22083 31.518 9.31811 31.518 9.41538C31.3146 9.45652 31.2605 9.34871 31.1287 9.31811C31.1522 9.14706 31.2961 9.0964 31.518 9.12355ZM31.518 7.56714C32.0472 7.00253 32.4902 8.08939 32.1017 8.44262C31.7106 8.34737 31.3993 8.17228 31.518 7.56714ZM34.9227 5.13524C34.2397 4.38622 33.5572 3.13562 33.269 2.31424C34.0612 3.01362 34.5966 3.96955 34.9227 5.13524ZM32.7824 5.62162C32.3461 4.27455 30.9172 3.07745 30.0589 1.82786C30.1373 1.76038 30.3252 1.67648 30.3505 1.82786C31.7874 2.82494 32.7267 4.83186 33.5608 6.108C31.7845 5.24549 29.1917 5.98215 27.335 5.7189C27.0875 5.68384 26.7639 5.67209 26.6542 5.3298C28.5647 5.21165 30.6302 4.96035 32.7824 5.62162ZM26.1679 6.49731C26.5112 6.70503 26.4747 7.29294 26.6542 7.66462C25.9364 7.78135 25.9322 6.77069 26.1679 6.49731ZM26.557 4.06541C25.536 3.30301 24.4238 2.63181 23.3469 1.92534C24.5618 2.1049 26.0252 2.87804 26.557 4.06541ZM21.4013 2.5088C22.6037 2.77063 23.7899 3.55086 24.1251 4.35704C23.1403 4.01232 22.7028 3.12042 21.4986 2.99517C21.5383 2.7609 21.3209 2.7838 21.4013 2.5088ZM21.8875 4.84342C20.9334 4.56537 20.3005 3.96611 19.2611 3.77338C19.9256 3.00429 21.44 4.16431 21.8875 4.84342ZM19.0667 7.46986C19.1338 7.92159 19.3889 8.18525 19.7477 8.34535C20.2063 8.13458 19.6745 7.48912 20.0395 7.27531C20.1368 7.27531 20.234 7.27531 20.3313 7.27531C20.1631 7.95928 20.8868 8.17066 20.7204 8.5399C19.6275 9.19651 17.8196 8.32387 19.0667 7.46986ZM17.8019 7.85897C18.1248 8.11999 18.1272 8.70101 18.2883 9.12355C17.5123 9.12396 17.409 8.27219 17.8019 7.85897ZM16.7321 8.44283C17.1028 8.62339 17.1885 9.0889 17.2185 9.61014C16.5165 9.93459 16.2192 8.8143 16.7321 8.44283ZM15.4675 9.12355C15.9932 9.21394 16.2327 9.59048 16.4403 9.99904C15.751 10.1516 15.4256 9.91656 15.4675 9.12355ZM15.4675 10.5829C15.0123 10.5839 14.879 10.2633 14.7866 9.90196C15.2065 9.93581 15.4335 10.1628 15.4675 10.5829ZM14.0084 10.5829C14.451 10.4901 14.6208 10.9919 14.3975 11.2638C14.1555 11.2788 14.0963 11.111 13.9111 11.0693C13.8306 10.7943 14.0481 10.8172 14.0084 10.5829ZM13.0354 11.1666C13.4197 11.1714 13.6142 11.366 13.6191 11.7502C13.2421 12.0959 12.6897 11.5435 13.0354 11.1666ZM12.4518 11.6527C12.8423 11.6641 13.0672 12.2068 12.8409 12.5282C12.3174 12.588 12.3241 11.9679 12.4518 11.6527ZM11.771 12.4309C12.2404 12.3 12.4386 13.0946 12.0629 13.2091C11.7471 13.1751 11.6241 12.6265 11.771 12.4309ZM10.6035 13.5012C10.9705 13.5233 11.1284 13.7545 11.0899 14.1821C10.9154 14.1697 10.8846 14.3011 10.7008 14.2794C10.5415 14.0437 10.4531 13.8068 10.6035 13.5012ZM10.409 14.8628C10.0541 14.7765 9.89077 15.0347 9.72803 14.8628C9.77951 14.4547 9.5582 14.3195 9.53348 13.9873C10.0122 14.0925 10.1078 14.5805 10.409 14.8628ZM3.21055 32.7616C2.62831 33.4502 2.38877 34.9791 1.26503 34.8044C1.85456 34.123 2.39363 32.8935 3.21055 32.7616ZM26.8488 22.1587C25.6101 23.1769 24.8384 25.6592 23.055 24.2988C24.1757 22.469 25.5463 20.8887 28.3077 20.6996C28.3716 21.4504 27.5214 21.6055 26.8488 22.1587ZM42.0238 27.7032C40.7651 27.2831 40.0029 25.9304 38.8137 25.0768C38.1389 24.5926 37.342 24.4463 36.5764 24.007C35.514 23.3972 34.9608 22.1145 34.0472 21.4778C33.2431 20.9172 31.8516 20.6834 30.9346 20.505C30.0277 20.3287 28.6936 20.0466 27.5297 20.2132C27.0105 20.2874 26.3707 20.7628 26.1679 20.8941C25.6776 21.2115 24.8096 21.4545 24.2223 21.9642C23.3233 22.744 22.5626 24.3215 21.4013 23.4231C21.5175 22.9882 22.1094 23.0289 22.0823 22.4503C21.6723 22.4651 21.5104 23.2358 21.0122 22.8395C21.1233 22.1723 21.8632 22.1342 22.1795 21.6721C21.5515 21.6926 21.389 22.1786 20.8177 22.2558C21.0684 21.5013 21.8958 21.3236 22.4714 20.8939C21.6401 20.6996 21.4542 21.5992 20.8177 21.283C20.8981 20.0018 22.6351 20.3767 22.9578 19.3375C22.4223 19.0933 22.1804 19.5803 21.6932 19.7266C19.9288 20.2564 18.0297 19.92 16.5375 20.3103C16.2236 19.9757 15.6511 19.8997 15.7593 19.143C15.0034 19.2654 15.5622 20.109 15.6621 20.5048C14.7852 21.0546 13.6381 21.3343 13.1329 22.2558C13.1544 22.5691 12.9608 22.6674 13.0356 23.034C11.8758 24.511 12.6822 27.4629 10.8955 28.1896C10.8439 27.5867 10.942 27.1338 11.0901 26.7305C10.6473 26.603 10.7294 26.3276 10.5064 26.1468C10.4582 26.3643 9.96393 26.6332 9.82551 26.4387C10.0541 25.6296 10.6744 25.2124 10.9928 24.4929C10.8116 24.3999 10.6678 24.7844 10.6037 24.4929C10.7689 23.4908 11.8626 23.4172 11.9656 22.3529C9.57219 23.9741 7.49332 26.8247 8.2691 30.8159C8.46628 31.83 9.23476 32.8329 9.72823 33.7341C10.2622 34.7091 11.1296 35.1554 11.771 35.8742C13.0259 37.2803 14.0761 39.49 14.4948 41.1271C14.6123 41.5788 14.3468 43.3778 14.3162 43.7596C14.2856 44.1414 14.0108 44.2024 13.9956 43.729C13.983 43.3345 13.7261 41.3703 13.6412 40.7277C13.6438 40.4525 13.4766 40.111 13.4249 39.9598C12.9963 38.7102 11.8061 37.5603 11.1876 36.7497C11.0903 36.7497 10.993 36.7497 10.8957 36.7497C11.7939 37.9762 12.8514 39.4915 13.2002 40.9986C13.2006 41.0079 13.2002 41.0171 13.2016 41.0266C13.2474 41.332 13.3238 42.752 13.3238 42.752C13.3238 42.752 13.3238 42.752 13.2016 42.7368C13.0794 42.7216 12.316 40.935 12.316 40.935L12.3042 40.9376C11.5988 39.6481 10.9979 38.2538 9.82551 37.4306C10.0663 38.479 11.9058 39.7298 11.4792 41.1271C11.4792 41.1271 11.3694 41.6066 11.3082 41.5914C11.247 41.5762 10.9928 41.0298 10.9928 41.0298C10.184 39.731 9.81538 37.9918 8.6582 37.0413C8.91375 38.605 10.2564 39.5891 10.2146 41.1269L10.1173 41.2248L9.90901 41.0394C9.91387 41.0357 9.91813 41.0337 9.92299 41.0296C8.7419 40.1047 8.64462 36.8184 7.29654 36.0686C7.63234 37.1601 8.48006 38.2567 8.46385 39.3759C7.48866 38.8269 7.82994 36.9619 6.71289 36.5549C6.89386 37.4118 7.42057 37.9223 7.49109 38.8896C7.34579 38.9864 6.75038 38.91 6.61561 38.695C6.59048 38.2662 6.46017 37.9425 6.51833 37.4304C5.93914 37.4349 6.24272 38.3221 6.03195 38.695C5.6923 38.7832 5.25557 38.7743 4.89038 38.8365C4.8691 38.8233 4.85431 38.815 4.85431 38.815C4.85431 38.815 3.57635 39.1088 3.38483 39.7559C3.19332 40.403 3.19312 40.4028 3.19312 40.4028C3.19312 40.4028 3.0012 41.285 2.74565 41.6378C2.4901 41.9906 2.4901 42.5788 1.91496 41.4615C1.34001 40.344 1.26949 39.673 1.26949 39.026C1.26949 38.3789 1.65434 37.0413 1.65434 37.0413C1.65434 37.0413 1.49404 36.959 1.65434 37.0413C1.77897 36.7043 1.79822 36.2848 1.94617 35.9715C2.67654 34.4228 3.81021 33.3929 5.05899 32.7612C5.24422 31.5667 5.45438 30.2758 5.25354 28.9674C5.32529 28.7473 5.62441 28.7544 5.64265 28.481C5.4106 28.3564 5.11553 28.2948 5.05899 27.9949C5.22862 27.5968 5.78005 28.1509 5.93448 27.703C5.75897 27.4894 5.23186 27.6275 5.25354 27.2169C5.38325 27.0547 5.68622 27.0657 5.8372 26.925C5.85969 26.5136 5.27948 26.7047 5.4481 26.1468C5.77478 26.117 6.29136 26.2767 6.2263 25.855C5.98514 25.5974 5.62117 26.0269 5.54537 25.5634C5.50525 25.1341 5.57172 24.8115 5.73992 24.5906C6.22488 24.9321 6.64743 24.897 7.49089 24.9797C7.08476 24.4986 5.76404 24.4528 6.12903 23.5206C6.81725 23.5781 6.82455 24.3168 7.68544 24.2015C7.17697 23.7372 6.57244 23.369 6.42086 22.5478C7.40638 22.0116 7.34173 23.8037 8.2691 23.326C7.91384 22.8812 7.03207 22.5626 7.58817 21.7696C7.44732 21.5214 7.05619 21.5232 7.19906 20.9914C7.46677 20.7221 7.60539 21.0788 7.87999 21.0887C7.86398 20.6424 7.52494 20.3287 7.87999 20.0187C8.26687 19.9887 8.3686 20.2434 8.75548 20.2132C8.92774 19.9011 7.98943 19.5073 8.56092 19.0459C8.89369 19.1347 9.16363 19.2862 9.53368 19.3377C9.54017 20.077 9.93677 20.4262 10.6037 20.505C10.0857 19.7522 9.11682 18.9527 9.14458 17.9759C9.59002 18.0168 9.76917 18.324 10.2146 18.365C10.1271 17.99 9.6642 17.4319 10.1173 17.1004C10.4497 17.1898 10.5295 17.5312 10.9928 17.4895C11.2757 16.9358 10.7263 16.3495 11.2846 16.0303C11.558 16.1497 11.8249 16.782 12.2574 16.4194C12.0685 16.1337 11.7994 15.5235 12.1601 15.2521C12.438 15.4607 12.6504 15.7347 13.2302 15.6412C13.49 15.3056 12.9882 14.4895 13.3274 14.0848C13.794 14.2992 13.8371 14.937 14.592 14.863C14.7262 14.2157 13.8886 13.7036 14.4948 13.2093C14.9957 13.292 14.8678 14.0034 15.5648 13.8903C15.552 13.4189 14.9777 12.9122 15.4675 12.5284C15.6359 12.9112 15.9405 13.1577 16.4403 13.2093C16.7761 12.7607 16.0712 11.8228 16.8294 11.7502C16.9303 12.2005 17.181 12.5011 17.7049 12.5284C17.9827 12.148 17.2623 11.6144 17.6076 11.1666C17.9416 11.3483 18.2964 11.9285 18.6776 11.7502C18.6515 11.3716 18.158 11.0464 18.5803 10.7774C19.0452 10.8638 18.9084 11.5516 19.4558 11.5557C19.8542 11.365 19.2003 10.4645 19.8449 10.3883C20.2059 10.6113 19.9155 11.4853 20.6231 11.3611C20.7149 10.8468 20.9229 10.0055 21.4013 10.1938C21.2485 10.771 21.7031 11.2863 21.4986 12.042C22.385 12.0246 21.6338 13.1173 22.3741 13.3066C22.3149 12.7977 22.0827 12.4534 22.2768 11.9448C22.0225 11.9721 21.8585 11.9093 21.8877 11.6529C22.3255 11.1708 21.8077 10.2943 22.5686 10.0965C22.8422 10.76 22.962 11.1536 22.8605 12.042C22.9195 12.21 23.3219 12.0345 23.3469 12.2366C23.4072 12.5977 23.1888 13.2377 23.5414 13.3066C24.0233 12.9799 23.5169 12.4471 23.8332 11.7502C23.5432 11.7241 23.2409 12.0224 23.1523 11.6529C23.3546 10.9552 23.1043 10.2629 23.736 9.90196C23.9386 10.056 23.7688 10.5825 23.9305 10.7774C24.4684 10.6652 24.3857 9.41883 25.1951 9.90196C24.5152 10.5608 24.1484 11.7113 25.0005 12.4311C27.0174 12.9396 28.4247 13.7843 29.9614 14.9603C31.3658 16.0348 32.4097 17.0313 33.0742 18.2677C31.7063 17.4629 30.8784 16.1185 29.475 15.3494C30.2184 16.7135 31.8798 17.16 32.4906 18.6568C30.9289 18.4179 28.6425 16.9812 26.8486 17.7813C29.2793 18.0186 31.546 18.5492 33.5606 19.6295C33.575 19.3422 33.2777 18.9429 33.6577 18.8513C34.7974 20.5326 35.7793 22.8903 37.8406 23.326C37.0599 22.3397 35.4129 21.3035 34.7279 19.8241C34.4385 19.1993 33.9082 17.7452 34.4361 17.3922C34.9482 18.1755 35.0564 19.2208 35.6034 19.9214C36.137 20.6045 37.081 20.857 37.5491 21.6723C38.119 22.665 38.619 23.2294 40.0781 23.1315C40.5862 24.6731 42.5921 25.7318 42.0238 27.7032ZM41.6347 24.007C41.0902 24.1494 40.7791 23.693 41.0511 23.326C41.5407 23.2579 41.6923 23.5279 41.6347 24.007Z" fill="white"/>
</g>
<defs>
<clipPath id="clip0">
<rect width="50" height="45.4676" fill="white"/>
</clipPath>
</defs>
</svg>
