<svg width="184" height="102" viewBox="0 0 184 102" fill="none" xmlns="http://www.w3.org/2000/svg">
<path d="M104.49 0C75.7501 0 50.6514 17.4579 36.6821 32.3946L8.7851 11.3411C4.91025 8.415 -0.874876 11.5324 0.1154 16.014L7.83955 51L0.112205 85.9892C-0.87807 90.4708 4.90706 93.585 8.78191 90.6621L36.6789 69.6086C50.6482 84.5421 75.7501 102 104.49 102C148.401 102 184 61.2 184 51C184 40.8 148.401 0 104.49 0ZM132.419 58.65C128.187 58.65 124.753 55.2234 124.753 51C124.753 46.7734 128.187 43.35 132.419 43.35C136.655 43.35 140.086 46.7734 140.086 51C140.086 55.2234 136.652 58.65 132.419 58.65Z" fill="#7A658F"/>
</svg>
