<svg style="fill-opacity: .23;" height="900" viewBox="0 0 1400 700" width="1800" xmlns="http://www.w3.org/2000/svg" xmlns:xlink="http://www.w3.org/1999/xlink" fill-opacity=".3">
  <defs>
    <pattern id="e" height="350" patternUnits="userSpaceOnUse" width="350">
      <use x="-350" xlink:href="#a" y="-350"/>
      <use xlink:href="#a" y="-350"/>
      <use x="350" xlink:href="#a" y="-350"/>
      <use x="-350" xlink:href="#a"/>
      <use xlink:href="#a"/>
      <use x="350" xlink:href="#a"/>
      <use x="-350" xlink:href="#a" y="350"/>
      <use xlink:href="#a" y="350"/>
      <use x="350" xlink:href="#a" y="350"/>
    </pattern>
    <pattern id="f" height="350" patternUnits="userSpaceOnUse" width="350">
      <use x="-350" xlink:href="#b" y="-350"/>
      <use xlink:href="#b" y="-350"/>
      <use x="350" xlink:href="#b" y="-350"/>
      <use x="-350" xlink:href="#b"/>
      <use xlink:href="#b"/>
      <use x="350" xlink:href="#b"/>
      <use x="-350" xlink:href="#b" y="350"/>
      <use xlink:href="#b" y="350"/>
      <use x="350" xlink:href="#b" y="350"/>
    </pattern>
    <pattern id="g" height="350" patternUnits="userSpaceOnUse" width="350">
      <use x="-350" xlink:href="#c" y="-350"/>
      <use xlink:href="#c" y="-350"/>
      <use x="350" xlink:href="#c" y="-350"/>
      <use x="-350" xlink:href="#c"/>
      <use xlink:href="#c"/>
      <use x="350" xlink:href="#c"/>
      <use x="-350" xlink:href="#c" y="350"/>
      <use xlink:href="#c" y="350"/>
      <use x="350" xlink:href="#c" y="350"/>
    </pattern>
    <pattern id="h" height="350" patternUnits="userSpaceOnUse" width="350">
      <use x="-350" xlink:href="#d" y="-350"/>
      <use xlink:href="#d" y="-350"/>
      <use x="350" xlink:href="#d" y="-350"/>
      <use x="-350" xlink:href="#d"/>
      <use xlink:href="#d"/>
      <use x="350" xlink:href="#d"/>
      <use x="-350" xlink:href="#d" y="350"/>
      <use xlink:href="#d" y="350"/>
      <use x="350" xlink:href="#d" y="350"/>
    </pattern>
    <path id="b" d="M126 102h-20V52h5a7 7 0 007-7v-5a7 7 0 00-7-7H98v-3a2 2 0 00-1-1l-9-8V11a2 2 0 00-1-2H73a2 2 0 00-2 2v9H27v-9a2 2 0 00-2-2H11a2 2 0 00-1 2v10l-9 8a2 2 0 00-1 1v25a2 2 0 001 1l9 8v10a2 2 0 001 2h14a2 2 0 002-2v-9h44v9a2 2 0 002 2h14a2 2 0 001-2V64l6-6v44h-5a2 2 0 00-2 1v8a2 2 0 002 2h5v4a2 2 0 002 2h8a2 2 0 002-2v-4h20a2 2 0 002-2v-8a2 2 0 00-2-1zm-15-66a3 3 0 013 4v5a3 3 0 01-3 3H98V36zM43 23h4v39h-4zm-3 39h-5V23h5zm11-39h4v39h-4zm7 0h5v39h-5zM4 54V31l6-5v33zm19 18H13V13h10zm4-49h5v39h-5zm39 39V23h5v39zm19 10H75V13h10zm3-13V26l6 5v23zm3 51v-5h3v5zm11 5h-4V52h4zm23-5h-19v-5h19z" transform="translate(134 203) scale(.46875)"/>
    <path id="c" d="M62 43a4 4 0 00-2-4V6a1 1 0 000-1l-2-2a1 1 0 00-2 0L19 39l-8-9a3 3 0 00-5 0 3 3 0 000 5l9 8L2 55a1 1 0 000 2l4 4a1 1 0 002 0l9-10a7 7 0 008 0 5 5 0 007 0v-1l1 2a1 1 0 002 0l5-5a1 1 0 000-2l-4-4a1 1 0 00-2 0l-5 5a1 1 0 000 2l2 1h-1a3 3 0 01-4 1 7 7 0 001-7c2 0 5 0 7-2 1-2 2-4 1-7 2 0 5 0 7-2 1-2 2-4 1-7 2 0 5 0 8-3a7 7 0 001-6 6 6 0 004 0 6 6 0 002-2v25a4 4 0 00-2 4 4 4 0 002 4v2a1 1 0 001 1 1 1 0 11-1 1h-2a3 3 0 104-3v-1a4 4 0 002-4zm-27 0l3 3-4 4-3-3zM8 33a1 1 0 011-1l6 5-2 2zm6 7l2-2 2 2-2 2zM7 59l-3-3 14-14 3 3zm11-9l3-3 3 3a5 5 0 01-6 0zm7-1l-3-3 3-3a5 5 0 010 6zm7-10c-1 2-3 2-5 2l6-6c1 2 0 3-1 4zm8-8l-4 1 5-6c1 2 0 4-1 5zm9-10a7 7 0 01-5 2l6-6a6 6 0 01-1 4zM22 44l-3-3L57 5l1 1zm33-30a4 4 0 01-3 0l6-5c0 2-1 4-3 5zm4 31l-1-2 1-2 1 2-1 2z" transform="translate(181 52) scale(.9375)"/>
    <g id="a" transform="translate(12 2) scale(.9375)">
      <path d="M13 43a21 21 0 0021 4 1 1 0 001-1 1 1 0 00-1-1l-6-7a1 1 0 00-2 0 19 19 0 01-8 2 19 19 0 01-3 0 19 19 0 015-11l4 4a1 1 0 001 0 7 7 0 000-9 1 1 0 10-1 1 5 5 0 010 6l-3-3 1-1a1 1 0 10-1-2 22 22 0 00-2 2 21 21 0 00-6 13A19 19 0 0125 8a15 15 0 005 11 1 1 0 001 1 1 1 0 001-1 1 1 0 000-1 13 13 0 01-5-10 19 19 0 0116 9l-6 3a5 5 0 01-3 1 21 21 0 00-6 1 1 1 0 001 2 19 19 0 015-1 7 7 0 003-1l8-4a1 1 0 000-1A21 21 0 0026 6h-1l-3-3a1 1 0 00-1-1A21 21 0 009 37a21 21 0 004 6zm14-3l5 5a19 19 0 01-17-3 20 20 0 0012-2zM5 21A19 19 0 0121 4l1 3A21 21 0 006 24a21 21 0 000 5 19 19 0 01-1-8z"/>
      <circle cx="33" cy="12" r="1"/>
      <path d="M51 19v15a6 6 0 01-12 0v-3l2 2a1 1 0 102-2l-4-3a1 1 0 00-1 0 1 1 0 00-1 1v5a8 8 0 0016 0V19a4 4 0 000-8V3a1 1 0 00-2 0v8a4 4 0 000 8zm1-6a2 2 0 11-2 2 2 2 0 012-2zM20 13a1 1 0 00-1 1 5 5 0 004 6 1 1 0 000-2 3 3 0 01-2-4 1 1 0 00-1-1zM19 22a1 1 0 00-1-1 3 3 0 01-3-2 1 1 0 00-2 0 5 5 0 005 4 1 1 0 001-1zM12 26a1 1 0 00-2 0 5 5 0 005 4 1 1 0 000-2 3 3 0 01-3-2zM6 54a5 5 0 003-2 3 3 0 013 0 5 5 0 007 0 3 3 0 013 0 5 5 0 007 0 3 3 0 013 0 5 5 0 007 0 3 3 0 013 0 5 5 0 007 0 3 3 0 013 0 5 5 0 007 0 3 3 0 012 0 1 1 0 100-2 5 5 0 00-4 1 3 3 0 01-3 0 5 5 0 00-7 0 3 3 0 01-3 0 5 5 0 00-7 0 3 3 0 01-3 0 5 5 0 00-7 0 3 3 0 01-3 0 5 5 0 00-7 0 3 3 0 01-3 0 5 5 0 00-7 0 3 3 0 01-3 0 1 1 0 00-2 1 5 5 0 003 2zM62 56a5 5 0 00-7 0 3 3 0 01-3 0 5 5 0 00-7 0 3 3 0 01-3 0 5 5 0 00-7 0 3 3 0 01-3 0 5 5 0 00-7 0 3 3 0 01-3 0 5 5 0 00-7 0 3 3 0 01-3 0 5 5 0 00-7 0 3 3 0 01-2 0 1 1 0 000 3 4 4 0 004-2 3 3 0 013 0 5 5 0 007 0 3 3 0 013 0 5 5 0 007 0 3 3 0 013 0 5 5 0 007 0 3 3 0 013 0 5 5 0 007 0 3 3 0 013 0 5 5 0 007 0 3 3 0 013 0 1 1 0 002-1z"/>
    </g>
    <g id="d">
      <path d="M41 16c3 0 4-3 4-6s-1-4-4-4-4 1-4 4 1 6 4 6zm0-8c2 0 2 0 2 2l-2 4-2-4c0-2 0-2 2-2z" transform="translate(286 156) scale(.9375)"/>
      <path d="M29 62c10 0 15-7 15-13V32a3 3 0 001-5 3 3 0 00-1-5v-2l1-2c2-2 4-5 4-8 0-5-3-8-8-8a8 8 0 00-7 5c-2 5 0 8 3 11l1 2v2a3 3 0 00-1 5 3 3 0 001 5v17c0 5-5 7-9 7s-8-4-8-9v-4h3a1 1 0 001-2l-8-8a1 1 0 00-2 1v13c0 8 6 15 14 15zm6-54a6 6 0 016-4c4 0 6 2 6 6l-3 7-2 2v3h-2v-3l-2-2c-2-3-4-6-3-9zm4 16h4a1 1 0 010 2h-4a1 1 0 010-2zm0 4h4a1 1 0 010 2h-4a1 1 0 010-2zm-22 8l5 5h-2a1 1 0 00-1 1v5c0 6 4 11 10 11s11-4 11-9V32h2v17c0 7-7 11-13 11-7 0-12-6-12-13z" transform="translate(286 156) scale(.9375)"/>
    </g>
  </defs>
  <rect fill="#fff" height="100%" width="100%"/>
  <rect fill="url(#e)" height="100%" width="100%"/>
  <rect fill="url(#f)" height="100%" width="100%"/>
  <rect fill="url(#g)" height="100%" width="100%"/>
  <rect fill="url(#h)" height="100%" width="100%"/>
</svg>
