<?xml version="1.0" encoding="UTF-8"?>
<svg xmlns="http://www.w3.org/2000/svg" width="22" height="20" viewBox="0 0 512 512"><g><path d="M502.95,492.03,376,269.88V248a8,8,0,0,0-16,0v16H152V248a8,8,0,0,0-16,0v21.88L9.05,492.03A8,8,0,0,0,16,504H496a8,8,0,0,0,6.95-11.97ZM136,488H29.79L136,302.12Zm16,0V302.12L258.21,488Zm124.64,0L157.79,280H363.36L482.21,488Z"/><path d="M207.45,136.16a56,56,0,0,0-102.04-23.23A48,48,0,1,0,96,208H204a36,36,0,0,0,3.45-71.84ZM204,192H96a32,32,0,0,1,0-64,31.685,31.685,0,0,1,10.57,1.8,8.012,8.012,0,0,0,9.78-3.92A39.994,39.994,0,0,1,192,143.91c0,.11-.01.23-.01.34a8.012,8.012,0,0,0,9.14,7.96A20,20,0,1,1,204,192Z"/><path d="M384,136a48,48,0,1,0-48-48A48.055,48.055,0,0,0,384,136Zm0-80a32,32,0,1,1-32,32A32.036,32.036,0,0,1,384,56Z"/><path d="M384,32a8,8,0,0,0,8-8V16a8,8,0,0,0-16,0v8A8,8,0,0,0,384,32Z"/><path d="M376,152v8a8,8,0,0,0,16,0v-8a8,8,0,0,0-16,0Z"/><path d="M312,96h8a8,8,0,0,0,0-16h-8a8,8,0,0,0,0,16Z"/><path d="M440,88a8,8,0,0,0,8,8h8a8,8,0,0,0,0-16h-8A8,8,0,0,0,440,88Z"/><path d="M333.088,48.4A8,8,0,1,0,344.4,37.088l-5.657-5.656a8,8,0,1,0-11.313,11.313Z"/><path d="M434.912,127.6A8,8,0,1,0,423.6,138.912l5.657,5.656a8,8,0,0,0,11.313-11.313Z"/><path d="M333.088,127.6l-5.656,5.657a8,8,0,1,0,11.313,11.313l5.657-5.656A8,8,0,1,0,333.088,127.6Z"/><path d="M429.255,50.745a7.976,7.976,0,0,0,5.657-2.343l5.656-5.657a8,8,0,1,0-11.313-11.313L423.6,37.088a8,8,0,0,0,5.657,13.657Z"/></g></svg>
