<svg width="234" height="218" fill="none" xmlns="http://www.w3.org/2000/svg">
  <g filter="url(#filter0_d)">
    <path fill-rule="evenodd" clip-rule="evenodd" d="M197.5 23.5l-.3.4h-.7l-.5-.5h-.4l-.5.9h-.8l-.6.2-.7.2-.1.6-.3.5-.2.2-.3.3.4.4v.3l.4.2v.5h.4l.2.7h.6l.4-.3.5.5v.7l.5.5.1.3-.7.1-.1.8.2.6h.5l.4.5.2.2.3.7.5.6.1.6.3.4-.1.3.5.4.6.1.2.6.3.8-.5.2.2.5v.9l-1 1h-.2l-.1 1.7-.3.4v.5l-.7.2h-.8c0 .2-.2.3-.3.5l-.2.5-.5-.2-1.2.8c-.2 0-.4.2-.5.3h-.8l-.3.7-.4.4-.5-.5-.5.3-1 .4-.4.7-.4.5h-1l-.2.5-1 .8-.7.9-.6.3-.4.1-.5.5h-1l-.5.3-.2.5-.4.5h-.4l-.5-.8s0 0 0 0h-.4l-.4.3h-.6l-.4.7-.2.6-.3.4c0 .2-.2.3-.3.4h-1c0-.1 0-.3-.2-.5l-.5-.3-.5-.2-.8-.1-.6-.5-.6-.1-.4.6h-2l.4.6.2.6.1.8.3.3.2.4.5.6.2.6.4.4v.3l-.5.1-.2.4.7.3.2.4-.5.2-.5.3v.6l.1.8-.4.1v.5l.4.2.2.5a1589.7 1589.7 0 00.7.5l-.1.5-.1.4.2.6.2.2V64l.4.5.5.2h.8l.6-.3.3.4.2.5.4.7.3.5h.9l.4-.2v-.1l.2-.2.3-.1.2.4-.4.4-.1.4h-.5l-.1.7h-.5c0 .3.2.6.3.8l.5.6h.7c.4 0 .7.2 1 .3l.4.4v.4l.3.2.1.3.2.2-.2.3-.6.2v1l.5.4h.3v.7l.7.6h.4l.3-.7h.6l.2.8.6-.4.4-.1.9-.2v-.7H187.8l.1.7.2.5-.4-.3h-.2l-.2.3-.1.1v1l.3.5v.7l.7.1 1 .3.8-.2v-.7l.8-.3a259.7 259.7 0 001 .6l-.1.7h-.5l.2.8v1l-.1.3-.4.3.5 1.1.4.5v.3l-.3.3s0 0 0 0l-.2.7h-.6-.1v.2l.4.6.2.2.6.6.5.8.2.3.6.4.2.5-.1.2-.4.1h-.1l-.1.6v.3h.2l.6.2.3.2v.2l-.3.5s-.2.2-.1.3l.1.3.6.5s0 0 0 0l.4.5.6.1.4.2h.8l.8-.5.4.6.4.6.5-.4c.3 0 .6.2.8.3a1624.2 1624.2 0 011.4.7l1.2-.2.2-.5h.8l.6 1 .7.5.7.2v.8l.4 1 .4-.1.5-.4.2-.5.4.6.4.4 1-.2v-.3-.5l.7-.9.1-.2.1-.2.4-.6 1-1.5.8-1 .7-1.3.8-1.1 1-1 .8-.7.6-.7a3 3 0 011-.5l1-.3c.2-.2.4-.4.7-.4h.6l.6-.1.2-.2.2-.2h.3l.5.4h.3c.2 0 .4-.2.5-.3l.3-.3.5-.5c.2-.3.5-.6.9-.8l.4-.3c.2 0 .4 0 .5-.2l.2-.4.3-.3.5-.4s.2 0 .2-.2v-.1c.2-.6.2-1 .2-1.6v-1.8l-.1-.5h-.2l-.3-.2V72.7a89.1 89.1 0 00.3-2.2l.2-.3.3-.2v-.3a2.8 2.8 0 00-.3-1.5l-.6-.7v-.6l-.2-.4-.3-.3-.4-.3v-.3l.1-.3.2-.2v-.7l.2-.1.2-.2.3-.6.3-.4v-.3l-.4-.2a1 1 0 01-.3-.1l-.5-.5c-.1 0-.2 0-.3-.2v-.3l-.1-.9-.2-.2-.4-.3-.5-.6-.3-.3-.1-.4V58l-.4-1-.1-.8s0-.2-.2-.2h-.2l-.3-.1v-.2c-.2-.3-.1-.6-.1-1 0-.2 0-.6-.2-.8 0-.4-.3-.6-.4-1 0-.2 0-.4-.2-.7l-.1-.2-.3-.4-.5-1v-1l-.2-.9-.3-.2-.2-.3-.1-1.1-.1-1-.4-.8c-.1-.3-.3-.6-.3-1v-1-.9c0-.2-.1-.3-.3-.4l-.6-.5-.2-.6v-.6l.3-.7c.1-.1.2-.3.1-.4v-.4l-.4-.4c0-.4 0-.8-.2-1.3l-.5-.5v-.2-.5-.3l.4-.4v-.4l-.3-.2-.2-.2-.3-.4v-.4l.4-.6.3-.8a16.7 16.7 0 00.1-1.7v-.2c-.3-.3-.4-.7-.6-1v-1a1.6 1.6 0 00-.7-1h-1a.6.6 0 01-.2-.3l-.2-.5-.6-1.2-.5-.5-.3-.3-.3-.3h-.3l-1.3.2a1 1 0 01-.4 0 .8.8 0 01-.3-.4l-.3-.4-.2-.4h-.2l-.2.1h-.2a.7.7 0 01-.4-.2v-.3-.5l-.2-.3h-.2c-.2 0-.3.2-.4.3l-.3.3-.4.3h-.5a.6.6 0 01-.4-.4V22v-.1l.3-.3v-.1l-.2-.2h-.6l-.3-.3-.1-.3v-.2l.2-.4-.1-.2h-.7l-.5-.2-.8-.1-.5-.3-.6-.3h-.3a1 1 0 00-.4.3l-.4.7-.1.3-.4.4h-.2V21.2l-.3.3.2.4s0 0 0 0v.8h-.4v.3h-.6l-.5.5h0z" fill="#A7991E" stroke="#E5E5E5" stroke-width=".4" stroke-linecap="round" stroke-linejoin="round"/>
    <path fill-rule="evenodd" clip-rule="evenodd" d="M172 51.5h-.2l-1.1-.1-.1.6h-.4l-.3.3h-1l-.5 1-.3.3-.8-.1-.3.5h-1.3l-.6-.4h-.3l-.2.4h-.5l-.3.4h-.5l-.1.3h-.5l-1.2 1.3-.5.2c-.2 0-.3.2-.4.3 0 0 0 .2-.2.3 0 0 0 0 0 0h-.6l-.1-.3-.4-.3-.5-.2c0-.1 0-.2-.2-.3l-.1.1a1 1 0 01-.5.3H157c-.2 0-.4.2-.5.4l.4.5v.5l-.4.1h-.6l-.3.4-.4.3-.3-.3-.6-.2-.4-.2h-.8l-.6.1-.6.3-.2.3v.7l-.5.4-.3.4h-.5l-.3.2-.3.5-.4-.2-.2-.3a45.6 45.6 0 00-.4.7H148l-.6-.4-.6-.2-.4.1-.4.7-.4.4-.3.5-.3.5v.8c.2 0 .2.2.3.2l-.1.7-.5-.3-.4-.4c-.2 0-.3.2-.5.3h-.4l-.4.2h-.4l-.8-.2-.4-.4h-.8l-.3-.2-.3.5-.4.1-.4-.4-.2-.6h-.4l-.4.6s0 0 0 0h-.7l-.2-.5-.3.1-.1.5-.2.3h-.6l-.3-.3-.8-.8h-.5v-.7a69.3 69.3 0 01.3-.8h-.4l-.6.1-.8.8-.4.4.2.3v.4l-.3.5h-.4l-.3-.3h-.8V63l-.2-.4V62l-.4-.4.4-.5-.4-.6h-.8l-.2-.4v-.6l.6-.6.2-1h-.8l-.1-1.2h-1.7-.3-.2l-.2.1h-1l-.1-.5-.4-.6-.3-.4h-.5l-.5.8-.3-.2v-.7h-.9l-.2-.4v-.4l-.5-.5-.2.5h-.6l-.1-.4-.5.2-.1.6-.2.2h-.3l-.3-.3h-.2l-.2-.6.2-.6V53l-.2-.5v-.8l-.6-.3-.6-.8.5-.4c.1 0 .2 0 .3-.2v-.3l-.4-.5h-.2l-.3-.1.2-.8-.5-.3-.8-.2-.5-.3.7-.4v-.6l.6-.3h.7l.2-.6.2-.3v-.7-.7l.8-.7.4-.3v-.4l.6-.1.1-1.1.5-.6h-.4v-.5-.6l.4-.1.8.5h.7l.6.6.6-.1.2.5.3-.1.7-.6-.6-.5.3-.5.5-.3v-.7-.2l.3-.2v-.5l.3-.1h.4v-.1-.9l.4-.6.1-.5-1.4-.2h-.8l-.5.5h-.5l-.4.4-.5-.1-.3-.6V35v-.4-.1l.1-.2.3-.3.4-.4-.3-.2-.7-.1h-.7V33l-.5-.2-.6.3h-.3l-.1-.1v-.3-.3l.4-.4v-.1l-.2-.1-.7-.3-.4-.2-.5-.5.8-.4-.2-.3c0-.2-.2-.3-.3-.5v-.4-.2l.3-.1.5-.1v-.1l.2-.3V28l-.4-.4.4-.6h.7l.6-.4v-1l-.5-.5a353.6 353.6 0 00-1-.7V24l.7-.1c0-.1 0 0 0 0h.5l1 .3h.7l.2-.3h.1l.7-.4a9.7 9.7 0 011.1-1h.3l.2-.2a3 3 0 011-.5h.2c.2-.2.5-.3.7-.3h.2v.2l.2.1.2-.2.2-.1.6-.1.2-.2.5-.7.3-.4.5-.7.5-.7c0-.2.2-.5.4-.6.1-.2.3-.3.6-.4h.6c.3 0 .5.2.7.3l.5.1 1.4.1 2 .3h.2l.3.2.4.3h3.2l.1.3h2.3l2.1.3.8.2.6.2 2 .2h.9l.2.1.3.3.4.2h.2l.2-.3c0-.1 0-.2.2-.2h.8l.2.2.3.3h2.5l5.3.6a41.1 41.1 0 013.4.4l.8.2h.3l.4-.3h.4l.8.2.6-.1a3.3 3.3 0 011.2.3l.3.3H169.4l1-.3H174l3-.3 8-.1.4-.2.4-.2 5.9.1h.2l.3-.4h.1c1.3 0 2.7.2 4 .1h.3c.1-.1.2-.3.4-.3h2s0 0 0 0v.5l-.2.3.2.4s0 0 0 0v.8h-.4v.3h-.6l-.5.5-.1.1-.2.3h-.7l-.5-.5h-.4l-.5.9h-.8l-.6.2-.7.2-.1.6-.3.5-.2.2-.3.3.4.4v.3l.4.2v.5h.4l.2.7a796.7 796.7 0 011-.3l.5.5v.7l.5.5.1.3-.7.1-.1.8.2.6h.5l.4.5.2.2.3.7.5.6.1.6.3.4-.1.3a1946 1946 0 001 .5l.3.6.3.8-.5.2.2.5v.9l-1 1h-.2l-.1 1.7-.3.4v.5l-.7.2h-.8c0 .2-.2.3-.3.5l-.2.5-.5-.2-1.2.8c-.2 0-.4.2-.5.3h-.8l-.3.7-.4.4-.5-.5-.5.3-1 .4-.4.7-.4.5h-1l-.2.5-1 .8-.7.9-.6.3-.4.1-.5.5h-1l-.5.3-.2.5-.4.5h-.4l-.5-.8s0 0 0 0h-.4l-.4.3h-.6l-.4.7-.2.6-.3.4c0 .2-.2.3-.3.4h-1c0-.1 0-.3-.2-.5l-.5-.3-.5-.2-.8-.1-.6-.5-.6-.1-.4.6H172zm27-30.9a1.3 1.3 0 000 0zm.2 0h0zm0 0h0zm0 0s0 0 0 0v0zm0 0s0 0 0 0v0z" fill="#A7991E" stroke="#E5E5E5" stroke-width=".4" stroke-linecap="round" stroke-linejoin="round"/>
    <path fill-rule="evenodd" clip-rule="evenodd" d="M121.4 23.8s0 0 0 0v0zm0 0h0zm0 0c-.1 0-.1 0 0 0v0zm-.1 0h0zm0 0h0zm0 0s0 0 0 0v0zm0 0s0 0 0 0v0zm-.1 0s0 0 0 0v0zm0 0s0 0 0 0v0zm0 0h0zm0 0h-.1 0zm-.1 0s0 0 0 0v0zm0 0s0 0 0 0v0zm0 0h0zm0 0s0 0 0 0v0zm0 0h0zm0 0h0zm-.1 0s0 0 0 0v0zm0 0s0 0 0 0v0zm0 0h0zm0 0h0zm0 0s0 0 0 0v0zm0 0h0zm-.1 0h0zm0 0h0zm-.3 0l-.5-.2a.8.8 0 01-.3-.3l-.2-1 .1-.6.5-.5h.7l.8-.1c.2-.1.5-.3.8-.3l.6-.1h.4l1.3-.6 1.2-.5 1.2-.8 1-.5.5-.5v-.4c0-.2-.1-.3-.2-.3h-.2a1 1 0 00-.5.2l-.5.5-1.4.9-.7.5-2 .7-1.5.5-1 .3-2 .1H117l-1 .4-.8.2h-1-.4l-.4-.4-.4-.3h-.2l-.3.2-.1.2-.4.2h-1l-.4-.3s-.1-.2-.3-.2c-.2-.2-.5-.2-.7-.3l-.5-.1-.3-.2h-1a.5.5 0 01-.4-.3 2 2 0 01-.2-.4v-.2l-.1-.1-.6-.1-.6-.4h-.5l-.2-.2-.1-.3c-.2 0-.4 0-.5-.2a1 1 0 01-.3-.5l-.2-.9v-.5-.2-.6l-.1-.3-.3-.2c-.1 0-.3 0-.4-.2 0 0-.1 0 0-.2l.1-.2.3-.2h.3v-.1l-.4-1v-.2l-.4-.5-.3-.7v-.4s-.2-.1-.2 0h-.4-.1a.9.9 0 01-.3-.4V10l.1-.8V9h-.2l-.3-.2-.2-.3-.2-.3h-.2l-.3-.2v-.2-.6-.7c0-.2 0-.3.2-.4l.2-.1.5.1.4.2 1 .4c.2 0 .4.2.5.4l.7.4.4.2 1 .4.8.6.3.3.3.3.6.6.7 1 .5.8.4.3.5.2h.4l.1-.2-.1-.3-.6-.9-.3-.4-.7-.5-.3-.2-.4-.2-.7-.5-.5-.4-1.2-.6-1.4-.8-1.1-.5-.6-.4-.6-.3-.5-.2-1.1-.8-.6-.4-.5-.5-.1-.3H98a1 1 0 00-.3.2c-.2.1-.3.3-.5.3h-.4l-.8-.1h-1.6l-2.6-.1h-.5l-1.4.2h-.1L88 5l-1.2.2a5 5 0 00-1.2.1c-.5.2-1 .5-1.6.6l-1.6.4c-.6 0-1.2.2-1.7.4-.5 0-1 .2-1.4.3h-.6l-1-.2-.8.2a5 5 0 01-.7.2l-1.3.3-.8.5-1.4.7-.9.4-.6.4h-.7l-.2.2v.4l-.4.2-.3.1-.8.7-1 .9-.6.4h-.5c-.3.1-.5.3-.8.3H65l-.6.4-1 .2a18.9 18.9 0 01-.6 0l.3 1v.6l.5.3v.8s0 .1 0 0c0 0 0 0 0 0h.2a4.9 4.9 0 01.5.4l.7.3.3.6.1.4-.4.8.3.6.2.5.1.6H65c-.2 0-.3 0-.4.2l.4.6v.7l-.3.3.2.3.8.1v.6c.2.1.3.2.3.4l.1.7-.8.2-.3.5h-1.5l-.5-.1-.4.4.2.8.5.2v.7l-.4.4.5.2.6.6v.5l.3.4.4.3-.1.6h-.4v.7l.6.2.3.4-.4.5-.3.5-.2.3.3.7v.7h.3c0-.2.2-.3.3-.4h.4l.2.6.6.4.3.4-.5.4.2.5h.7l.7.9h.9v1.5h-.4l-.4-.5H67l-1 .5.2 1 .8.7.2.5.6.2v.5l-1 1-.6.2-.5.4.3.5.5.2V45.5l.4.4-.1 1 .5.5.3.6.4.3-.2 1.2h.6l.1-.5h.5l.3.5-.3.3.2.5 1 .3.5-.3.2-.6.5-.2.6.3.4.3.7-.1.6-.4.8-.1c.4 0 .8 0 1.1.2l.8.7.2.7.6.2h.7l.1-.7.4-.6.2-.4v-1.3c0-.3.2-.5.3-.8l.7-.7h.7l.6.5.1.7h1l.5-.6h.4l.2.5.3.4.6.1v-.8l.8-.2.4-.7.4-.9c0-.4 0-.7-.2-1.1l.5-.3.5-.6.4.2.2.3h1l.9-.7.3-.2v-.5l-.5-.2v-.3L88 42l.3-.4c.2 0 .3.2.4.3h.6l.6-.1.3.6.7.2.4.4v.3l.4-.1.4-.5.6-.6.2-.3v-.7l.4-.1.5.7h.4l.3-.4c0 .2.2.3.3.4l.2.4.8.2.3.5.4-.5h1l.2.2-.1.6-.4.4.3.6h.5l.6-.3.6.6h2.1l.6-.4v-.6l.5.5h.7v.3c0 .4.2.7.4 1v.1l.6.1.4-.7.4-.2h.7l.5-.6.6-.1.5.3.5.5.4-.3.2-.4h.8v.5l-.6.1-.6 1.2.4.8v.5l1 .1h.6c.2 0 .3.2.5.3l.7.2h.1s0 0 0 0l.2-.2a1.5 1.5 0 01.5 0v1l.5-.4.8-.3.5-.4.7.3 1-.1h1.2s0 0 0 0h-.1l.7-.4v-.6l.6-.3h.7l.2-.6.2-.3v-.7-.7a574.7 574.7 0 001.8-1.5l.1-1.1.5-.6h-.4v-.5-.6l.4-.1.8.5h.7l.6.6.6-.1.2.5.3-.1.7-.6-.6-.5.3-.5.5-.3v-.7-.2l.3-.2v-.5l.3-.1h.4v-.1-.9l.4-.6.1-.5-1.4-.2h-.8l-.5.5h-.5l-.4.4-.5-.1-.3-.6V35v-.4-.1l.1-.2.3-.3.4-.4-.3-.2-.7-.1h-.7V33l-.5-.2-.6.3h-.3l-.1-.1v-.3-.3l.4-.4v-.1l-.2-.1-.7-.3-.4-.2-.5-.5.8-.4-.2-.3c0-.2-.2-.3-.3-.5v-.4-.2l.3-.1.5-.1v-.1l.2-.3V28l-.4-.4.4-.6h.7l.6-.4v-1l-.5-.5-.6-.3-.4-.4V24l.7-.1s0 0 0 0zM15.2 82.2l.1.3.3.2v.4h.4l.2.3v.4l-.2.5-.2.1-.2.1v.2 1.2l.3.2.3.2c.1.1.1.3 0 .4 0 0-.1.2-.3.2h-.1l-.2.2-.3.3-.1.3H15v.2l-.1.2h-.5V88.4s0 .1 0 0h-.2v1.1h-.3v.2.6l.2.2v.1c.2.3 0 .6.1 1H14.5v.5l.3.2.1.2v1.2l.3.1V94.1h.7l.2.2.2.2h.6l.5.3.3.6v.7c0 .2-.2.3-.3.5a1 1 0 000 .6l.3.2v.2c.1.1.2.3.1.5l-.2.2-.4.2-.2.4.1.6.2.2.1.2.1.2.6.5h.1l.2-.1v.4h.4s0 0 0 0v.7l-.1.1c-.1 0-.2 0-.2.2V103l-.4.2v.4l-.1.1-.3.1v1.1l.1.2.3.3v.2l-.1.2h-.2v.6h-.2l-.2.1V107.2s0 0 0 0l-.3.1V107.6h-.4l-.1.2v.5l-.5.5h-.3-.2l-.3.2v.3c-.1.3-.2.6-.1.9l.1.3H16l.2.1.1.5.1.1h.4v2.2l.2.3.3.2.6.3.4.5h.2v.5h.3l.1.2v1.4l.1.2.3.3-.1.3-.6.4-.4.3v.2l-.1.2-.2.2s0 0 0 0c-.1.2-.1.3 0 .4l.2.1v.7l.3.3h1l.3.1.6.6.3.4h.7V121.8h.2l1 .1h.2l.1.4h.1l.2-.1h.1v.5l.3.2v2.4l.1.1h.2v.7c.3 0 .5-.2.7-.3 0 0 0 0 0 0l.1-.7h1.4l.3-.5v-.5l.5-.4.4-.2h.5l.4-.3.1-.7c.3 0 .5.2.7.3l.1.2.1.3.2.2.2-.2h.2l.4-.3.3.4.6.3.1.6h.6v-.6l.3-.2v-.8l.3-.5.5.1.4-.2-.3-.5v-.5l.3-.6h1.6c0 .2.2.3.3.5h.6l.8.4.8.6.4.4.2.8.7-.1v-.7l.6-.1.1-1 .3-.4h.7l.1-1.6h.9l.5-.6h1.1l-.2-1.3.4-.2v-.7l.4-.1v-.6l-.5-.4.2-.3.4-.3v-.8l.3-.6.3-.4.4.3.5.1a119.1 119.1 0 01.8-.5l.3-.7.5-.1.4-.5-.7-.2-.2-.4.4-.6 1 .2.3.6 1 .7.9.3.4-.2.7-.1v.4l-.2.6-.2 1.1h.4l.7-.3.3.7v.2h.4l.2.6h.5l.4-.4h.7l.2-.5.4-.7c.2 0 .4-.2.5-.3v-1l.5-.6.3-.6-.3-1v-.4l-.5-.8-.4-.5-.6-.7-.5-.4-.6-.4-.5.2c-.2.1-.3.3-.4.6l-.1.4-.1.3-.7.1v-.4l-.5-.4-.5-.2h-.6l-.6-.4.6-.5.3-.5-.1-.9v-.6l-.6-.3v-.5h-.4l-.2.6-.5.2-.8.2-.3-1h-.7l-.5-.8.4-.4.7-.1.1-.7-.5-.5-.4-.4-.6-.3-.3.5h-.6l-.5-.3-.6-.4v-.7l.5-.1.4-1v-.5l-.5-.6v-.4l-.3-.5.5-.4v-.5-.6l-.5-.7.3-.6.2-1.2.3-.1-.1-1-.2-.5.3-.3.3-.4-.7-.4-1-.5-.2-.8.1-.7.7.2.3.2h.3v-.8-.6-.4l-1.1-1.2.2-.4.5-.3-.5-.2-.4-.5-.2-.3-.2-.6c0-.2-.2-.4-.3-.5l-.4-.1-.2-.5.3-.1.3-.5-.2-.8.3-.4.3-.4c0-.2 0-.4-.2-.6l-.3-.2s0 0 0 0v-.2l.5-.2h.2l1.1-.2h1l.8-.8-.2-.6-.6-.5v-.9l-.4-.1-.2-.8.5-.4.7-.1.6-.5v-.9l-.2-.5c.2 0 .4-.2.5-.3v-.6l-.3-.6-.2-.3-.1-.8-.7-.4.4-.9.3-.1.2-.6.3-.3-.4-.1.2-.6.5-.5v-.7l-.4-.5-.8-.2-.4-.4-.6-.2-.8.4-.3.8-.8.4-.2.8h-.7l.4.5-.1.6-.4.2-.5.1.1.7-.4.2h-.6l-.4-.2-.4.2-.3.3h-.4l-.5.1-.2-.3h-.8l-.1-.4-.4-.3h-.5l-.5.2-.7.3-.7.5h-.5l-.7.3-.5.7-.5.2h-.6-.4l-.2-.4-.2.3.4.6.3.5v.4l.2.2-.5.5c-.3 0-.6.2-1 .4l-.6.1-.8.5-1 .3-.7.3h-.5l-.4.7-.4-.2-.1-.4-.3-.5-.4-.1-.2.5-.4.3-.4-.2-.1-.6-.3-.2-.7-.4-.4-.1-.4.1v.6c.2 0 .4.2.5.3v.6h-.9l-.3.3v.5l.2.6-.3.4-.4.3-.3.2h-.6L20 79l-.5.4-.2.6c-.2 0-.3.2-.5.3l.1.5v.1h-.5l-.2.6-.6.3-.5-.6-.4-.6a1 1 0 00-.3-.2h-.2c-.2 0-.2.1-.3.2l-.4.5v.4h-.2V82.2l-.1.1z" fill="#A7991E" stroke="#E5E5E5" stroke-width=".4" stroke-linecap="round" stroke-linejoin="round"/>
    <path fill-rule="evenodd" clip-rule="evenodd" d="M23.5 125.4s0 0 0 0v0zm0 0v0zm0 0s0 0 0 0v0zm0 0s0 0 0 0v0zm0 0s0 0 0 0v0zm0 0s0 0 0 0v0zm0 0h.2s0 0 0 0h-.2s0 0 0 0zm.3.7l.2-.1.5-.2v-.7h1.4l.3-.5v-.5l.5-.4.4-.2h.5l.4-.3.1-.7c.3 0 .5.2.7.3l.1.2.1.3.2.2.2-.2h.2l.4-.3.3.4.6.3.1.6h.6v-.6l.3-.2v-.8l.3-.5.5.1.4-.2-.3-.5v-.5l.3-.6h1.6c0 .2.2.3.3.5h.6l.8.4a5544 5544 0 001.2 1l.2.8.7-.1v-.7l.6-.1.1-1 .3-.4h.7l.1-1.6h.9l.5-.6h1.1l-.2-1.3.4-.2v-.7l.4-.1v-.6l-.5-.4.2-.3.4-.3v-.8l.3-.6.3-.4.4.3.5.1a119.1 119.1 0 01.8-.5l.3-.7.5-.1.4-.5-.7-.2-.2-.4.4-.6 1 .2.3.6 1 .7.9.3.4-.2.7-.1v.4l-.2.6-.2 1.1h.4l.7-.3a20.8 20.8 0 01.4 1h.3l.2.5h.5l.4-.4h.7l.2-.5.4-.7c.2 0 .4-.2.5-.3v-1l.5-.6.1-.2h.3l.6-.2h2.2l.6.7.4.5 1-.2v.9l.2.4c.2 0 .3.2.5.4l-.2.8-.5.5.3.6.7.1 2 .3.7 1c0 .3.2.5.3.8h.3l.4.6h.3l.3-.5h.4c0 .2.2.3.3.4l.3.6.4.3h.6l.6.5.4-.1.2-.6h.5l.3.5h.6v-.6l.3-.5h.6l.2.5h1l.2-.5h.5l.2.3h.3a11 11 0 010-1.7l.1-.2.5-.6h.5l.8-.5h.5l.9.2.5.6h.3l.7-.2.6.3.6.3.7.6.4.5h.6v.6l.4.2v1.2l-.6.4h-.4l-.6.4.4.6v.9l.4.6.1.9.3.3.3.4h.3l.1-.4.9-.3.3.4h.6l.1.3.6-.2.1-.7h.4l.3.5-.2.8-.5.6.3.6.5.4.1.3.2.7.3.4v.5l-.3.1-.2.5-.3.5-.1.6.6.4v.7l.6.4v.4l-.5.5h-.9l-.7.5h-.3-.2l-.4-.5-.7-.3-.2-.3-.4.2-.9.7v.7l.5.5.1.8-.6.3v.4l.8.1.1.5-.7.2h-.9l-.2.4.6.4-.2.4-.6.2.3.4.7.6v.4l-.7.2h-1l-.7.4-.1 1v1l-.3.2c0-.2-.2-.3-.3-.5l-.5-.3h-.4l-.4.7.3.3.6.3.1.5-.2.7h-.7l-.3.1-.2.6-.2.5.3.3.1.3.4.3v.3l-1 .2-.4-.4h-.3l-.8.6.6.2.4.4v.5l-.5.2-.2.2v.4c-.3 0-.5.2-.7.3 0 .1 0 .2-.2.3l.8.3v.3l-.6.6v.6l.1.7.6.3v.6h-2l-.3.3H72l-.1.6-.6.5-.2.5-.3.4-.1.2.2.6c.2 0 .3.2.4.4 0 0 0 0 0 0H71l-.6.1v1.6h-.7l-.3-.6-.4.2-.5-.4-.2-.2-.2.6-.4.4-.1.1-.2.6.1-.5v.1l-.3.3H67h-.3a1 1 0 00-.3.3v.5l-.3.4v.3h.4v.4s0 0 0 0h.4s.2 0 .2.2V161.7h.4v.4h.2v.2l.1.7.2.2h.6s0 0 0 0V163.5h.7l.2.2v.5c.1 0 .2.2.1.3l-.2.2-.1.2v.5l.3.3v.2c0 .1 0 .3-.2.4h-.3l-.3-.2-.1-.2-.1-.3h-.1l-.2.3-.2.3h-.4-.2l-.3-.1-.2.1-.1.2-.3.6-.2.1H66c-.1-.1-.2-.3-.4-.3h-.2l-.2.4-.5.2-.2.4c0 .2.2.4.1.7v.1h-.2l-.2.1-.4.6-.4.3-.5.6c0 .1 0 .2-.2.3l-.2.1-.5.2h-.2v-.3l-.2-.2s-.1-.1-.2 0h-.3l-.1-.1s0-.2-.2-.2l-1-1.2-.3-.4h-.2l-.3-.6v-.3l.2-.4.2-.5-.1-.3-.3-.2-.4-.5h-.3l-.1-.1v-.5l-.3-.1-.3-.1-.3-.4v-.5c0-.1 0-.3-.2-.4 0 0 0 0 0 0h-.3v-.1-.1-.2-.1l-.4-.3-.1-.3H56l-.2.2-.2.1h-.2s-.1 0 0 0v-.3l-.2-.2s-.2 0-.3-.2l-.3-.5v-.4l.1-.3v-.3-.1h-.5l-.4.2-.5.4-.4.1s-.2 0-.2-.2l-.2-.4v-.5l-.3-.2-.2-.1h-.3a.8.8 0 01-.3-.4l-.2-.3c0-.1-.1-.2 0-.4v-.1h.3l.2-.1.1-.3c0-.2 0-.3.2-.5l.2-.1.1-.1.2-.3.2-.1h.4l.3-.3v-.2l.1-.4h.2v.2l.2.1.6.1.3-.1.2-.5.4-.4v-.2-.3s0 0 0 0h.3v-.2-.5l.1-.2h.2l.2-.3.1-.5.1-.3v-.2h-.2-.1v-.2-.2H56v.2h-.2a1 1 0 01-.5-.4c-.1-.1 0-.3-.2-.5l-.4-.4-.5-.7-.3-.2h-.1l-.2.4h-.7l-.1-.3-.1-.2a1 1 0 00-.4 0h-.4v.8h-.1s-.2 0-.2.2v.2l-.1.3h-.7l-.5-.5-.1-.2h-.3l-.4-.1-.1-.2-.1-.1H49v.4l-.4.2-.3.1-.2.4-.2.5v.4l-.2.6-.3.2h-.2c0-.2-.2-.3-.3-.3l-.3-.5-.2-.3v-.2l.3-.3v-.1l-.2-.1v-.2l.2-.2.1-.5v-.1h-.2v-.2l-.1-.1-.4-.5-.2-.3h-.2a1.5 1.5 0 00-.4.3H45l-.3.4-.2.1h-.8l-.1-.3-.1-.6v-.2l-.4-.4v-.4-.5l-.2-.4-.1-.2h-.2l-.2.2H42l-.2.2H41.3l-.3.3h-.2a2 2 0 01-.8.1h-.2v-.2-.3a.8.8 0 00-.5-.3H39s0 0 0 0v-.2h-.6l-.2-.1c0-.1 0-.2-.2-.3h-1.7s0 0 0 0l-.1-.3-.3-.2h-.1l-.1.1c-.2 0-.3.1-.4 0-.1 0-.2 0-.3-.2l-.2-.2-.5-.3s0-.2-.2-.3H34l-.1.4-.1.3-.4.4-.3.4h-.1l-.2-.3s0 0 0 0l-.1-1.7-.2-.1v-.2-.3c-.1-.2-.3-.3-.4-.3l-.3-.1h-.2l-.5-.2v-.1l-.1-.3-.4-.3v-.4-.5h-.2l-.1-.2v-.2l.2-.5h.2l.2-.1v-.3-.2l-.2-.2v-.2-.1l-.5-.5-.2-.3-.1-.1-.2-.2h-.3l-.2.1-.2.3h-.3l-.2-.1v-.4-.3l-.1-.2H28 28l-.4.3-.1.2-.1.3-.4.1c-.1 0-.2 0-.3-.2v-.3s.1-.1 0-.2l-.2-.2-.4-.2h-.2l-.2-.2-.2-.1a1.2 1.2 0 00-.7.3l-.2.2-.4.2H24v.1V139.6h.5v.2c.1.1 0 .2 0 .4l.1 1v.1l-.2.1-.2.1v.3l.2.2.2.3v.2c-.2 0-.3.2-.3.3v.3l-.1.3c0 .2-.2.3-.3.3l-.4.2a1 1 0 00-.6-.3.5.5 0 01-.4-.3s0 0 0 0l-.4.2h-.1l-.3-.3h-.1l-.2.1-.4.4-.6-.2v-.1-.5s0 0 0 0l.5-.6.7-.7.1-.4.2-.2c.1 0 .2 0 .3-.2v-.5-.3l.3-.3v-.4c.1 0 .2 0 .3-.2l.1-.1v-.5-.3c0-.2.2-.2.3-.4v-.3-.3s0 0 0 0h.3v-.2-.5h.2l.2-.2v-.1-1-.3c.1 0 .3-.1.3-.3v-.2-1l.1-.2.2-.3v-.3-1.2l.2-.2s.2 0 .2-.2v-.1c.2-.3.2-.6.2-.9l.2-.4v-1l-.4-.3h-.2s0 0 0 0v-.3l-.2-.2-.2-.2v-.3H24h-.2v-.1-1.1s0 0 0 0z" fill="#A7991E" stroke="#E5E5E5" stroke-width=".4" stroke-linecap="round" stroke-linejoin="round"/>
    <path fill-rule="evenodd" clip-rule="evenodd" d="M92.6 171.3l.3-.6.5-.4-.2-.7-.4-.3-.2-.8.5-.7.7.1.4.3.4-.5.7-.4.4.4.3-.2.5-.1.3-.1.3-.2s0 0 0 0v-.7l.4-.2c.2 0 .3-.2.4-.3l.6-.1.7-.5.3-.5.2.3.6.2.7-.1.2-.8-.4-.2-.3-.7.1-.6-.2-.4-.7-.8.4-.7.5-.5-.2-.4-.8-.3-.1-.7.6-.5v-1l.2-.6.6.4.2-.2.7.8.7-.2-.2-.7-.5-.4-.4-.9-.3-.5.5-.4.8-.4h.8c.3.2.5.4.8.4h1.2v-.7l-.2-.5-.2-1.2-1-.3-.6-.4-.1-.8-.7-1 .1-.7.6-.6.7-.5.6-.2v-.6l-.8-.2-.5-.6-.4-.6.3-.3h.8l.2-.5.2-1h.6l.7-.7v-.8c.2 0 .2-.1.3-.2l.1-1-.4-.3-.4-.3v-.9c.3 0 .5-.2.8-.3h.4v-.5l.4-.4.4-.3-.2-.8-.2-.2-.2-.5-.4-.2-.4-.4-.5-.4h-.7l-.3-.6v-1l-.3-.4-.7.1v1.3h-.5l-.5.2-.3-.9-1.1-.4-1-.2-2-.3-.5-.4-1.2.1-.7-.6h-1.1c-.2 0-.3.2-.4.3h-.8v.8l-.4.3h-1v.4H91l-.5.4-.6-.2-.9.3-.7-.5h-1.1l.2-.7h.4v-.6h.4l.1-.8c0-.2-.2-.3-.3-.4h-1.2v.2c-.2 0-.4.2-.6.4h-.9l-.7.5h-.3-.2l-.4-.5-.7-.3-.2-.3-.4.2-.9.7v.7l.5.5.1.8-.6.3v.4l.8.1.1.5-.7.2h-.9l-.2.4.6.4-.2.4-.6.2.3.4.7.6v.4l-.7.2h-1l-.7.4-.1 1v1l-.3.2c0-.2-.2-.3-.3-.5a120.2 120.2 0 01-.9-.3l-.4.7.3.3.6.3.1.5-.2.7h-.7l-.3.1-.2.6-.2.5.3.3.1.3.4.3v.3l-1 .2-.4-.4h-.3l-.8.6.6.2.4.4v.5l-.5.2-.2.2v.4c-.3 0-.5.2-.7.3 0 .1 0 .2-.2.3l.8.3v.3l-.6.6v.6l.1.7.6.3v.6h-2l-.3.3H72l-.1.6-.6.5-.2.5-.3.4-.1.2.2.6c.2 0 .3.2.4.4 0 0 0 0 0 0H71l-.6.1v1.6h-.7l-.3-.6-.4.2-.5-.4-.2-.2-.2.6-.4.4-.2.2v.4c-.1 0-.1 0 0 .1l.2.2h.5l.2.3c0 .1 0 .2.2.2h.9l.6.3.1.2.2.2h1c.1 0 .2 0 .3.2l.4.5.5.1h.2c.2 0 .2-.2.3-.3h.1l.4.1v.8l.3.4.5.6h.8v.4h.2l1 .1.4.7v.9l.2.1s0 0 0 0c.2-.1.2-.2.2-.3h.2c.3-.1.5-.1.8 0l.2.2.2.3c0 .1.1.3.3.3h.3c.2 0 .3-.2.4-.3l.2-.3h.1l.5.1h1.3l.2-.2.2-.1h.2l.3.3H83.2c.2-.1.2-.3.3-.4l.2-.2h.5l.8.2.3.4v.7l.3.2c.2 0 .3 0 .5.2l.3.3v.2l-.2.1-.2.2v.4s0 0 0 0h-.5-.1l-.2.3-.3.2-.1.2-.2.2H84l-.5.1-.1.2-.2.1h-.5c-.1 0-.2 0-.2.2v.3c0 .2.2.3.4.4l.2.2v.4H83.5s0 0 0 0l.2.5.3.3.2.2h.1c.2 0 .2-.2.3-.4v-.2l.5.1v.2l.4.4.1.1.2.2v.4h.2V172l.3.3.2.2v-.1.1.5h.1l.2.2v.3h.5c.2 0 .3 0 .5.2V174.3l.2.2.2.1v.3h.3l.4.1.6-.2h.4v-.1-.2l.3-.1.2-.2s0-.3.2-.4h.9v-.3h.8l.3.1h.1l.5-.1h.4l.2-.2v-.1a.6.6 0 01-.4-.4v-.3h-.1s-.1.1-.1 0H93l-.2-.4-.2-.4-.1-.1.1-.3z" fill="#A7991E" stroke="#E5E5E5" stroke-width=".4" stroke-linecap="round" stroke-linejoin="round"/>
    <path fill-rule="evenodd" clip-rule="evenodd" d="M92.6 171.6l.1-.4.2-.5.5-.4-.2-.7-.4-.3-.2-.8.5-.7.7.1.4.3.4-.5.7-.4.4.4.3-.2.5-.1.3-.1.3-.2s0 0 0 0v-.7l.4-.2c.2 0 .3-.2.4-.3l.6-.1.7-.5.3-.5.2.3.6.2.7-.1.2-.8-.4-.2-.3-.7.1-.6-.2-.4-.7-.8.4-.7.5-.5-.2-.4-.8-.3-.1-.7.6-.5v-1l.2-.6.6.4.2-.2.7.8.7-.2-.2-.7-.5-.4-.4-.9-.3-.5.5-.4.8-.4h.8c.3.2.5.4.8.4h1.2v-.7l-.2-.5-.2-1.2-1-.3-.6-.4-.1-.8-.7-1 .1-.7.6-.6.7-.5.6-.2v-.6l-.8-.2-.5-.6-.4-.6.3-.3h.8l.2-.5.2-1h.6l.7-.7v-.8c.2 0 .2-.1.3-.2l.1-1-.4-.3-.4-.3v-.9c.3 0 .5-.2.8-.3h.4v-.5l.4-.4.4-.3-.2-.8-.2-.2-.2-.5s0 0 0 0l.4-.2.5-.4h.3l.4.4h.6l.2-.4 1.5.1.5-.5.2.4.1.5h.5l-.1-.6.3-.3.2-.6h.6l.3.3.4.3.7.5.4.3.3.4c.2 0 .3.2.4.3h.5l.1-.4h.2l.4 1v.4h.5l.4-.4.3.3v.5l.6.2.2.5.4-.2c0-.2.2-.3.3-.5h.3v-.3h.3v-.6l-.4-.1v-.5h1v-.4h.8v.7l-.3.4v.3a81.7 81.7 0 011 .3l.2.4a229.8 229.8 0 011-.5l.2.5.2.6.3.2v.7l.6.5.1 1.3.5.4.6.1.3-.4h.5l.2-.4.2-.4h.3l.2.7.4.3v.5h1.4v.6l.4.3 1.2.1.2-.4h1l.2.4v.3h.4l.2.6.3.1v.6h-.4l-.4-.4-.4-.1.2.7-.4.1.3.4v.4h-.6l-.2.2v.3l-.4-.4-.5-.1v.7l.3.7v.6h1.5l.4.4h.6v.3h.9v.5l-.5.2h-.4v.6h.5l.2.4.4.3.2.4a61.5 61.5 0 01-.5.4l-.3-.3-.5.4v.5l-.4.5-.6.3-.3.6 1 .3h.5c.3.2.7.2 1.1.3l.1 1.3h1.1c0 .2 0 .4.2.6v.5h-1.3l-.3.8h-.8c0 .2 0 .4-.2.6h-.6l-.2-.6h-.6l-.5.7-.6.1c0-.2-.2-.3-.3-.5h-.5l-.6 1.1h-.5l-.3-.4h-.5l-.4.3h-1l-.1-.3h-.4l-.8.8-.2.4-.5.5v.5l.5.3v1l-1 .1-.2-.3h-.4l-.4.2.3.8-.1.4-.4.4-.4.4h-.8l.2.7.8.3.6.3h.5l.4.3-.3.3-.5.3a202.2 202.2 0 00-1.7.3l.1.5.6.3-.2.5-.6.5-.5.2-.6-.3-.4-.1.2.7-.2.3h-.4l-.4.8-.2.4.5.6h-1.5c0 .2-.2.3-.3.4l-.4.8v.4l-.4.5-.2 1 .4.3-.2.2-.8.4v.4a115.3 115.3 0 001.4.4l.4-.4.3-.3.4.5-.1 1.3v.4l-.7.6-.1.6h.7l.3-.3h1l.6.3.4.2v1.6l.3.3v.5l.5.4.8-.2.1.4h.6l.5-.2.4.5.2.2.1.6-.4.2-.2.3-.4.5-.7.3v.4l.6.4h.7l.4-.4h.3l.2.6.3.4-.4.4.3.4v.3l-.4.3v.3s0 0 0 0c-.1.2-.1.3 0 .4v.2l.1.1-.1.1h-.3l-.7-.2s0 0 0 0c-.3.2-.3.4-.5.6h-.3-.2l-.2.1v1.1h-.2-.2l-.3.4h-.4l-.3-.4h-.2a2 2 0 00-.8.3V190.8h-.2l-.2.1V191.2l-.4.3v1.8h-.4l-.2.2-.1.3v.6l-.1.2h-.5l-.3.1c-.2 0-.4 0-.5.2l-.4.2-.2-.1-.3-.3-.4-.2-.3.1-.5.5-.4.2h-.3l-.5-.1s-.2 0-.2-.2v-.2l.1-.5.2-.4v-.1l-.3-.1v-.2-.2c0-.2-.3-.3-.4-.4v-.3-.5l.2-.2.2-.2v-.2l-.3-.1-.2-.2-.2-.3h-.2a.8.8 0 00-.5-.1h-.2v.5h-.6v-.2-.2h-.3H110.3h-.1v-.3l.2-.3v-.4l.1-.3-.4-.4v-.4-.6-.2l-.3-.2v-1.2l-.2-.1-.2-.2v-.1-.6l-.1-.1-.3-.1h-.3l-.3.2h-.4a.8.8 0 01-.3-.3l-.1-.3v-.4l-.2-.1c-.1-.1-.3-.1-.4 0h-.5l-.1-.1-.2-.3c-.2 0-.4 0-.5-.2l-.2-.3v-.8-.1l-.3-.2v-.3-.5h-.1-.2v-.2l-.1-.5h-.1-.2v-.2-.4-.1l-.3-.1v-.2l.2-.1.2-.1c0-.2.2-.3.3-.4l.2-.2v-.2l-.3-.2c-.1 0-.2 0-.3-.2-.2 0-.3-.1-.3-.2v-.3l-.1-.2-.2-.2a.8.8 0 00-.6 0h-.2-.1l-.2-.3h-.3v-.2-.1l-.4-.1-.3-.1-.4-.3-.2-.1-.3-.3h-.3l-.5.2a1 1 0 01-.5-.1l-.2-.3h-.1-.2v.8l-.1.2h-.5a.5.5 0 01-.3-.1v-.3-.4H98l-.3-.1v-.2-.4l-.2-.2a.8.8 0 00-.4-.2l-.5.1h-.2l-.1-.3v-.6l-.2-.1H96h-.2s0 0 0 0c-.2 0-.2.2-.3.3l-.2.2h-.2-.3l-.2-.2-.2-.3-.5-.1-.2-.2c-.1 0-.2 0-.2-.2h.1l.2-.1v-.5s0 0 0 0l-.3-.1v-.2-.4H93.1l-.2-.2v-.1l-.2-.3a.3.3 0 00-.2-.2z" fill="#A7991E" stroke="#E5E5E5" stroke-width=".4" stroke-linecap="round" stroke-linejoin="round"/>
    <path fill-rule="evenodd" clip-rule="evenodd" d="M167.6 194l.2-1-.2-.5.5-.5.1-.4-.5-.2-.4-.3v-.7l-.3-.1v-.6l.4-.1v-.5h-.7v-.3h-.5l.1-.9.4-.1.3-.5v-.7l-.3-.1-.4-.5.3-1-.5-.2.2-.7-.4-.1a110.2 110.2 0 01-.1-1.5l-.3.1-.2.4h-.2l-.7-.6-.2-.8.4-.3.1-.5h.6l.2.6h.5l.6-.8-.2-.4c-.2 0-.4-.2-.5-.3l-.3-.5-1.2.2-.2-.5h-.3v-1-.3l.2-.1h.2l.2.4h.5l.3-.3v-1.1l-.5-.3-1.5.2-.4-.3v-.4l-.5-.3v-.8l-.4-.3.4-.7h.5l.3-.3.2-.4v-.4h-.6l-.5-.4v-.4l.7-.6-.5-.2.3-.5h.7l-.4-.5v-.5h-.5l-.2-1 .4-.4v-.6l.1-.1.3-.3s0 0 0 0v-.4a142.4 142.4 0 00-1-.8l.1-.2h.6l.3-.5-.4-.2-.6-.1.2-.6.9-.7.5-.3.1-.9-.3-.4v-.4l-.6.1v.7h-.3l-.3-.5-.2-.6-.6-.1-.2.4v.4l-.6.2-.5.4-1 .4h-1.1l-.2-.4h-.3l-.2.7h-.8v-.4h-.4l-.2.8h-.6l-.2.7h-.5l-.1-.6h-.8l-.4.7-.2.4h-.4v1h-.7v.4h-.4l-.2.4-1.6-.1-.2.3-.8.4H147.3l-.6-.3-1.1-.1-.2-.2-.8-.4.5-.3h.3s0 0 0 0v-.4l-.4-.5h-.5l-.2-.4-.4-.2v-.4l.4-.1v-.6l-.4-.4h-.4l-.6-.3.1-.4.3-.3.6-.3.1-.5h-.4c0-.3-.2-.5-.3-.6v-.9l-.4-.2v-.5l-.3-.2v-1.5h-.7v-.3h-.7l-.1-.4h-.6l-.4.4-.5.1c0-.2-.2-.4-.3-.5h-.7l-.2-.7h-.6l-.1.5h-.6l-.4-.8h-1a98.1 98.1 0 01-.5.6h.2l.2.6v.5h-1.3l-.3.8h-.8c0 .2 0 .4-.2.6h-.6l-.2-.6h-.6l-.5.7-.6.1c0-.2-.2-.3-.3-.5h-.5l-.6 1.1h-.5l-.3-.4h-.5l-.4.3h-1l-.1-.3h-.4l-.8.8-.2.4-.5.5v.5l.5.3v1l-1 .1-.2-.3h-.4l-.4.2.3.8-.1.4-.4.4-.4.4h-.8l.2.7.8.3.6.3h.5l.4.3-.3.3-.5.3a202.2 202.2 0 00-1.7.3l.1.5.6.3-.2.5-.6.5-.5.2-.6-.3-.4-.1.2.7-.2.3h-.4l-.4.8-.2.4.5.6h-1.5c0 .2-.2.3-.3.4l-.4.8v.4l-.4.5-.2 1 .4.3-.2.2-.8.4v.4l.8.3h.6l.4-.3.3-.3.4.5-.1 1.3v.4l-.7.6-.1.6h.7l.3-.3h1l.6.3.4.2v1.6l.3.3v.5l.5.4.8-.2.1.4h.6l.5-.2.4.5.2.2.1.6-.4.2-.2.3-.4.5-.7.3v.4l.6.4h.7l.4-.4h.3l.2.6.3.4-.4.4.3.4v.3l-.4.5c0 .1-.1.3 0 .4l.2.3.2.3.6.4H125.7v1.5l.4.2v.6s.2 0 .3.2v.2c.1.2 0 .5.2.8 0 0 0 0 0 0l.3.1.3.5.4.1h.2l.4.3.4.3v.3c-.2 0-.3.1-.4.3v.2l.1.2h.7v.1l.1.2h.5l.1.2v.1l.5.2h.1v-.2l.3-.5h.1l.6-.3h.3l.3.5V198.6H132.2v.5l.1.2v.3h-.2l-.3.2-.3.3v.9l-.4.4-.1.1v.2l.3.4h.2c.2 0 .3-.2.4-.3l.3.1.2.4.3.3h.2l.5-.3c.1-.1 0-.3.2-.4h.4l.1-.1.2-.5.3-.4c0-.1.2-.2.4-.1h.2l.3.4h.5c.2 0 .4.2.5.3l.3.6.3.3.4.1v.5l.2.1h.4l.2-.1v-.5l-.1-.5v-.4l.4-1.1.5-.5.3-.3v-.2c0-.3-.2-.5-.1-.8 0-.2 0-.4.2-.5h.2l.1.2h.2l.4-.5.1-.3s0-.2.2-.3c0 0 0 0 0 0h.4v-.1-.3h.1c.4-.2.7-.2 1-.1h.5l.5.4h.1l.2-.2v-.6-.7-.4l.2-.1H144.3l.2-.2v-.2h.2l.2.3c0 .1 0 .3.2.3.1.1.3.1.4 0l.4-.2.1-.3.2-.3c.1-.1.3-.2.4-.1h.2c0 .2 0 .3.2.3h.1l.3-.2h.1v.4l.5.5h.1l.5.1.1.2v.3l.2.1a1 1 0 00.9-.2v-.3-.3l.2-.7s0-.2.2-.2h.2l.2.3c.2.1.2.3.3.5h.2l.3-.2.2-.2.1-.3c0-.1 0-.2.2-.3l.2-.1h.3l.3.2.1.3.1.4s.2 0 .2.2v.6l.1.2h.5l.1.1c0 .1 0 .3.2.4h.2l.2.2.2.3v.5l.3.2c.1 0 .2 0 .3-.2l.2-.1v-.4l.3-.3h.2v.3l.1.2.1.4.3.1.3.1.1.3v.4l.3.1h.5l.1-.1v-.2-.2h.2l.5.1h.2v-.3l-.1-.3v-.2l.5-.5c.2-.1.5-.1.7-.3l.1-.1.1-.3h.2l.4.2h.2c.1 0 .3 0 .3-.2l.1-.3v-.3l-.5-.3c-.2 0-.4 0-.5-.2a.8.8 0 01-.2-.4v-.2l.4-.3.3-.1c.3-.1.5 0 .7-.2.2 0 .3-.2.4-.3h.2l.3.4.1.2c.1.2.1.4.3.5 0 .2.2.3.3.3h.8l.2-.3v-.6l.3-.4.4-.3.4-.4h.2l.2.3.2.1h1.2s0 0 0 0l.2.5H167.6s0 0 0 0z" fill="#A7991E" stroke="#E5E5E5" stroke-width=".4" stroke-linecap="round" stroke-linejoin="round"/>
    <path fill-rule="evenodd" clip-rule="evenodd" d="M215.8 165l-.4-.2-.4-.2v-1l-.4-.1-.2.4h-.4l-.2-.3-.7-.1-.2-.5c0-.2.2-.3.3-.4l.1-.8-.3-.2-.6-.5s0 0 0 0v-1l-.5-.5h-.4l-.3.2-.4.6v.3h-.6v.3h-.5l-.1.4-.5.1a83.5 83.5 0 01-.5-.8l-.3-.4c0-.2-.2-.3-.3-.4h-.3l-.4.7-.4.6v.3c-.2 0-.3.2-.4.3l-.6.2-.4.6-.4.3-.4.5v.5l-.1.3h-.2-.3l-.3-.4-.7-.3h-.3v.3s0 0 0 0l-.8.1h-.4v-.5h-.6l-.1.4-.7.1c0-.2-.2-.3-.3-.5h-.4a2 2 0 00-.7-.2h-.5l-.3.2-.5.5h-.5l-.1-.1-.2-.4h-.5l-.6-.1-.4-.1h-.3l-.1-.1c-.1-.1 0-.3 0-.4v-.3l.9.2.5-.2c0-.3.2-.5.3-.8l-.1-.1-.3-.2h-.7l-.3.5h-.6l-.5-.5h-.6l-.2.4-.4.3-.5.2-.2-.5-.3-.4h-.5s0 0 0 0v-1h-.3c0-.2-.2-.2-.2-.3h-.5v-.5l.4-.2h.5l.2-.5.2-.1v-.5l-.3-.3.2-.4h.6l.2.5.5.2h.6l.3-.2.7-.4s0 0 0 0l.1-.5h-1.2l.3-.4.4-.1v-.3h-.5l-.3-.3-.3-.6h-.2v-.5l.5-.2v-.4a36.7 36.7 0 01-.2-1l-.4.2-.2.3h-.3c0-.1-.1-.2 0-.2v-.4s0 0 0 0h-.3l-.2.3h-1.1l-.3-.3-.4-.4-.4-.2-.2-.4-2.2-.1v-.5l-.9-.5-.3-.2h-.6l-.4-.3.4-.5.3-.5v-.6l.4-.2v-1.3-.3l-1-.1v-.5h.3v-.4l-.4-.1h-.3l-.3-.3-.5-.4-1.4-.2-.1.4h-.1l-.3.3-.3.3-.3.3-.3.6h-.5a1 1 0 01-.4-.2h-.1l-.9-.2-.3-.6h-.5l-.1.5-.2.4-.2.7v1c-.2 0-.3.2-.4.3l-.4 1v.2l-.7.7-.1.6a123.6 123.6 0 00-.9-.2l-.1.2-.4.4-.6.5-.2.5-.2.7-.2.8v.1l-.5.1-.2.5-.5.5-.4.2h-.8l-.4.3h-.2l-.4.3-.4.1-.2.2h-.7l.2.9v.2h-.2l-.3.2a4 4 0 00-.3.4l-1.4.1-.5.5v.3h-.5l-.3.2-.3.4.2.2v.1l-.3.1h-.5l-.3.4-.6.4-.2.3v.3s0 0 0 0v.4l.4.4v.9l-.6.3-.9.7-.2.6.6.1.4.2-.3.4h-.6l-.1.3.5.5.6.3v.4c-.2 0-.3.2-.4.3v.1.6h-.2c0 .2-.2.2-.3.3l.2 1.1h.6l-.1.5.4.5h-.7c0 .2-.2.3-.3.5l.5.2-.6.6v.4l.4.3.6.1v.4l-.2.4-.3.3h-.5l-.4.7.4.3v.8l.5.3v.4l.4.3 1.5-.2c.2 0 .3.2.5.3v1.1l-.3.3h-.5l-.2-.5-.3.1-.1.5V179h.3c0 .2 0 .3.2.5l1.2-.2c0 .2.2.3.3.5l.5.3.2.4-.6.8h-.5l-.2-.5h-.6l-.1.4-.4.3c0 .3 0 .5.2.8l.7.6h.2l.2-.4h.3l.1 1.3s0 0 0 0l.4.2-.2.7.5.3-.3.9.4.5c.1 0 .2 0 .3.2v.6l-.3.5-.4.1v1h.4v.1h.6v.6l-.2.1-.1.6.3.1v.7l.4.3.5.2v.4l-.6.5.2.4-.2.8-.1.7.1-.6.5.4v.4h.1c.2 0 .4 0 .6-.2l.3-.1.6-.5h1c.2-.1.2-.3.3-.4h.3l.3.3.2.3h.3l.2-.4.2-.4h.3l.2.2.2.4.3.6.2.1.5-.1h.3l.5.5.5.3.2.2v.5l.2.6c.1 0 .3.1.4 0l.2-.1.4-1s0 0 0 0l.4-.2v.1l.2.2.3.4s0 0 0 0h.7c0 .2 0 .4.2.6l.2.1h.4l.5.1.5.4v.8l.2.2.4.3.2.3h.4v.5s0 0 0 0h.4v.2l.5.4v.2c0 .2-.2.3-.3.4l-.1.2-.2.3v.3l.1.1h.7v.4h.2l.3-.1.2-.1h.2v.5s0 0 0 0H184.5l.5.3.2.4s0 0 0 0h.5l.3-.1h.2s0 0 0 0v.7l.5.4h.8l.4.4H188.6l.2-.3c.1 0 .2-.1.4 0h.2l.2.8c.1.3.2.5.4.6l.3.2.2-.1.6-.3h.1l.3.6s.2.2.3.1l.6-.1.5-.2h1.2l.4.7.6.5.8.7.3.4.4-.5.4-.4h.2l.1.2.3.4h.1c.1 0 .2 0 .3-.2l.2-.2h.2l.5.4v.2l.4.5c.2.2.5.5.9.6l.4.2h.2l.2-.6-.3-.9-.2-.2c-.1-.3-.2-.5-.1-.8 0 0 0-.2.2-.3l.3-.1v-.1-.2-.3c-.1-.2-.3-.2-.4-.3l-.4-.3c-.3-.2-.7-.3-1-.2 0 0 0 0 0 0l-.2-.7c0-.1 0-.2-.2-.2h-.3l-.7-.1.1-.7v-.5c0-.2 0-.3-.2-.5l-.1-.2-.3-.5.1-.7.3-.3.2-.3.1-1v-.7-1.6l-.2-.8-.2-.2h-.2a.4.4 0 01-.2-.3v-.6-.3-1.2-.4h-.3l-.1-.3c-.1 0-.1-.2 0-.4v-.3l-.9-.5a1 1 0 01-.3-.4v-.4l.3-.6 1.1-1.7 1.1-1.6.6-.8v-.3-.6l.2-.2.5-.1.5-.1.3-.2.5-.6a57.5 57.5 0 001.9-3c-.1-.2-.1-.5 0-.8l.1-.4.2-.2 1-.5c.7-1 1.5-1.8 2-2.7l.2-.5.1-.3.6-.5c.2 0 .3-.2.4-.3l.9-1 .1-.1v-.4-.1h.3v-.2l.1-.5.1-.2.7-.7.2-.3v-.6l.3-.3.3-.1h.4l.2.1.2-.1 1.3-1.4.5-.8.8-1.3.3-.3h.6l.4-.2.5-.6.5-.4s0 0 0 0zM46.3 67.3l-.3.3c0 .2 0 .4-.2.6l-.3.1-.4.9.7.4v.8l.4.5.2.4v.6l-.5.3.2.5v.9l-.6.5h-.7l-.5.5.2.8.4.1v.9l.6.5.2.6-.9.9h-2a3 3 0 00-.7.3v.2l.2.1c.2.1.2.3.3.4v.3l-.3.4-.3.4.2.8c0 .2-.2.3-.3.5l-.3.1.2.5h.4l.3.6.2.6.3.3c0 .2.2.3.3.5l.5.2-.5.3-.2.4 1.1 1.2V88.2h-.6c-.2-.2-.5-.3-.7-.3l-.1.7c0 .3.2.5.3.8l1 .6.6.3-.3.4-.3.3.2.6.1.9-.3.1-.2 1.2-.3.6.4.7v1.1l-.4.4a1189.8 1189.8 0 01.3 1l.4.5.1.6-.4.9-.5.1v.7l.7.4.4.3h.6c0-.2.2-.3.3-.5l.6.3.4.4.5.5-.1.7-.7.1-.4.4.5.8h.7c0 .4.2.7.3 1l.8-.2.5-.2.2-.6h.5v.5l.6.3-.1.6v.9c0 .1 0 .3-.2.5l-.6.5.6.4h.6l.5.3.4.3.1.4h.7l.2-.8c0-.2.2-.4.4-.6h.1l.4-.2.6.4.5.4.6.8.4.4.4.8.4 1.2v.2l-.1.4s0 0 0 0h.2l.6-.2h2.2l.6.7.4.5 1-.2v.9l.2.4c.2 0 .3.2.5.4l-.2.8-.5.5.3.6.7.1 2 .3.7 1c0 .3.2.5.3.8h.3l.4.6h.3l.3-.5h.4c0 .2.2.3.3.4l.3.6.4.3h.6l.6.5.4-.1.2-.6h.6l.2.5h.6v-.6l.3-.5h.6l.2.5h1l.2-.5h.5l.2.3h.3a11 11 0 010-1.7l.1-.2.5-.6h.5l.8-.5h.5l.9.2.5.6h.3l.7-.2.6.3.6.3.7.6.4.5h.6v.6l.4.2v1.2l-.5.4H81l-.6.4.4.6v.9l.4.6.1.9.3.3.3.4h.3l.1-.4.9-.3.3.4h.6l.1.3.6-.2.1-.7h.4l.3.5-.1.8-.6.6.3.6.5.4.1.3.2.7.3.4v.5l-.3.1-.2.5-.3.5-.1.6.6.4v.7l.6.4v.4s0 0 0 0l1.3-.1.3.4-.1.8h-.5v.6h-.3l-.2.6 1.1.1.7.5.9-.3.6.2c.2 0 .3-.2.5-.3h.8v-.4h1c0-.2.2-.3.3-.4v-.7h.8l.4-.4h.9v-.1-.6l-.4-.3v-.4l1-.5v-.4l-.5-.2.1-1h-.3l-.5.4-.4-.3h-.4v-1.7l-.4-.2v-.5h-.2v-.5l.5-.5.5.1.1-1 .5-.1c0 .1 0 .3.2.5h.7l.6-.4.1-1.1a2125.4 2125.4 0 00-.6-.7l.7-.6h.4l.6.8h.6l.4.6.6-.3.2-.7h.2v-.6l.7-.3V121l-.4-.4-.3-.3.4-.3V118l-.3-.3v-1l.7-.5v-.4h-.7l-.1-.6 1-1 .6-.1-.1-.3-.4-.2v-.3h.3v-.7h-.4l.4-.4.4-.2v-.5l-.4-.1v-.5l.5-.3v-.8l.5-.2.3-.7.9-.2.1.7h.6v-.4h1l.7.5h.5l-.1.2h1l.5-.3v-1l.7-.5v-.5c0-.2.2-.3.4-.4 0-.2.2-.3.3-.4v-.4l-.3-.1-.1-.4-.6-.4.3-.5h-.5l.2-1h-.5l.5-.7.2-.5-.3-.4v-.8a254.6 254.6 0 01.8-.7l.1.5h1l.3.4h.4l.3-.8.7-.4.3.4h.7v-.7l.9-.4v-.3l-.6-.3a1 1 0 01-.4-.4l-.3-.2h-.3v-.1l.4-.4-.1-.4.4-.3v-1h.8l.6-.6 1 .5h.5l.6.1.1-1 .3-.2v-.7l-.2-.4h-1.1v-2l-.4-.1-.3-.2v-.4l-.8-.1v-.9h-.4l-.2-.6-.4-.3-.2.4v.6l-.2.5h-.7l-.7.7h-.4l-.2-.5h-.2l-.6 1h-.4l-.3-.5v-1h-.4l-.5-.5v-.5l-.5-.1-.3-.3-.2-.5h-.3V88h-.4l-.7-.1v-.7l-1.1.2v-.6l-.7-.8-1-.2-.5 1.3-.3-.3-.4-.1-.3.5h-.6v-.7l-.5-.2V86l.5-.2V85l-.3-.4h-.6l-.3.3v.7l-.3.1v.3h-.5l-.7.7-1.5.1v-.7l-1.6-.1a32 32 0 01-.8-.4h-.1l.5-.5v-.5l-.5-.4h-1.4l-.7.5-.2-.2v-.6l-.7-.5-.3-.2-.1.4h-.6c0-.2-.2-.3-.3-.4l.3-.3v-.7l-.7-.7-.3-.4-.3.3-.2.4-.5-.4-.1-.3h-.7l-.3-.4h-.7l-.5.3.4.3-.2.4c0 .2-.2.3-.4.5l-.6.3-.2-.6V81h-.8l-.2-.3.3-.4v-.8c0-.2-.2-.4-.4-.6h-1l-.7.3v.3l-.1.1-.4.3c0 .2-.2.3-.3.4v.1l-.4-.7-.6-.2.3-.6h.4v-.5H80V78l-.8-.6h-.6l-.5-.3c.2-.2.2-.3.2-.5l.2-.6.5-.1.2-.3h.2l.3.5.5-.1.5-.5.5-.5-.4-.4-.2-.5.2-.6.2-.3v-.5l-.4-.2v-1.5l-.3-.4-.4-.3h-.6l-.1-.5-.3.1-.7-.7h-1l-.3.3-.4.2-.3-.9-.1-.6v-.2l.6-.4h.1V67l-.4-.6v-.7h.7v-1.4l.7-.8v-.2l-.6-.2h-.5l-.3-.8v-.2l.4-.4v-.5l-.4-.2-.1-.4.6.1h.1v-.1l.2-.1.2-.1.7.3.4-.2.2-.8.5-.4v-.5l-1.1-.2v-.1c-.3-.3-.5-.6-.6-1H77l.1-.6h-.3l-.1-.5-.5-.3h-1v.5l-.5-.8v-.5l.8-.8V54l.2-.1h.3v-.2l1.8-1.7v-.3-.4l-.6.1-.6-.2-.2-.7-.8-.7-1-.2-1 .1-.5.4-.7.1-.4-.3-.6-.3c-.2 0-.4 0-.5.2l-.2.6-.6.3-.9-.3-.2-.5.3-.3-.3-.5h-.5v.4l-.7.1.2-1.2-.4-.3-.3-.6-.5-.6V46l-.1-.2-.3.1-.3.2-.4.4-.4-.3-.4-.3-.6.2v.7l-.7.4-.3.1v1.4l-.3.4-.2 1-1.2 1.2-.6.5h-.8l-.3.2-.4-.4h-.8c0 .2-.2.4-.3.5l-.6.1-.3-.5-.6-.2v.5l-.4.4.6.3-.3.5.4.7v1l1 .2.6.7 1 .2.8.3.8.6c.2 0 .3.2.5.4l.2.3.6.3v.4H62l-.7.6-.3.6v1a641.7 641.7 0 00-.4.7l-.5-.2-.3-.3-.4-.4H59l-.4.6c0 .3 0 .6-.2.8v.3l-.3.6a1027.5 1027.5 0 01-1-.2l-.5.6H56l-.3-.3-.6.4a576.2 576.2 0 01.4.9h-.4l-.4.6c-.2 0-.3.2-.4.3.2.1.4.3.4.5v.5l-.2.2c0 .2-.1.3-.3.4H54a1 1 0 00-.3.4l-.2.4-.3.3s0 .1-.1 0a1648.9 1648.9 0 00-.7-.7l-.7.4h-.6l-.5.2-.3.3-.2.3-.6.2c-.1.1-.3.2-.4.1l-.3-.1-.4-.4-.5.1-.5-.3-.2-.3-.7.1h-.2z" fill="#A7991E" stroke="#E5E5E5" stroke-width=".4" stroke-linecap="round" stroke-linejoin="round"/>
    <path fill-rule="evenodd" clip-rule="evenodd" d="M114.8 92.4l.4-.3v-.4h.7l.1-.5.5.6h.7l.2.3.3-.1.2-.4 1.4.2-.5-.7.5-.4.4-.3.2-.5h.8v-1l-.3-.3-.7-.2.1-.6.6-.1.5.4h.4v-.5l.4-.7.2-.3.4-.4.3-.4-.6-.4h-.7v-.5l.4-.2V84c-.1-.1-.1-.3 0-.4l.1-.1.4.3.5-.2.5-.8.4-.2v-.3l-.2-.2h-.7l-.3-.3v-.4l.5-.5.4-.6.8-.2V80l-.4-.2v-1-.4-.2h.3c0-.1 0-.1 0 0l.1.5h.5l.3.3.9.2.2-.3-.4-.1v-.4-.3l.2-.3v-.3s0-.2-.2-.3c0-.1 0-.3-.2-.5h-.1l-.6-.4h-.2l-.5-.7-.5-.7v-.4l1-.6.6-.3h.4s0 0 0 0V73l-.5-.4-.5-.2-.4-.6-.3-1v-.7l.7.3.2.4s0 .2.2.3l.5-.3.4-.2.4-.2h.6l.1-.4-.2-.3-.3-.5V69l.1-.1h.5v.2c.2 0 .2.1.3.2l.7.1.2.6.6.5.4-.1.2-.7-.2-.4V69l.1-.4.1-.6-.4-.5-.3-.4h-.3l.3-.4v-.2-.5l-.2-.2-.3-.6.2-.4.3-.2h.4l.6-.2.4-.3v-.3s0 0 0 0l.4-.1.3-.3.2-.2-.2-.3V62l-.1-.1-.3-.3.4-.5-.4-.6h-.8l-.2-.4v-.6l.6-.6.2-1h-.8l-.1-1.2h-1.7-.3-.2l-.2.1h-1l-.1-.5-.4-.6-.3-.4h-.5l-.5.8-.3-.2v-.7h-.9l-.2-.4v-.4l-.5-.5-.2.5h-.6l-.1-.4-.5.2-.1.6-.2.2h-.3l-.3-.3h-.2l-.2-.6.2-.6V53l-.2-.5v-.8l-.6-.3-.6-.8.5-.4c.1 0 .2 0 .3-.2v-.3l-.4-.5h-.2l-.3-.1.2-.8-.5-.3-.8-.2-.4-.2h-.1l-1-.1h-1.1c-.2 0-.5 0-.7-.2l-.5.4c-.3 0-.5.2-.8.3l-.4.4-.1-1h-.5c-.1 0-.2 0-.2.2 0 0 0 0 0 0h-.2c-.2 0-.3 0-.5-.2l-.4-.2-.2-.1h-1.7l.1-.6c0-.3-.2-.5-.4-.8l.6-1.2h.5l.1-.7h-.8c0 .2 0 .4-.2.5l-.4.3-.5-.5c-.2 0-.4-.2-.5-.3h-.6l-.5.8h-1.1l-.4.8h-.6l-.5-1.2V44h-.6l-.4-.5-.1.6-.6.4h-2.2l-.5-.6-.6.2h-.5l-.3-.5.4-.4v-.6-.3h-1.1l-.4.6c0-.2-.2-.3-.3-.5l-.8-.2-.3-.4-.2-.4-.3.5h-.4l-.5-.8-.4.1v.7l-.4.6-.4.4-.4.4-.4.1v-.3l-.4-.4-.7-.2-.3-.6h-1.2l-.3-.2-.4.4.5.3.1.3.5.2v.5l-.3.3-1 .6H87l-.2-.3c-.1 0-.3 0-.4-.2l-.5.6c-.2 0-.3.2-.5.3l.2 1.1c0 .3-.2.6-.4 1l-.4.6-.8.2v.8h-.6c0-.2-.2-.4-.3-.5l-.2-.6h-.4l-.4.8h-1l-.2-.8-.6-.6-.7.1-.7.7-.4.8.1 1.3-.2.5-.4.5-.1.6h-.1v.7L76 53.7a1 1 0 00-.4.1V54.7l-.9.7v.5l.4.8.2-.5h.9l.5.3v.4h.4l-.1.7h.5l.6 1 1 .3v.5l-.4.4-.2.8-.4.2a1995.6 1995.6 0 00-1-.2l-.1.2s0 0 0 0h-.5l-.2-.1v.4l.4.2v.5a534 534 0 01-.3.6c0 .3.2.5.3.7h.5l.6.3v.2l-.7.8v1.4h-.7v.7l.4.6v.5a3 3 0 00-.6.5l-.1.2v.7l.4.8.4-.3.3-.2h1l.7.7h.3l.1.4h.6c.2 0 .3.2.4.3l.4.4v1.5l.3.2v.5l-.2.3-.2.6.2.5.4.4-.5.5-.5.5h-.5a2480.5 2480.5 0 00-.5-.4l-.2.3h-.5l-.2.8c0 .1 0 .3-.2.4l.5.2h.6l.7.7.1.4h.4v.5H80l-.3.6.6.2.4.7.3-.4.4-.4h.1v-.3l.1-.1.6-.3h1l.4.6v.8l-.3.4.2.3h.8v.8l.2.6.6-.3.4-.5.2-.4-.4-.3.5-.4h.7l.3.5h.7l.1.3.5.4.2-.4.3-.3.3.4.7.7v.7l-.3.3.3.3h.6l.1-.3.3.2.6.5v.6c.2 0 .2.2.3.2l.7-.5h1.4l.6.4-.1.5-.5.4.8.5h.1l1.5.1.1.7 1.5-.1.7-.7h.4v-.3h.4v-.8l.3-.3h.6l.2.4.1.7-.5.2v.4l.5.2v.7h.6l.3-.5a546 546 0 01.7.4l.6-1.3.9.2.7.8v.6l1-.2.1.7h.7l.4.1v.8h.3l.2.5.3.3.6.1v.5c0 .2.2.3.4.4h.4v1.1l.3.4h.4l.6-.9h.2l.2.4h.4l.7-.5.7-.1.1-.5V90c.2-.1.2-.2.3-.4l.4.3.2.5.4.1v.9h.8v.5l.3.2h.3v.4z" fill="#A7991E" stroke="#E5E5E5" stroke-width=".4" stroke-linecap="round" stroke-linejoin="round"/>
    <path fill-rule="evenodd" clip-rule="evenodd" d="M121.3 91.5l2 .3.2.4h.3l.1-.2.1-.7s0 0 0 0l.4.1.5.4v.4h.5v.5l.4.5c.2 0 .3.2.5.3h1l.6.4v.9a417.1 417.1 0 011 0l.6-.5.1-.2.4.1.4.6.3-.2h.5l.3-.3.3-.2.2-.4h.4l.2.5h.6l.5-.2-.5-.4.1-.4.6-.6c0 .2.2.3.3.5h.8l.3.6.2.4c0 .2.2.3.3.4h1l.3.4.3-.1v.5l.9.3v.6c-.2 0-.3.2-.4.3v.9h.4v.6h.2v.7l1 .2.1-.5h.4l.1.8.7.6h.7l.4-.3.2-.1s0 0 0 0v.7l.5.2v1h-.6l-.5.2.4.4h.3v.4l-.5.2-.5.3-.3.3.3.3.5.3h.5l.4.5.1.8-.3.3-.6.3v.7l.4.3.6-.4.3-.4.4.6.1.6.7-.4.5-.7.3.2c0 .2 0 .3.2.3h.1l.2-.3c.1-.1.2-.3.4-.3h.2l.2.1v.5l.8.2v.6l.4.4h1.7l.3.8.1.4v.4l.4.4v.4h-1v.7l.5.5v.4l-.2.8.5.2.9.3a94.8 94.8 0 00.5 1.3l-.3.7a2.8 2.8 0 01-.7.8l-.3.1c-.3 0-.5-.2-.7-.3l-.7-.1-.8-.6h-.7c0-.2 0-.4-.3-.5h-.3c-.2 0-.3.2-.4.3l-.2.2-.4.3-.2.7-.3.5v.4h.7l.1.5.3 1.3.7.3-.1.7v.3h-.4l.1 1.2.3.5h.7l.6-.4h.5l.2.5.2.6-.4.6-.7.8-.5 1.1h-1l-.2.6-.3.4-.1.5.5.3v.8l-.8.5-.6.2v.7l.5.5v.4l-.7.2.2.6-.6.2-.1-.6-.1-.2-.1.1-.4.4-.3.3-.5-.5a352 352 0 00-.9-.4v.4c0 .1 0 .2.2.3h.1l.4.7-.6.6-.2.3h-.2l-.7-.1-.1-.1-.2-.2-.3.1c0 .2-.2.3-.3.4l-1.3.1-.8-.2-.3-.2h-.5l-.5.4.2.3.5.7v.5c-.3 0-.6.2-.8.3l-.3.1v1.5a1 1 0 00-.5.3v.2l.2.2.6.2H137.3l.3.3v1.8l-.4.3v1l-.8.2-.5-.4-.2-.4-.3-.4-.1-.2-.3-.4-.4-.1-.2-.2-.3-.8-.6.1v1.2l-.1.6-.3.6-.2.7v1.4l-.4.3h-.5l-.4.2v.9l-.4.1v.5h-.4l-.2.4h-1.2l-.4-.4v-.6h-1.3l-.1-.5-.4-.3-.2-.7h-.3l-.2.4-.2.4h-.5l-.3.4h-.6l-.5-.5-.1-1.3-.6-.5v-.7l-.3-.2-.2-.6-.1-.5h-.5l-.2.3-.4.2-.3-.4-.5-.2-.5-.1v-.3l.5-.4-.1-.7h-.7l-.2.5-.9-.1v.5h.5l-.1.7h-.3v.3h-.3l-.3.5-.4.2-.2-.5-.6-.2v-.5l-.3-.3-.4.5-.4-.1-.1-.4a406.4 406.4 0 01-.6-1l-.1.4h-.5l-.4-.3-.3-.4-.4-.4-.8-.4-.3-.3-.3-.3h-.6l-.2.6-.3.3v.5h-.4v-.4c-.2-.1-.2-.2-.3-.4l-.5.5H109l-.2.3h-.6l-.4-.4h-.3l-.5.4-.4.2-.4-.2-.4-.4-.5-.4h-.7l-.3-.6v-1l-.3-.4-.7.1v1.3h-.5l-.5.2-.3-.9-1.1-.4-1-.2-2-.3-.5-.4-1.2.1-.7-.6h-.2v-.1-.6l-.4-.3v-.4l1-.5v-.4l-.5-.2.1-1h-.3l-.5.4-.4-.3h-.4v-1.7l-.4-.2v-.5h-.2v-.5l.5-.5.5.1.1-1 .5-.1c0 .1 0 .3.2.5h.7l.6-.4.1-1.1a2125.4 2125.4 0 00-.6-.7l.7-.6h.4l.6.8h.6l.4.6.6-.3.2-.7h.2v-.6l.7-.3V121l-.4-.4-.3-.3.4-.3V118l-.3-.3v-1l.7-.5v-.4h-.7l-.1-.6 1-1 .6-.1-.1-.3-.4-.2v-.3h.3v-.7h-.4a90 90 0 01.8-.6v-.5l-.4-.1v-.5l.5-.3v-.8l.5-.2.3-.7.9-.2.1.7h.6v-.4h1l.7.5h.5l-.1.2h1l.5-.3v-1l.7-.5v-.5c0-.2.2-.3.4-.4 0-.2.2-.3.3-.4v-.4l-.3-.1-.1-.4-.6-.4.3-.5h-.5l.2-1h-.5l.5-.7.2-.5-.3-.4v-.8a254.6 254.6 0 00.8-.7l.1.5h1l.3.4h.4l.3-.8.7-.4.3.4h.7v-.7l.9-.4v-.3l-.6-.3a1 1 0 01-.4-.4l-.3-.2h-.3v-.1l.4-.4-.1-.4.4-.3v-1h.8l.6-.6 1 .5h.5l.6.1.1-1 .3-.2v-.7l-.2-.4h-1.1v-1.7l.3-.3v-.4h.7l.1-.5.5.6h.7l.2.3.3-.1.2-.4 1.4.2-.5-.7.5-.4.4-.3.2-.5h.4l.2.5.7.5v.6z" fill="#A7991E" stroke="#E5E5E5" stroke-width=".4" stroke-linecap="round" stroke-linejoin="round"/>
    <path fill-rule="evenodd" clip-rule="evenodd" d="M146.2 127.2h1.6l.1.6-.4.5.5.4.5.6v.7l.4.4h.7l.4-.3v.4l.5.3.2.2h.3v.5h.4l.3.3h.6l-.3.6-.4.6v.5h.4l.5-.6h.4l.3.3.3.4.7-.1.3.1.3.4.1.1.3.2.7-.3.2-.7s0-.2.2-.3c0 0 0 0 0 0 .2 0 .3 0 .5.2l.2.1.3.3.2.5a157.7 157.7 0 011-1.2 139.2 139.2 0 00.4.8l.4-.1v-.3h1v-.8-1l.2-.2.3.3c.2 0 .4.2.5.3l.4.4-.5.3v.8l.8 1 .2.2.2.5.1.9h1c.4 0 .7 0 1 .2h1.1v-.2l.1-.2h.7l.3.4.2.3.6.7.3.6.7.3.3.5.2.1h.4l.3-.4.1-.4v-.4l.3-.5.4-.5h.4l.4.7.4-.3.8-.3.1-.3.2-.3.4.4c.1 0 .3 0 .4-.2l.2-.2.4.6.5.6v.4h1.2l.3-.3v-.5a109.3 109.3 0 01.8-.3l.2.4.1.4-.1.4-.4.6.3.4.3.7c.2 0 .3.2.5.3l-.6.3v.6l-.4.3v.1l.1.2.4.3.2.4v.3l-.1.4v.7l.3.2v1.2l.6.4-.2.4.2.3v.3h-.2l-.1.5-.2.4-.2.7v1c-.2 0-.3.2-.4.3l-.4 1v.2l-.7.7-.1.6-.6-.2h-.3l-.1.2-.4.4-.6.5-.2.5-.2.7-.2.8v.1l-.5.1-.2.5-.5.5-.4.2h-.8l-.4.3h-.2l-.4.3-.4.1-.2.2h-.7l.2.9v.2h-.2l-.3.2-.3.4-1.4.1-.5.5v.3h-.5l-.3.2-.3.4.2.2v.1l-.3.1h-.5l-.3.4-.6.4-.2.3v.3s0 0 0 0l-.5.1a131.1 131.1 0 00-.3.8l-.3-.6-.2-.6-.6-.1-.2.4v.4l-.6.2-.5.4-1 .4h-1.1l-.2-.4h-.3l-.2.7h-.8v-.4h-.4l-.2.8h-.6l-.2.7h-.5l-.1-.6h-.8l-.4.7-.2.4h-.4v1h-.7v.4h-.4l-.2.4-1.6-.1-.2.3-.8.4H147.3l-.6-.3-1.1-.1-.2-.2-.8-.4.5-.3h.3s0 0 0 0v-.4c0-.2-.2-.3-.4-.5h-.5a61.2 61.2 0 01-.6-.6v-.4l.4-.1v-.6l-.4-.4h-.4l-.6-.3.1-.4.3-.3.6-.3.1-.5h-.4c0-.3-.2-.5-.3-.6v-.9l-.4-.2v-.5l-.3-.2v-1.5h-.7v-.3h-.7l-.1-.4h-.6l-.4.4-.5.1c0-.2-.2-.4-.3-.5h-.7l-.2-.7h-.6l-.1.5h-.6l-.4-.8h-1a397.6 397.6 0 01-1 .6h-.4V155l-1.3-.2h-.4l-1-.4.3-.6.6-.3.4-.5v-.5l.5-.4.3.3h.3l.2-.4-.2-.4-.4-.3-.2-.3h-.5v-.7h.4l.5-.2v-.4h-.5l-.4-.1v-.3h-.6l-.4-.3h-1.5v-.7c0-.3-.2-.5-.3-.7v-.7l.5.1c0 .2.2.3.3.4v-.3c.2 0 .2-.2.3-.3h.6v-.3l-.3-.4.4-.1-.2-.7h.4l.4.5h.5v-.6l-.4-.1-.2-.6h-.3l-.1-.3-.3-.4h-.5v-.5l.4-.1v-.9l.4-.2h.5l.3-.3v-.5l.1-.9.2-.7.3-.6v-.7l.1-1 .6-.2c0 .3.2.5.3.8l.2.2.4.1.3.4v.2l.4.4.2.4.5.4.8-.2v-1l.3-.3v-1.8l-.2-.3h-1l-.6-.3-.2-.2.2-.2.2-.2h.1V134l.6-.2.6-.2v-.5l-.5-.7-.2-.3c.2 0 .3-.2.5-.3l.5-.1a263.2 263.2 0 001.1.5l1.3-.2.3-.4.3-.1.3.3h1l.1-.2.1-.1.5-.5a265.6 265.6 0 00-.7-1.4l.2-.1h.1l.7.6.4.4.3-.4.4-.4.2.1v.3l.1.4.6-.2-.2-.6.8-.2v-.4l-.6-.5v-.7l.6-.2.8-.5s0 0 0 0z" fill="#A7991E" stroke="#E5E5E5" stroke-width=".4" stroke-linecap="round" stroke-linejoin="round"/>
    <path fill-rule="evenodd" clip-rule="evenodd" d="M176.6 136.5v-.5-.6l-.4-.2.3-.9.7-.4v-.7l-.5-.5-.4-.2.2-.9.4-.4v-1.7h1v-.7l-.6-.1-.4-.2.4-.7v-.7l.3-.3.3-.6-.3-.6-.3-.1-.2.3-.6-.5-.7-.1v-.6l.5-.6.6-.4.6.3h.4l.4-1.1.2-.5-.2-.3c-.2 0-.3 0-.4-.2l-.1-.3v-.8l-.1-.1-.2-.5-.1-1-.7-.3h-.6l-.3.4-.4.3-.5-.4h-.7l-.3-.5-.4-.4-.1-.4-.4-.2v-.5h.4v-.7l-.1-.1h-.2v-.2l.2-.3h.5l.1.4.5.3h.5l.2.7.4.3c0-.2.2-.3.3-.5l.2-.6.2-.3 1 .1.3-.3.2-.6.6-.3 1-.3v-.5l-.5-.3-.4-.3v-.4l-.6-.3v-.3l.6-.5.8-.2 1-.5v-1.2l-.3-.5-1-.2-.5.3-.4-.3.1-.5.5-.2.4-.6.5-.6-.4-.4v-.4l-.4-.5-.3-.3v-.7l.6-.6.7-.3.3-.2h.7l1.1-1 .8-.2.5.7 1.2.2v-.6l.3-.6h.3l.1.5.8-.1.1.4h1.4l.3-.5.3-.7.6.1.2.6v.5c0 .1 0 .3.2.4h.6l.6-.7h1l.5-.7.2-.3.1-.6c.2 0 .3-.2.5-.3h.3l.3.3v.4h.6l.3.3h1v.6h.2l.5-.2c0-.2.2-.3.3-.4h.3s0 0 0 0v-.8-.4l-.3-.4v-.5l.3-.3.6-.5 1 1 .8.1.3.6.6.2.4-.7.6.3v.5l.5.2.6-.3-.4-.4.1-.5.5-.4.6-.2.2.3.4-.2v-.4l-.6-.1v-.1-.3-.2l.5-.4.3-.4v-.2l.5-.2s0 0 0 0h1l.8.2v-.4l-.8-.3-.4-.5.3-.6V96l.3-.2.5-.3.2-.1.5-.5.4-.8 2.5-.1h-1v.6l-.3.6v.3l.3.1.3.1.8.3c.2.1.2.3.3.4h.8l.2-.3.1-.1h.2c.3 0 .5.2.7.3l.3.1h.2l.3.2.4.8.3.1h.4l.1-.3.1-.2h1.3c.2 0 .3.2.3.4v.2h-.3l-.3.1v.3l.1.4.2.2.5.3.2.5c0 .1 0 .2.2.3H216c0-.1 0-.2.2-.3h.7l.4.2a3.7 3.7 0 01.8 1.7v1.6l.3.2c.1 0 .3 0 .4.2v.3l-.1.5-.2.4-.4.5-.4.3v.3l.2.4-.3.3h-.2v.3l.1.2.2.2.2.3.1.5-.1.3h-.8-.2a1 1 0 00-.1.7v.5l.4.4c.2 0 .3.2.4.3l.1.5v.7l-.3.2c-.3.2-.5.5-.8.6h-.8v.1l-.2.3-.2.6v.2l.2.1.1.2.4.8v1l-.2.2-.4.3v1.5l.2.8.2.5.1.1h.3l.1.2c.1 0 .2 0 .2.2v.1l-.2.5.1.4h.2l.2.1h.2l.4.1c.1 0 .2.2.1.3l-.1.5c0 .1 0 .2.2.3l.5.3.2.4v.2h-.4v.8l.1.2h.6l.2.2.1.5.3.3v.2l-.4.1-.2.1V125.2l.1.2v.3l-.2.3-.3.4-.4.6-.2.6v.4l.2.5.1.2h.1l.7-.1h.1l.3.2.3.3.3.1v.4c.1.3 0 .6.2.9 0 0 0 0 0 0h.2v.8l.7.4.3.1.4.2V132.6l.2.2.7.1.4.4.2.3v.5l-.2.2-.3.6.4.2.1.3v.3l.2.1h.3l.5.4v.3l-.1.5-.2.4.1.4.2.6.2.3.2.1h.3l.4.4v.6l.1.5.4.5.3.6.4.5.6.5.8.5.6.3 1 .3.2.2v.2l-.4.1-.4.2-.6.5c-.3.1-.5.2-.8.1l-.3-.1-.5-.4h-.4c-.3 0-.5.2-.7.4-.3.2-.5.5-.6.8v.4c0 .2 0 .3.2.4l.5.3.6.1.3.2v.2l-.1.2-.1.3v.8c.2.2.5.2.7.2h.4l.3.3-.1.3-.2.3v.3l.2.3.2.8c0 .3 0 .5.2.8 0 .3.3.6.4 1v.4a9 9 0 01-.2 1.7l-.4 1.2-.3 1v.1h-.2l-.2.2-.2.4a17.4 17.4 0 01-1.1 1.6h-.2-1.7-.2l-.1.1-.5.2h-1.5l-.4.1-.1.1-.4.2-.6.2c-.3 0-.5.1-.7.3a1 1 0 00-.4.4l-.2.7v.7l-.3.1-.5.2-.3.2-.6.5a1 1 0 00-.3.4l-.1.3.1.6v.2h-.5l-.5.1s0 0 0 0h-.4l-.4-.3v-1l-.4-.1-.2.4h-.4l-.2-.3-.7-.1-.2-.5c0-.2.2-.3.3-.4l.1-.8-.3-.2-.6-.5s0 0 0 0v-1l-.5-.5h-.4l-.3.2-.4.6v.3h-.6v.3h-.5l-.1.4-.5.1a83.5 83.5 0 00-.5-.8l-.3-.4c0-.2-.2-.3-.3-.4h-.3l-.4.7-.4.6v.3c-.2 0-.3.2-.4.3l-.6.2-.4.6-.4.3-.4.5v.5l-.1.3h-.2-.3l-.3-.4-.7-.3h-.3v.3s0 0 0 0l-.8.1h-.4v-.5h-.6l-.1.4-.7.1c0-.2-.2-.3-.3-.5h-.4l-.7-.2h-.5l-.3.2-.5.5h-.5l-.1-.1-.2-.4h-.5l-.6-.1-.4-.1h-.3l-.1-.1c-.1-.1 0-.3 0-.4v-.3l.9.2.5-.2c0-.3.2-.5.3-.8l-.1-.1-.3-.2h-.7l-.3.5h-.6l-.5-.5h-.6l-.2.4-.4.3-.5.2-.2-.5-.3-.4h-.5s0 0 0 0v-1h-.3c0-.2-.2-.2-.2-.3h-.5v-.5l.4-.2h.5l.2-.5.2-.1v-.5l-.3-.3.2-.4h.6l.2.5.5.2h.6l.3-.2.7-.4s0 0 0 0l.1-.5h-1.2l.3-.4.4-.1v-.3h-.5l-.3-.3-.3-.6h-.2v-.5l.5-.2v-.4a36.7 36.7 0 01-.2-1l-.4.2-.2.3h-.3c0-.1-.1-.2 0-.2v-.4s0 0 0 0h-.3l-.2.3h-1.1l-.3-.3-.4-.4-.4-.2-.2-.4-2.2-.1v-.5l-.9-.5-.3-.2h-.6l-.4-.3.4-.5.3-.5v-.6l.4-.2v-1.3-.3l-1-.1v-.5h.3v-.4l-.4-.1h-.3l-.3-.3-.5-.4-1.4-.2-.1.4h-.1l-.3.3-.3.3-.3.3-.3.6h-.5a1 1 0 01-.4-.2h-.1l-.9-.2-.3-.6h-.3v-.3l-.2-.3.2-.4-.5-.4v-.6l-.1-.6-.3-.2v-.7l.1-.6-.1-.3-.2-.2v-.1l-.4-.3v-.2l.1-.2.3-.1v-.6l.6-.3-.5-.3-.3-.7-.3-.4.4-.6.1-.4-.1-.5-.2-.3h-.4zm38.8 28.9s0 0 0 0v0zm0-.1h0zm0 0h0zm.1-.1h0zm0 0s0 0 0 0h0zm0 0s0 0 0 0h0zm0 0v0zm0 0h0zm0 0h0zm.2-.2h0zm0 0s0 0 0 0v0zm0 0s0 0 0 0v0zm0 0s0 0 0 0h0zm0 0h0zm0 0h0z" fill="#A7991E" stroke="#E5E5E5" stroke-width=".4" stroke-linecap="round" stroke-linejoin="round"/>
    <path fill-rule="evenodd" clip-rule="evenodd" d="M130.8 62.7a1 1 0 010 0zm.1.4h0zm0 0v0zm0 0v0zm0-.1v0zm0 0s0 0 0 0v0zm0 0v0zm0 0h0zm0-.1s0 0 0 0v0zm0 0s0 0 0 0v0zm0-.1s0 0 0 0v0zM207 94s0 0 0 0h-.2l-.4-.5-.4-.5-.2.5-.5.4h-.4l-.3-.9v-.8l-.8-.2-.7-.5-.6-1h-.8l-.2.5-1.2.2-.7-.5-.7-.2-.8-.3-.5.4-.4-.6-.4-.6-.8.5h-.8l-.4-.2h-.6l-.4-.6a3 3 0 01-.6-.6l-.1-.2.1-.4.3-.4v-.2l-.4-.2-.5-.2h-.2v-.3-.6h.2l.4-.1v-.2-.4l-.2-.1-.5-.4-.6-1-.1-.2-.7-.6-.5-.7v-.1-.1h.7l.2-.7.3-.3v-.3c0-.2-.2-.3-.4-.5 0 0 0 0 0 0l-.5-1 .4-.4v-1l.1-.2v-.5l-.2-.3.5-.1V76c-.1 0-.3 0-.4-.2-.2 0-.4-.2-.5-.4l-.9.3v.7l-.8.2-1-.3-.6-.1v-.7l-.4-.6.1-.9.3-.4h.2l.3.2.1.1-.2-.6-.1-.6H186l-.1.7-.9.2c-.1 0-.3 0-.4.2l-.6.3-.2-.7h-.6l-.3.6h-.4l-.6-.6v-.7h-.4l-.5-.4v-1l.6-.2.2-.3-.2-.2v-.3c-.2 0-.3 0-.3-.2l-.1-.4-.4-.4-1-.3h-.7l-.5-.6-.3-.7.5-.1.1-.6h.5v-.5l.5-.4-.2-.4c-.2 0-.3 0-.4.2v.1l-.2.2h-.4l-.8.1-.3-.6-.4-.6-.2-.5-.3-.4-.6.3h-.8l-.5-.2-.3-.5v-1.2c-.2 0-.2-.1-.3-.2l-.2-.6v-.4l.2-.5v-.1h-.2-.1l-.4-.4-.2-.5-.4-.2v-.5l.4-.1v-.8-.6l.4-.3.5-.2-.2-.4-.7-.3.2-.4.5-.1v-.3l-.4-.4-.2-.6-.5-.6-.2-.4-.3-.3-.1-.8-.2-.6-.4-.6h0l-1.1-.1-.1.6h-.4l-.3.3h-1l-.5 1-.3.3-.8-.1-.3.5h-1.3l-.6-.4h-.3l-.2.4h-.5l-.3.4h-.5l-.1.3h-.5l-1.2 1.3-.5.2a104.9 104.9 0 01-.7.6h-.5l-.1-.3-.4-.3-.5-.2c0-.1 0-.2-.2-.3l-.1.1a1 1 0 01-.5.3H157c-.2 0-.4.2-.5.4l.4.5v.5l-.4.1h-.6l-.3.4-.4.3-.3-.3-.6-.2-.4-.2h-.8l-.6.1-.6.3-.2.3v.7l-.5.4-.3.4h-.5l-.3.2-.3.5-.4-.2-.2-.3-.2.2-.2.5H148l-.6-.4-.6-.2-.4.1-.4.7-.4.4-.3.5-.3.5v.8c.2 0 .2.2.3.2l-.1.7-.5-.3-.4-.4c-.2 0-.3.2-.5.3h-.4l-.4.2h-.4l-.8-.2-.4-.4h-.8l-.3-.2-.3.5-.4.1-.4-.4-.2-.6h-.4l-.4.6s0 0 0 0h-.7l-.2-.5-.3.1a103.7 103.7 0 00-.3.8h-.6l-.3-.3-.8-.8h-.5v-.7l.1-.3.2-.5h-.4l-.6.1-.8.8-.4.4.2.3v.4l-.3.5h-.4l-.3-.3h-.8s0-.1 0 0c-.1 0-.2 0-.3.2l-.2.2h-.4v.4l-.4.3-1 .2s-.2 0-.3.2v.1l-.2.3.3.6.2.2v.6l-.1.2-.2.2.3.1.4.5.3.4-.1.6-.2.4.2.5V70.3l-.5.1-.6-.5-.2-.6h-.7c0-.2-.2-.3-.3-.4a1 1 0 00-.5-.1h-.1v.5l.4.6.1.2-.1.3h-.6l-.4.3-.5.3-.4.2-.3-.4v-.3c-.3 0-.5-.2-.7-.3v.7l.2 1 .4.6.5.2.5.4v.3h-.4l-.2.2-.5.2-.9.6v.4l.6.8.4.6c.3 0 .5.2.8.3v.1c.2 0 .2.2.3.3v.2l.3.3-.1.3a3 3 0 00-.2.6v.3s0 0 0 0l.4.2-.2.3-1-.2-.2-.3h-.5V78a1 1 0 00-.4.2v1.5l.4.2v.2l-.8.2-.4.6-.6.5v.4c.2 0 .3.2.4.3h.7l.1.2v.3l-.3.2-.5.8-.5.2-.4-.3-.2.4v.2l.1.6-.4.2v.5h.7l.6.4-.3.4-.5.5-.5.8v.5l-.4.1-.5-.4h-.6l-.1.7.7.2.3.4v1l-.4-.1.2.5.7.5v.6l2 .3.3.4h.3l.1-.2.1-.7s0 0 0 0l.4.1.5.4v.4h.5v.5l.4.5c.2 0 .3.2.5.3h1l.6.4v.9a283.7 283.7 0 011 0l.6-.5.1-.2.4.1.4.6.3-.2h.5l.3-.3.3-.2.2-.4h.4l.2.5h.6l.5-.2-.5-.4.1-.4.6-.6c0 .2.2.3.3.5h.8l.3.6.2.4c0 .2.2.3.3.4h1l.3.4.3-.1v.5l.9.3v.6c-.2 0-.3.2-.4.3v.9h.4v.6h.2v.7l1 .2.1-.5h.4l.1.8.7.6h.7l.4-.3.2-.1s0 0 0 0v.7l.5.2v1h-.6l-.5.2.4.4h.3v.4l-.5.2-.5.3-.3.3.3.3.5.3h.5l.4.5.1.8-.3.3-.6.3v.7l.4.3.6-.4.3-.4.4.6.1.6.7-.4.5-.7.3.2c0 .2 0 .3.2.3h.1l.2-.3c.1-.1.2-.3.4-.3h.2l.2.1v.5l.8.2v.6l.4.4h1.7l.3.8.1.4v.4l.4.4v.4h-1v.7l.5.5v.4l-.2.8.5.2.9.3a94.8 94.8 0 00.5 1.3l-.3.7a2.8 2.8 0 01-.7.8l-.3.1c-.3 0-.5-.2-.7-.3l-.7-.1-.8-.6h-.7c0-.2 0-.4-.3-.5h-.3c-.2 0-.3.2-.4.3l-.2.2-.4.3-.2.7-.3.5v.4h.7l.1.5.3 1.3.7.3-.1.7v.3h-.4l.1 1.2.3.5h.7l.6-.4h.5l.2.5.2.6-.4.6-.7.8-.5 1.1h-1l-.2.6-.3.4-.1.5.5.3v.7h1.6l.1.6-.4.5.5.4.5.6v.7l.4.4h.7l.4-.3v.4l.5.3.2.2h.3v.5h.4l.3.3h.6l-.3.6-.4.6v.5h.4l.5-.6h.4l.3.3.3.4.7-.1.3.1.3.4.1.1.3.2.7-.3.2-.7s0-.2.2-.3c0 0 0 0 0 0 .2 0 .3 0 .5.2l.2.1.3.3.2.5.5-.4.2-.5.4-.3v.7l.3.1.4-.1v-.3h1v-.8-1l.2-.2.3.3a157.7 157.7 0 00.9.7l-.5.3v.8l.8 1 .2.2.2.5.1.9h1a263.4 263.4 0 001.9.2h.2v-.2l.1-.2h.7l.3.4.2.3.6.7.3.6.7.3.3.5.2.1h.4l.3-.4.1-.4v-.4l.3-.5.4-.5h.4l.4.7.4-.3.8-.3.1-.3.2-.3.4.4c.1 0 .3 0 .4-.2l.2-.2.4.6.5.6v.4h1.2l.3-.3v-.5l.4-.2v-.1-.5-.6l-.4-.2.3-.9.7-.4v-.7l-.5-.5-.4-.2.2-.9.4-.4v-1.7h1v-.7l-.6-.1-.4-.2.4-.7v-.7l.3-.3.3-.6-.3-.6-.3-.1-.2.3-.6-.5-.7-.1v-.6l.5-.6.6-.4.6.3h.4l.4-1.1.2-.5-.2-.3c-.2 0-.3 0-.4-.2l-.1-.3v-.8l-.1-.1-.2-.5-.1-1-.7-.3h-.6l-.3.4-.4.3-.5-.4h-.7l-.3-.5-.4-.4-.1-.4-.4-.2v-.5h.4v-.7l-.1-.1h-.2v-.2l.2-.3h.5l.1.4.5.3h.5l.2.7.4.3c0-.2.2-.3.3-.5l.2-.6.2-.3 1 .1.3-.3.2-.6.6-.3 1-.3v-.5l-.5-.3-.4-.3v-.4l-.6-.3v-.3l.6-.5.8-.2 1-.5v-1.2l-.3-.5-1-.2-.5.3-.4-.3.1-.5.5-.2.4-.6.5-.6-.4-.4v-.4l-.4-.5-.3-.3v-.7l.6-.6.7-.3.3-.2h.7l1.1-1 .8-.2.5.7 1.2.2v-.6l.3-.6h.3l.1.5.8-.1.1.4h1.4l.3-.5.3-.7.6.1.2.6v.5c0 .1 0 .3.2.4h.6l.6-.7h1l.5-.7.2-.3.1-.6c.2 0 .3-.2.5-.3h.3l.3.3v.4h.6l.3.3h1v.6h.2l.5-.2c0-.2.2-.3.3-.4h.3s0 0 0 0v-.8-.4l-.3-.4v-.5l.3-.3.6-.5 1 1 .8.1.3.6.6.2.4-.7.6.3v.5l.5.2.6-.3-.4-.4.1-.5.5-.4.6-.2.2.3.4-.2v-.4l-.6-.1v-.1-.3-.2l.5-.4.3-.4v-.2l.5-.2s0 0 0 0h1l.8.2v-.4l-.8-.3-.4-.5.3-.6V96l.3-.2.5-.3.2-.1.5-.5.4-.8h.6zM131 63v0zm0 0h0zm0-.1h0zm0 0s0 0 0 0v0zm0 0c0-.1 0 0 0 0v0zm0-.1h0z" fill="#A7991E" stroke="#E5E5E5" stroke-width=".4" stroke-linecap="round" stroke-linejoin="round"/>
    <path fill-rule="evenodd" clip-rule="evenodd" d="M63.2 13.3h-.1.1zm-.1 0H63zm-.1 0zm0 0c0 .3 0 .6.2 1v.6l.5.3V16h.2l.5.4.7.3.3.6.1.4-.4.8.3.6.2.5.1.6H65c-.2 0-.3 0-.4.2l.4.6v.7l-.3.3.2.3.8.1v.6c.2.1.3.2.3.4l.1.7-.8.2-.3.5h-1.5l-.5-.1-.4.4.2.8.5.2v.7l-.4.4.5.2.6.6v.5l.3.4.4.3-.1.6h-.4v.7l.6.2.3.4-.4.5-.3.5-.2.3.3.7v.7h.3c0-.2.2-.3.3-.4h.4l.2.6.6.4.3.4-.5.4.2.5h.7l.7.9h.9v1.5h-.4l-.4-.5H67l-1 .5.2 1 .8.7.2.5.6.2v.5l-1 1-.6.2-.5.4.3.5.5.2v2.2l.2.2-.3.1-.3.2-.4.4-.5-.3-.3-.3-.6.2v.7l-.7.4-.3.1v1.4l-.3.4-.2 1-1.2 1.2-.6.5h-.8l-.3.2-.4-.4h-.8c0 .2-.2.4-.3.5l-.6.1-.3-.5-.6-.2v.5l-.4.4.6.3-.3.5.4.7v1l1 .2.6.7 1 .2.8.3.8.5.4.5.3.3.6.3v.4H62l-.7.6-.3.6v1l-.1.4-.3.3-.5-.2-.3-.3-.4-.4H59l-.4.6-.1.6-.1.4-.3.7-.6-.3-.3.1-.6.6H56l-.3-.3-.6.4.3.4.1.5h-.4l-.4.6c-.2 0-.3.2-.4.3.2 0 .3.2.4.3a.6.6 0 010 .5c0 .1 0 .3-.2.4 0 .2-.1.3-.2.3l-.3.1-.2.3-.1.1-.2.4a1.8 1.8 0 01-.4.4l-.3-.6-.4-.2-.7.4h-.6l-.5.2-.3.3-.2.3a1020.9 1020.9 0 01-1.2.3 2.2 2.2 0 01-.5-.5l-.5.1-.5-.3-.2-.3-.7.1-.5-.2v-.6l.6-.5v-.7l-.4-.5-.7-.2-.5-.4-.6-.2-.8.4c0 .3-.2.5-.3.8l-.7.5-.3.7h-.6c0 .2.2.4.3.5l-.1.6a714.4 714.4 0 00-1 .3l.3.8-.5.1h-.5l-.5-.2-.3.2-.4.3-.4.1h-.5L38 69h-.8l-.1-.4-.4-.2h-.5l-.5.1-.7.4-.7.4h-.5l-.7.3-.5.7-.5.2h-.9l-.3-.4-.2.3.4.6c0 .2.2.3.3.5v.4l.3.3-.5.4-1 .4-.7.2-.8.4-1 .3-.7.3h-.5l-.4.7-.4-.2-.1-.4-.3-.5-.4-.1-.2.5-.4.4-.4-.3-.1-.6-.3-.2-.7-.4-.4-.1-.4.1.1.6.4.3v.7h-.9l-.3.2v.5l.2.7-.3.3-.3.3-.3.3h-.7L20 79l-.5.4-.2.6-.5.4.1.3v.2h-.5l-.2.6-.6.3-.5-.6-.4-.5a1 1 0 00-.2-.3H16.2c-.1 0-.2 0-.2.2l-.5.5v.4h-.1l-.1.1v.5l-.1.2H15l-.1-.2h-.1c0-.2-.1-.2-.2-.3a2 2 0 00-.2-.4h-.1l-.2-.1H14l-.2.1-.1-.2v-.1h-.1l-.2-.1H13l-.4-.2-.2-.1v-.2-.2l-.4-.4h-.2-.2-.1l-.2-.1v-.3-.2h-.1-.1v-.1l-.1-.3v-.2l-.1-.2-.2-.2c-.1-.1-.2 0-.2 0l-.1-.1V78v-.2h-.2-.2l-.1-.1-.3-.3-.2-.3-.1-.1H9h-.1V77v-.2h-.5v-.1l-.6-.6-.1-.1-.5-.2-.1-.2v-.2-.1L7 75l-.2-.1H6.2h-.1l-.2-.3H5h-.2l-.2-.2v-.3-.3l.1-.3.4-.2.4-.3.2-.2v-.2-.3h-.1v-.2h-.3V72v-.5-.3-.1H5l-.1-.6V70 70H5.7v-.1l.1-.1h.1l.1-.1v-.2h.4v-.1-.1-.2h.1l.2-.1.5-.1.3-.2.3-.3.4-.4h.2l.2-.1.2-.1.3-.4c.2 0 .3-.2.4-.3h.1v-.2-.2l.2-.1h.2v-.2-.3-.3l.2-.1v-.1l.2-.1a7.1 7.1 0 000-2.3L10 63H10a1 1 0 01-.1-.4v-.2l.3-.2v-.3-.2-.2l.2-.2h.4l.2.1s.1-.1 0-.2V61v-.2h.1l.3-.2c.1 0 .2 0 .3-.2h.1V60a2 2 0 00-.2-1V59h-.4v-.3l.1-.1-.1-.2-.2-.3v-.7-.7-.3-.1h-.2l-.2-.1v-.7-.5-.2h-.1-.1l-.1-.1v-.1-1-.6l-.1-.2-.3-.1v-.1-.2-.7-.3-.1l-.3-.1-.4-.5-.3-.3v-.2-.4-.1h-.2l-.2-.2v-.3-.2h.2l.1-.1.2-1.2-.1-.7-.2-.2c-.1-.2-.3-.2-.4-.3l-.2-.2v-.2-.4l-.1-.3v-.1h-.1V45 45l.1-.3v-.3-.2l.2-.1h.2l.3-.2.1-.2-.1-.2-.3-.1-.2-.1V43c-.1 0-.1 0 0-.1l.2-.3v-.1-.3h.4L9 42v-.3-.2-.6l-.1-.4-.2-.3-.2-.2-.3-.3-.5-.3h-.2c-.1-.2-.3-.3-.5-.3l-.2-.2h-.1l-.4-.3-.4-.6-.2-.9v-.5l-.4-.4.6-.4h.8c.2 0 .3.2.5.3l.7.1h.6l.4.3.6-.1.4-.3.6-.3.4-.4 1-.6.6-.2 1-.6.7-.3.6-.2.2-.3.8.1.1-.4H17.7l.5-.3.3-.1.8-.2.7-.3.2-.2.3-.1H22l.2-.1v-.3l.1-.1.2-.1.4-.1.3-.1.9-.3.7-.4h.2c.5-.3 1-.4 1.5-.5l1.2-.4 1-.4.4-.1.8-.2.4-.2.3-.2h1.9V28l.1-.4h.1l.7-.1H35a2.7 2.7 0 00.5 0l.6-.4.2-.1c0-.2.1-.3.3-.4H37l.1.2h.3v-.3H38.3l.2.2.4-.5h.2l.4-.2a20.2 20.2 0 00.8-.2h.8l.5-.2.3-.2.2-.1.6-.3h.3l.9-.1h.2a6.2 6.2 0 01.8-.4h1.9l1-.4.8-.3 1-.3a9.7 9.7 0 002.3-1.7l1-1.1.5-.5.4-.3.8-1 .8-1v-.3l.4-.5a13.6 13.6 0 011-1.3l.5-.6.2-.2 1-.5.3-.4h.2l.8-.3 1-.4h.4l1.4-.2h.4" fill="#A7991E"/>
    <path d="M63 13.3c0 .3 0 .6.2 1v.6l.5.3V16s0 0 0 0V16s0 0 0 0 0 0 0 0h.2l.5.4.7.3.3.6.1.4-.4.8.3.6.2.5.1.6H65c-.2 0-.3 0-.4.2l.4.6v.7l-.3.3.2.3.8.1v.6c.2.1.3.2.3.4l.1.7-.8.2-.3.5h-1.5l-.5-.1-.4.4.2.8.5.2v.7l-.4.4.5.2.6.6v.5l.3.4.4.3-.1.6h-.4v.7l.6.2.3.4-.4.5-.3.5-.2.3.3.7v.7h.3c0-.2.2-.3.3-.4h.4l.2.6.6.4.3.4-.5.4.2.5h.7l.7.9h.9v1.5h-.4l-.4-.5H67l-1 .5.2 1 .8.7.2.5.6.2v.5l-1 1-.6.2-.5.4.3.5.5.2v2.2l.2.2-.3.1-.3.2-.4.4-.5-.3-.3-.3-.6.2v.7l-.7.4-.3.1v1.4l-.3.4-.2 1-1.2 1.2-.6.5h-.8l-.3.2-.4-.4h-.8c0 .2-.2.4-.3.5l-.6.1-.3-.5-.6-.2v.5l-.4.4.6.3-.3.5.4.7v1l1 .2.6.7 1 .2.8.3.8.5.4.5.3.3.6.3v.4H62l-.7.6-.3.6v1l-.1.4-.3.3-.5-.2-.3-.3-.4-.4H59l-.4.6-.1.6-.1.4-.3.7-.6-.3-.3.1-.6.6H56l-.3-.3-.6.4.3.4.1.5h-.4l-.4.6c-.2 0-.3.2-.4.3.2 0 .3.2.4.3a.6.6 0 010 .5c0 .1 0 .3-.2.4 0 0 0 0 0 0 0 .2-.1.3-.2.3 0 0 0 0 0 0l-.3.1-.2.3-.1.1-.2.4a1.8 1.8 0 01-.4.4l-.3-.6-.4-.2-.7.4h-.6l-.5.2-.3.3-.2.3a1020.9 1020.9 0 01-1.2.3 2.2 2.2 0 01-.5-.5l-.5.1-.5-.3-.2-.3-.7.1-.5-.2v-.6l.6-.5v-.7l-.4-.5-.7-.2-.5-.4-.6-.2-.8.4c0 .3-.2.5-.3.8l-.7.5-.3.7h-.6c0 .2.2.4.3.5l-.1.6a714.4 714.4 0 00-1 .3l.3.8-.5.1h-.5l-.5-.2-.3.2-.4.3-.4.1h-.5L38 69h-.8l-.1-.4-.4-.2h-.5l-.5.1-.7.4-.7.4h-.5l-.7.3-.5.7-.5.2h-.9l-.3-.4-.2.3.4.6c0 .2.2.3.3.5v.4l.3.3-.5.4-1 .4-.7.2-.8.4-1 .3-.7.3h-.5l-.4.7-.4-.2-.1-.4-.3-.5-.4-.1-.2.5-.4.4-.4-.3-.1-.6-.3-.2-.7-.4-.4-.1-.4.1.1.6.4.3v.7h-.9l-.3.2v.5l.2.7-.3.3-.3.3-.3.3h-.7L20 79l-.5.4-.2.6-.5.4.1.3v.2s0 0 0 0h-.5l-.2.6-.6.3-.5-.6-.4-.5a1 1 0 00-.2-.3H16.2c-.1 0-.2 0-.2.2 0 0 0 0 0 0l-.5.5v.4s0 0 0 0h-.1l-.1.1s0 0 0 0v.5l-.1.2H15l-.1-.2h-.1c0-.2-.1-.2-.2-.3a2 2 0 00-.2-.4h-.1l-.2-.1H14l-.2.1s0 0 0 0l-.1-.2v-.1h-.1l-.2-.1H13l-.4-.2-.2-.1s0 0 0 0v-.2-.2s0 0 0 0l-.4-.4h-.2-.2-.1l-.2-.1v-.3-.2s0 0 0 0h-.1-.1v-.1l-.1-.3v-.2l-.1-.2-.2-.2s0 0 0 0c-.1-.1-.2 0-.2 0l-.1-.1V78s0 0 0 0v-.2s0 0 0 0h-.2-.2l-.1-.1-.3-.3-.2-.3-.1-.1H9h-.1V77v-.2s0 0 0 0h-.3s0 0 0 0h-.2v-.1l-.6-.6-.1-.1-.5-.2s0 0 0 0l-.1-.2v-.2-.1L7 75l-.2-.1H6.2h-.1s0 0 0 0l-.2-.3s0 0 0 0H5h-.2l-.2-.2v-.3-.3s0 0 0 0l.1-.3.4-.2.4-.3.2-.2v-.2-.3h-.1v-.2h-.3V72s0 0 0 0v-.5-.3s0 0 0 0V71H5s0 0 0 0 0 0 0 0H5l-.1-.6V70 70H5.7s0 0 0 0 0 0 0 0v-.1s0 0 0 0l.1-.1h.1l.1-.1v-.2s0 0 0 0h.4v-.1-.1-.2s0 0 0 0h.1l.2-.1.5-.1.3-.2.3-.3.4-.4h.2l.2-.1.2-.1.3-.4c.2 0 .3-.2.4-.3h.1v-.2-.2s0 0 0 0l.2-.1s0 0 0 0h.2v-.2-.3-.3s0 0 0 0l.2-.1v-.1l.2-.1a7.1 7.1 0 000-2.3L10 63H10a1 1 0 01-.1-.4v-.2s0 0 0 0l.3-.2s0 0 0 0v-.3-.2-.2l.2-.2s0 0 0 0h.4l.2.1s0 0 0 0 .1-.1 0-.2V61v-.2h.1l.3-.2s0 0 0 0c.1 0 .2 0 .3-.2h.1V60a2 2 0 00-.2-1V59h-.2s0 0 0 0h-.2v-.3l.1-.1-.1-.2-.2-.3s0 0 0 0v-.7-.7-.3-.1h-.2l-.2-.1s0 0 0 0v-.7-.5-.2h-.1-.1l-.1-.1v-.1-1-.6l-.1-.2-.3-.1v-.1-.2-.7-.3s0 0 0 0v-.1l-.3-.1s0 0 0 0l-.4-.5-.3-.3v-.2-.4-.1h-.2l-.2-.2s0 0 0 0v-.3-.2s0 0 0 0h.2l.1-.1s0 0 0 0l.2-1.2-.1-.7-.2-.2c-.1-.2-.3-.2-.4-.3l-.2-.2v-.2-.4l-.1-.3v-.1h-.1V45 45l.1-.3v-.3-.2s0 0 0 0l.2-.1h.2l.3-.2s0 0 0 0l.1-.2-.1-.2s0 0 0 0l-.3-.1-.2-.1V43c-.1 0-.1 0 0-.1 0 0 0 0 0 0l.2-.3v-.1-.3s0 0 0 0 0 0 0 0h.4L9 42v-.3-.2-.6l-.1-.4-.2-.3-.2-.2-.3-.3-.5-.3h-.2c-.1-.2-.3-.3-.5-.3l-.2-.2h-.1l-.4-.3-.4-.6-.2-.9v-.5l-.4-.4.6-.4h.8c.2 0 .3.2.5.3l.7.1h.6l.4.3.6-.1.4-.3.6-.3.4-.4 1-.6.6-.2 1-.6.7-.3.6-.2.2-.3.8.1.1-.4H17.7l.5-.3.3-.1.8-.2.7-.3.2-.2.3-.1H22l.2-.1v-.3l.1-.1.2-.1.4-.1.3-.1.9-.3.7-.4h.2c.5-.3 1-.4 1.5-.5l1.2-.4 1-.4.4-.1.8-.2.4-.2.3-.2h1.9s0 0 0 0V28l.1-.4s0 0 0 0h.1l.7-.1H35a2.7 2.7 0 00.5 0l.6-.4.2-.1c0-.2.1-.3.3-.4H37l.1.2h.3s0 0 0 0 0 0 0 0v-.3H38.3l.2.2.4-.5h.2l.4-.2a20.2 20.2 0 00.8-.2h.8l.5-.2.3-.2.2-.1.6-.3h.3l.9-.1h.2a6.2 6.2 0 01.8-.4h1.9l1-.4.8-.3 1-.3a9.7 9.7 0 002.3-1.7l1-1.1.5-.5.4-.3.8-1 .8-1v-.3l.4-.5a13.6 13.6 0 011-1.3l.5-.6.2-.2 1-.5.3-.4h.2l.8-.3 1-.4h.4l1.4-.2h.4m.3 0h-.1.1zm-.1 0H63s0 0 0 0zm-.1 0a.7.7 0 010 0z" stroke="#E5E5E5" stroke-width=".4" stroke-linecap="round" stroke-linejoin="round"/>
  </g>
  <defs>
    <filter id="filter0_d" x="-2" y="0" width="238" height="220.3" filterUnits="userSpaceOnUse" color-interpolation-filters="sRGB">
      <feFlood flood-opacity="0" result="BackgroundImageFix"/>
      <feColorMatrix in="SourceAlpha" values="0 0 0 0 0 0 0 0 0 0 0 0 0 0 0 0 0 0 127 0"/>
      <feOffset dy="4"/>
      <feGaussianBlur stdDeviation="2"/>
      <feColorMatrix values="0 0 0 0 0 0 0 0 0 0 0 0 0 0 0 0 0 0 0.25 0"/>
      <feBlend in2="BackgroundImageFix" result="effect1_dropShadow"/>
      <feBlend in="SourceGraphic" in2="effect1_dropShadow" result="shape"/>
    </filter>
  </defs>
</svg>
